G04 #@! TF.GenerationSoftware,KiCad,Pcbnew,5.1.9-73d0e3b20d~88~ubuntu20.04.1*
G04 #@! TF.CreationDate,2021-01-30T11:56:24+01:00*
G04 #@! TF.ProjectId,FY6600_Power_Supply,46593636-3030-45f5-906f-7765725f5375,1.0*
G04 #@! TF.SameCoordinates,Original*
G04 #@! TF.FileFunction,Soldermask,Top*
G04 #@! TF.FilePolarity,Negative*
%FSLAX46Y46*%
G04 Gerber Fmt 4.6, Leading zero omitted, Abs format (unit mm)*
G04 Created by KiCad (PCBNEW 5.1.9-73d0e3b20d~88~ubuntu20.04.1) date 2021-01-30 11:56:24*
%MOMM*%
%LPD*%
G01*
G04 APERTURE LIST*
%ADD10R,1.800000X2.500000*%
%ADD11O,1.700000X2.000000*%
%ADD12C,5.600000*%
%ADD13O,2.000000X1.905000*%
%ADD14R,2.000000X1.905000*%
%ADD15O,1.905000X2.000000*%
%ADD16R,1.905000X2.000000*%
%ADD17C,2.000000*%
%ADD18R,2.000000X2.000000*%
%ADD19C,2.540000*%
%ADD20R,2.540000X2.540000*%
%ADD21C,1.620000*%
%ADD22O,1.700000X1.950000*%
%ADD23R,2.500000X2.500000*%
%ADD24C,3.000000*%
%ADD25C,0.100000*%
%ADD26C,2.400000*%
%ADD27R,2.400000X2.400000*%
G04 APERTURE END LIST*
D10*
X115570000Y-65405000D03*
X115570000Y-61405000D03*
X116205000Y-56864000D03*
X116205000Y-52864000D03*
X141605000Y-51245000D03*
X141605000Y-55245000D03*
X141605000Y-59055000D03*
X141605000Y-63055000D03*
G36*
G01*
X104300000Y-52520000D02*
X105250000Y-52520000D01*
G75*
G02*
X105500000Y-52770000I0J-250000D01*
G01*
X105500000Y-53445000D01*
G75*
G02*
X105250000Y-53695000I-250000J0D01*
G01*
X104300000Y-53695000D01*
G75*
G02*
X104050000Y-53445000I0J250000D01*
G01*
X104050000Y-52770000D01*
G75*
G02*
X104300000Y-52520000I250000J0D01*
G01*
G37*
G36*
G01*
X104300000Y-50445000D02*
X105250000Y-50445000D01*
G75*
G02*
X105500000Y-50695000I0J-250000D01*
G01*
X105500000Y-51370000D01*
G75*
G02*
X105250000Y-51620000I-250000J0D01*
G01*
X104300000Y-51620000D01*
G75*
G02*
X104050000Y-51370000I0J250000D01*
G01*
X104050000Y-50695000D01*
G75*
G02*
X104300000Y-50445000I250000J0D01*
G01*
G37*
G36*
G01*
X130879000Y-53053000D02*
X130879000Y-52103000D01*
G75*
G02*
X131129000Y-51853000I250000J0D01*
G01*
X131804000Y-51853000D01*
G75*
G02*
X132054000Y-52103000I0J-250000D01*
G01*
X132054000Y-53053000D01*
G75*
G02*
X131804000Y-53303000I-250000J0D01*
G01*
X131129000Y-53303000D01*
G75*
G02*
X130879000Y-53053000I0J250000D01*
G01*
G37*
G36*
G01*
X128804000Y-53053000D02*
X128804000Y-52103000D01*
G75*
G02*
X129054000Y-51853000I250000J0D01*
G01*
X129729000Y-51853000D01*
G75*
G02*
X129979000Y-52103000I0J-250000D01*
G01*
X129979000Y-53053000D01*
G75*
G02*
X129729000Y-53303000I-250000J0D01*
G01*
X129054000Y-53303000D01*
G75*
G02*
X128804000Y-53053000I0J250000D01*
G01*
G37*
D11*
X73620000Y-62865000D03*
G36*
G01*
X70270000Y-63615000D02*
X70270000Y-62115000D01*
G75*
G02*
X70520000Y-61865000I250000J0D01*
G01*
X71720000Y-61865000D01*
G75*
G02*
X71970000Y-62115000I0J-250000D01*
G01*
X71970000Y-63615000D01*
G75*
G02*
X71720000Y-63865000I-250000J0D01*
G01*
X70520000Y-63865000D01*
G75*
G02*
X70270000Y-63615000I0J250000D01*
G01*
G37*
G36*
G01*
X89665000Y-57600001D02*
X89665000Y-56699999D01*
G75*
G02*
X89914999Y-56450000I249999J0D01*
G01*
X90615001Y-56450000D01*
G75*
G02*
X90865000Y-56699999I0J-249999D01*
G01*
X90865000Y-57600001D01*
G75*
G02*
X90615001Y-57850000I-249999J0D01*
G01*
X89914999Y-57850000D01*
G75*
G02*
X89665000Y-57600001I0J249999D01*
G01*
G37*
G36*
G01*
X87665000Y-57600001D02*
X87665000Y-56699999D01*
G75*
G02*
X87914999Y-56450000I249999J0D01*
G01*
X88615001Y-56450000D01*
G75*
G02*
X88865000Y-56699999I0J-249999D01*
G01*
X88865000Y-57600001D01*
G75*
G02*
X88615001Y-57850000I-249999J0D01*
G01*
X87914999Y-57850000D01*
G75*
G02*
X87665000Y-57600001I0J249999D01*
G01*
G37*
G36*
G01*
X89665000Y-51885001D02*
X89665000Y-50984999D01*
G75*
G02*
X89914999Y-50735000I249999J0D01*
G01*
X90615001Y-50735000D01*
G75*
G02*
X90865000Y-50984999I0J-249999D01*
G01*
X90865000Y-51885001D01*
G75*
G02*
X90615001Y-52135000I-249999J0D01*
G01*
X89914999Y-52135000D01*
G75*
G02*
X89665000Y-51885001I0J249999D01*
G01*
G37*
G36*
G01*
X87665000Y-51885001D02*
X87665000Y-50984999D01*
G75*
G02*
X87914999Y-50735000I249999J0D01*
G01*
X88615001Y-50735000D01*
G75*
G02*
X88865000Y-50984999I0J-249999D01*
G01*
X88865000Y-51885001D01*
G75*
G02*
X88615001Y-52135000I-249999J0D01*
G01*
X87914999Y-52135000D01*
G75*
G02*
X87665000Y-51885001I0J249999D01*
G01*
G37*
G36*
G01*
X69682000Y-67621999D02*
X69682000Y-68522001D01*
G75*
G02*
X69432001Y-68772000I-249999J0D01*
G01*
X68731999Y-68772000D01*
G75*
G02*
X68482000Y-68522001I0J249999D01*
G01*
X68482000Y-67621999D01*
G75*
G02*
X68731999Y-67372000I249999J0D01*
G01*
X69432001Y-67372000D01*
G75*
G02*
X69682000Y-67621999I0J-249999D01*
G01*
G37*
G36*
G01*
X71682000Y-67621999D02*
X71682000Y-68522001D01*
G75*
G02*
X71432001Y-68772000I-249999J0D01*
G01*
X70731999Y-68772000D01*
G75*
G02*
X70482000Y-68522001I0J249999D01*
G01*
X70482000Y-67621999D01*
G75*
G02*
X70731999Y-67372000I249999J0D01*
G01*
X71432001Y-67372000D01*
G75*
G02*
X71682000Y-67621999I0J-249999D01*
G01*
G37*
G36*
G01*
X88852500Y-58707000D02*
X88852500Y-59657000D01*
G75*
G02*
X88602500Y-59907000I-250000J0D01*
G01*
X87927500Y-59907000D01*
G75*
G02*
X87677500Y-59657000I0J250000D01*
G01*
X87677500Y-58707000D01*
G75*
G02*
X87927500Y-58457000I250000J0D01*
G01*
X88602500Y-58457000D01*
G75*
G02*
X88852500Y-58707000I0J-250000D01*
G01*
G37*
G36*
G01*
X90927500Y-58707000D02*
X90927500Y-59657000D01*
G75*
G02*
X90677500Y-59907000I-250000J0D01*
G01*
X90002500Y-59907000D01*
G75*
G02*
X89752500Y-59657000I0J250000D01*
G01*
X89752500Y-58707000D01*
G75*
G02*
X90002500Y-58457000I250000J0D01*
G01*
X90677500Y-58457000D01*
G75*
G02*
X90927500Y-58707000I0J-250000D01*
G01*
G37*
G36*
G01*
X89752500Y-54069000D02*
X89752500Y-53119000D01*
G75*
G02*
X90002500Y-52869000I250000J0D01*
G01*
X90677500Y-52869000D01*
G75*
G02*
X90927500Y-53119000I0J-250000D01*
G01*
X90927500Y-54069000D01*
G75*
G02*
X90677500Y-54319000I-250000J0D01*
G01*
X90002500Y-54319000D01*
G75*
G02*
X89752500Y-54069000I0J250000D01*
G01*
G37*
G36*
G01*
X87677500Y-54069000D02*
X87677500Y-53119000D01*
G75*
G02*
X87927500Y-52869000I250000J0D01*
G01*
X88602500Y-52869000D01*
G75*
G02*
X88852500Y-53119000I0J-250000D01*
G01*
X88852500Y-54069000D01*
G75*
G02*
X88602500Y-54319000I-250000J0D01*
G01*
X87927500Y-54319000D01*
G75*
G02*
X87677500Y-54069000I0J250000D01*
G01*
G37*
G36*
G01*
X69675500Y-69756000D02*
X69675500Y-70706000D01*
G75*
G02*
X69425500Y-70956000I-250000J0D01*
G01*
X68750500Y-70956000D01*
G75*
G02*
X68500500Y-70706000I0J250000D01*
G01*
X68500500Y-69756000D01*
G75*
G02*
X68750500Y-69506000I250000J0D01*
G01*
X69425500Y-69506000D01*
G75*
G02*
X69675500Y-69756000I0J-250000D01*
G01*
G37*
G36*
G01*
X71750500Y-69756000D02*
X71750500Y-70706000D01*
G75*
G02*
X71500500Y-70956000I-250000J0D01*
G01*
X70825500Y-70956000D01*
G75*
G02*
X70575500Y-70706000I0J250000D01*
G01*
X70575500Y-69756000D01*
G75*
G02*
X70825500Y-69506000I250000J0D01*
G01*
X71500500Y-69506000D01*
G75*
G02*
X71750500Y-69756000I0J-250000D01*
G01*
G37*
D12*
X130000000Y-47000000D03*
X55000000Y-47000000D03*
D13*
X108585000Y-59055000D03*
X108585000Y-56515000D03*
D14*
X108585000Y-53975000D03*
D13*
X133985000Y-59690000D03*
X133985000Y-57150000D03*
D14*
X133985000Y-54610000D03*
D15*
X59690000Y-74930000D03*
X62230000Y-74930000D03*
D16*
X64770000Y-74930000D03*
D17*
X108585000Y-95650000D03*
X113585000Y-95650000D03*
X121085000Y-95650000D03*
X128585000Y-95650000D03*
X133585000Y-95650000D03*
X133585000Y-120650000D03*
X128585000Y-120650000D03*
X113585000Y-120650000D03*
D18*
X108585000Y-120650000D03*
D17*
X61595000Y-95650000D03*
X66595000Y-95650000D03*
X74095000Y-95650000D03*
X81595000Y-95650000D03*
X86595000Y-95650000D03*
X86595000Y-120650000D03*
X81595000Y-120650000D03*
X66595000Y-120650000D03*
D18*
X61595000Y-120650000D03*
D19*
X119380000Y-134620000D03*
D20*
X111760000Y-134620000D03*
D21*
X99695000Y-51435000D03*
X94695000Y-53935000D03*
X99695000Y-56435000D03*
X125095000Y-52705000D03*
X120095000Y-55205000D03*
X125095000Y-57705000D03*
G36*
G01*
X101784999Y-56645000D02*
X102685001Y-56645000D01*
G75*
G02*
X102935000Y-56894999I0J-249999D01*
G01*
X102935000Y-57595001D01*
G75*
G02*
X102685001Y-57845000I-249999J0D01*
G01*
X101784999Y-57845000D01*
G75*
G02*
X101535000Y-57595001I0J249999D01*
G01*
X101535000Y-56894999D01*
G75*
G02*
X101784999Y-56645000I249999J0D01*
G01*
G37*
G36*
G01*
X101784999Y-54645000D02*
X102685001Y-54645000D01*
G75*
G02*
X102935000Y-54894999I0J-249999D01*
G01*
X102935000Y-55595001D01*
G75*
G02*
X102685001Y-55845000I-249999J0D01*
G01*
X101784999Y-55845000D01*
G75*
G02*
X101535000Y-55595001I0J249999D01*
G01*
X101535000Y-54894999D01*
G75*
G02*
X101784999Y-54645000I249999J0D01*
G01*
G37*
G36*
G01*
X101784999Y-52470000D02*
X102685001Y-52470000D01*
G75*
G02*
X102935000Y-52719999I0J-249999D01*
G01*
X102935000Y-53420001D01*
G75*
G02*
X102685001Y-53670000I-249999J0D01*
G01*
X101784999Y-53670000D01*
G75*
G02*
X101535000Y-53420001I0J249999D01*
G01*
X101535000Y-52719999D01*
G75*
G02*
X101784999Y-52470000I249999J0D01*
G01*
G37*
G36*
G01*
X101784999Y-50470000D02*
X102685001Y-50470000D01*
G75*
G02*
X102935000Y-50719999I0J-249999D01*
G01*
X102935000Y-51420001D01*
G75*
G02*
X102685001Y-51670000I-249999J0D01*
G01*
X101784999Y-51670000D01*
G75*
G02*
X101535000Y-51420001I0J249999D01*
G01*
X101535000Y-50719999D01*
G75*
G02*
X101784999Y-50470000I249999J0D01*
G01*
G37*
G36*
G01*
X65589999Y-52613000D02*
X66490001Y-52613000D01*
G75*
G02*
X66740000Y-52862999I0J-249999D01*
G01*
X66740000Y-53563001D01*
G75*
G02*
X66490001Y-53813000I-249999J0D01*
G01*
X65589999Y-53813000D01*
G75*
G02*
X65340000Y-53563001I0J249999D01*
G01*
X65340000Y-52862999D01*
G75*
G02*
X65589999Y-52613000I249999J0D01*
G01*
G37*
G36*
G01*
X65589999Y-50613000D02*
X66490001Y-50613000D01*
G75*
G02*
X66740000Y-50862999I0J-249999D01*
G01*
X66740000Y-51563001D01*
G75*
G02*
X66490001Y-51813000I-249999J0D01*
G01*
X65589999Y-51813000D01*
G75*
G02*
X65340000Y-51563001I0J249999D01*
G01*
X65340000Y-50862999D01*
G75*
G02*
X65589999Y-50613000I249999J0D01*
G01*
G37*
G36*
G01*
X62160999Y-52613000D02*
X63061001Y-52613000D01*
G75*
G02*
X63311000Y-52862999I0J-249999D01*
G01*
X63311000Y-53563001D01*
G75*
G02*
X63061001Y-53813000I-249999J0D01*
G01*
X62160999Y-53813000D01*
G75*
G02*
X61911000Y-53563001I0J249999D01*
G01*
X61911000Y-52862999D01*
G75*
G02*
X62160999Y-52613000I249999J0D01*
G01*
G37*
G36*
G01*
X62160999Y-50613000D02*
X63061001Y-50613000D01*
G75*
G02*
X63311000Y-50862999I0J-249999D01*
G01*
X63311000Y-51563001D01*
G75*
G02*
X63061001Y-51813000I-249999J0D01*
G01*
X62160999Y-51813000D01*
G75*
G02*
X61911000Y-51563001I0J249999D01*
G01*
X61911000Y-50862999D01*
G75*
G02*
X62160999Y-50613000I249999J0D01*
G01*
G37*
G36*
G01*
X58731999Y-52597000D02*
X59632001Y-52597000D01*
G75*
G02*
X59882000Y-52846999I0J-249999D01*
G01*
X59882000Y-53547001D01*
G75*
G02*
X59632001Y-53797000I-249999J0D01*
G01*
X58731999Y-53797000D01*
G75*
G02*
X58482000Y-53547001I0J249999D01*
G01*
X58482000Y-52846999D01*
G75*
G02*
X58731999Y-52597000I249999J0D01*
G01*
G37*
G36*
G01*
X58731999Y-50597000D02*
X59632001Y-50597000D01*
G75*
G02*
X59882000Y-50846999I0J-249999D01*
G01*
X59882000Y-51547001D01*
G75*
G02*
X59632001Y-51797000I-249999J0D01*
G01*
X58731999Y-51797000D01*
G75*
G02*
X58482000Y-51547001I0J249999D01*
G01*
X58482000Y-50846999D01*
G75*
G02*
X58731999Y-50597000I249999J0D01*
G01*
G37*
G36*
G01*
X127831001Y-53067000D02*
X126930999Y-53067000D01*
G75*
G02*
X126681000Y-52817001I0J249999D01*
G01*
X126681000Y-52116999D01*
G75*
G02*
X126930999Y-51867000I249999J0D01*
G01*
X127831001Y-51867000D01*
G75*
G02*
X128081000Y-52116999I0J-249999D01*
G01*
X128081000Y-52817001D01*
G75*
G02*
X127831001Y-53067000I-249999J0D01*
G01*
G37*
G36*
G01*
X127831001Y-55067000D02*
X126930999Y-55067000D01*
G75*
G02*
X126681000Y-54817001I0J249999D01*
G01*
X126681000Y-54116999D01*
G75*
G02*
X126930999Y-53867000I249999J0D01*
G01*
X127831001Y-53867000D01*
G75*
G02*
X128081000Y-54116999I0J-249999D01*
G01*
X128081000Y-54817001D01*
G75*
G02*
X127831001Y-55067000I-249999J0D01*
G01*
G37*
G36*
G01*
X130625001Y-55210000D02*
X129724999Y-55210000D01*
G75*
G02*
X129475000Y-54960001I0J249999D01*
G01*
X129475000Y-54259999D01*
G75*
G02*
X129724999Y-54010000I249999J0D01*
G01*
X130625001Y-54010000D01*
G75*
G02*
X130875000Y-54259999I0J-249999D01*
G01*
X130875000Y-54960001D01*
G75*
G02*
X130625001Y-55210000I-249999J0D01*
G01*
G37*
G36*
G01*
X130625001Y-57210000D02*
X129724999Y-57210000D01*
G75*
G02*
X129475000Y-56960001I0J249999D01*
G01*
X129475000Y-56259999D01*
G75*
G02*
X129724999Y-56010000I249999J0D01*
G01*
X130625001Y-56010000D01*
G75*
G02*
X130875000Y-56259999I0J-249999D01*
G01*
X130875000Y-56960001D01*
G75*
G02*
X130625001Y-57210000I-249999J0D01*
G01*
G37*
D22*
X83620000Y-55245000D03*
X81120000Y-55245000D03*
X78620000Y-55245000D03*
X76120000Y-55245000D03*
X73620000Y-55245000D03*
G36*
G01*
X70270000Y-55970000D02*
X70270000Y-54520000D01*
G75*
G02*
X70520000Y-54270000I250000J0D01*
G01*
X71720000Y-54270000D01*
G75*
G02*
X71970000Y-54520000I0J-250000D01*
G01*
X71970000Y-55970000D01*
G75*
G02*
X71720000Y-56220000I-250000J0D01*
G01*
X70520000Y-56220000D01*
G75*
G02*
X70270000Y-55970000I0J250000D01*
G01*
G37*
D19*
X73660000Y-134620000D03*
D20*
X66040000Y-134620000D03*
D23*
X112395000Y-56515000D03*
X137795000Y-57150000D03*
X62230000Y-78740000D03*
D12*
X55000000Y-85000000D03*
X97500000Y-85000000D03*
X130000000Y-137000000D03*
X55000000Y-137000000D03*
D24*
X103880000Y-134620000D03*
X81280000Y-134620000D03*
D25*
G36*
X119235786Y-78740000D02*
G01*
X120650000Y-77325786D01*
X122064214Y-78740000D01*
X120650000Y-80154214D01*
X119235786Y-78740000D01*
G37*
G36*
G01*
X119942893Y-85103961D02*
X119942893Y-85103961D01*
G75*
G02*
X121357107Y-85103961I707107J-707107D01*
G01*
X121357107Y-85103961D01*
G75*
G02*
X121357107Y-86518175I-707107J-707107D01*
G01*
X121357107Y-86518175D01*
G75*
G02*
X119942893Y-86518175I-707107J707107D01*
G01*
X119942893Y-86518175D01*
G75*
G02*
X119942893Y-85103961I707107J707107D01*
G01*
G37*
G36*
G01*
X116407359Y-81568427D02*
X116407359Y-81568427D01*
G75*
G02*
X117821573Y-81568427I707107J-707107D01*
G01*
X117821573Y-81568427D01*
G75*
G02*
X117821573Y-82982641I-707107J-707107D01*
G01*
X117821573Y-82982641D01*
G75*
G02*
X116407359Y-82982641I-707107J707107D01*
G01*
X116407359Y-82982641D01*
G75*
G02*
X116407359Y-81568427I707107J707107D01*
G01*
G37*
G36*
G01*
X123478427Y-81568427D02*
X123478427Y-81568427D01*
G75*
G02*
X124892641Y-81568427I707107J-707107D01*
G01*
X124892641Y-81568427D01*
G75*
G02*
X124892641Y-82982641I-707107J-707107D01*
G01*
X124892641Y-82982641D01*
G75*
G02*
X123478427Y-82982641I-707107J707107D01*
G01*
X123478427Y-82982641D01*
G75*
G02*
X123478427Y-81568427I707107J707107D01*
G01*
G37*
G36*
G01*
X65589999Y-56584000D02*
X66490001Y-56584000D01*
G75*
G02*
X66740000Y-56833999I0J-249999D01*
G01*
X66740000Y-57484001D01*
G75*
G02*
X66490001Y-57734000I-249999J0D01*
G01*
X65589999Y-57734000D01*
G75*
G02*
X65340000Y-57484001I0J249999D01*
G01*
X65340000Y-56833999D01*
G75*
G02*
X65589999Y-56584000I249999J0D01*
G01*
G37*
G36*
G01*
X65589999Y-54534000D02*
X66490001Y-54534000D01*
G75*
G02*
X66740000Y-54783999I0J-249999D01*
G01*
X66740000Y-55434001D01*
G75*
G02*
X66490001Y-55684000I-249999J0D01*
G01*
X65589999Y-55684000D01*
G75*
G02*
X65340000Y-55434001I0J249999D01*
G01*
X65340000Y-54783999D01*
G75*
G02*
X65589999Y-54534000I249999J0D01*
G01*
G37*
G36*
G01*
X63061001Y-55684000D02*
X62160999Y-55684000D01*
G75*
G02*
X61911000Y-55434001I0J249999D01*
G01*
X61911000Y-54783999D01*
G75*
G02*
X62160999Y-54534000I249999J0D01*
G01*
X63061001Y-54534000D01*
G75*
G02*
X63311000Y-54783999I0J-249999D01*
G01*
X63311000Y-55434001D01*
G75*
G02*
X63061001Y-55684000I-249999J0D01*
G01*
G37*
G36*
G01*
X63061001Y-57734000D02*
X62160999Y-57734000D01*
G75*
G02*
X61911000Y-57484001I0J249999D01*
G01*
X61911000Y-56833999D01*
G75*
G02*
X62160999Y-56584000I249999J0D01*
G01*
X63061001Y-56584000D01*
G75*
G02*
X63311000Y-56833999I0J-249999D01*
G01*
X63311000Y-57484001D01*
G75*
G02*
X63061001Y-57734000I-249999J0D01*
G01*
G37*
G36*
G01*
X59632001Y-55693000D02*
X58731999Y-55693000D01*
G75*
G02*
X58482000Y-55443001I0J249999D01*
G01*
X58482000Y-54792999D01*
G75*
G02*
X58731999Y-54543000I249999J0D01*
G01*
X59632001Y-54543000D01*
G75*
G02*
X59882000Y-54792999I0J-249999D01*
G01*
X59882000Y-55443001D01*
G75*
G02*
X59632001Y-55693000I-249999J0D01*
G01*
G37*
G36*
G01*
X59632001Y-57743000D02*
X58731999Y-57743000D01*
G75*
G02*
X58482000Y-57493001I0J249999D01*
G01*
X58482000Y-56842999D01*
G75*
G02*
X58731999Y-56593000I249999J0D01*
G01*
X59632001Y-56593000D01*
G75*
G02*
X59882000Y-56842999I0J-249999D01*
G01*
X59882000Y-57493001D01*
G75*
G02*
X59632001Y-57743000I-249999J0D01*
G01*
G37*
G36*
X71610786Y-78740000D02*
G01*
X73025000Y-77325786D01*
X74439214Y-78740000D01*
X73025000Y-80154214D01*
X71610786Y-78740000D01*
G37*
G36*
G01*
X72317893Y-85103961D02*
X72317893Y-85103961D01*
G75*
G02*
X73732107Y-85103961I707107J-707107D01*
G01*
X73732107Y-85103961D01*
G75*
G02*
X73732107Y-86518175I-707107J-707107D01*
G01*
X73732107Y-86518175D01*
G75*
G02*
X72317893Y-86518175I-707107J707107D01*
G01*
X72317893Y-86518175D01*
G75*
G02*
X72317893Y-85103961I707107J707107D01*
G01*
G37*
G36*
G01*
X68782359Y-81568427D02*
X68782359Y-81568427D01*
G75*
G02*
X70196573Y-81568427I707107J-707107D01*
G01*
X70196573Y-81568427D01*
G75*
G02*
X70196573Y-82982641I-707107J-707107D01*
G01*
X70196573Y-82982641D01*
G75*
G02*
X68782359Y-82982641I-707107J707107D01*
G01*
X68782359Y-82982641D01*
G75*
G02*
X68782359Y-81568427I707107J707107D01*
G01*
G37*
G36*
G01*
X75853427Y-81568427D02*
X75853427Y-81568427D01*
G75*
G02*
X77267641Y-81568427I707107J-707107D01*
G01*
X77267641Y-81568427D01*
G75*
G02*
X77267641Y-82982641I-707107J-707107D01*
G01*
X77267641Y-82982641D01*
G75*
G02*
X75853427Y-82982641I-707107J707107D01*
G01*
X75853427Y-82982641D01*
G75*
G02*
X75853427Y-81568427I707107J707107D01*
G01*
G37*
G36*
G01*
X105250000Y-59642500D02*
X104300000Y-59642500D01*
G75*
G02*
X104050000Y-59392500I0J250000D01*
G01*
X104050000Y-58717500D01*
G75*
G02*
X104300000Y-58467500I250000J0D01*
G01*
X105250000Y-58467500D01*
G75*
G02*
X105500000Y-58717500I0J-250000D01*
G01*
X105500000Y-59392500D01*
G75*
G02*
X105250000Y-59642500I-250000J0D01*
G01*
G37*
G36*
G01*
X105250000Y-61717500D02*
X104300000Y-61717500D01*
G75*
G02*
X104050000Y-61467500I0J250000D01*
G01*
X104050000Y-60792500D01*
G75*
G02*
X104300000Y-60542500I250000J0D01*
G01*
X105250000Y-60542500D01*
G75*
G02*
X105500000Y-60792500I0J-250000D01*
G01*
X105500000Y-61467500D01*
G75*
G02*
X105250000Y-61717500I-250000J0D01*
G01*
G37*
D17*
X96647000Y-61040000D03*
D18*
X96647000Y-66040000D03*
G36*
G01*
X104300000Y-56562500D02*
X105250000Y-56562500D01*
G75*
G02*
X105500000Y-56812500I0J-250000D01*
G01*
X105500000Y-57487500D01*
G75*
G02*
X105250000Y-57737500I-250000J0D01*
G01*
X104300000Y-57737500D01*
G75*
G02*
X104050000Y-57487500I0J250000D01*
G01*
X104050000Y-56812500D01*
G75*
G02*
X104300000Y-56562500I250000J0D01*
G01*
G37*
G36*
G01*
X104300000Y-54487500D02*
X105250000Y-54487500D01*
G75*
G02*
X105500000Y-54737500I0J-250000D01*
G01*
X105500000Y-55412500D01*
G75*
G02*
X105250000Y-55662500I-250000J0D01*
G01*
X104300000Y-55662500D01*
G75*
G02*
X104050000Y-55412500I0J250000D01*
G01*
X104050000Y-54737500D01*
G75*
G02*
X104300000Y-54487500I250000J0D01*
G01*
G37*
D26*
X110370000Y-75565000D03*
D27*
X102870000Y-75565000D03*
G36*
G01*
X127160000Y-60140000D02*
X128110000Y-60140000D01*
G75*
G02*
X128360000Y-60390000I0J-250000D01*
G01*
X128360000Y-61065000D01*
G75*
G02*
X128110000Y-61315000I-250000J0D01*
G01*
X127160000Y-61315000D01*
G75*
G02*
X126910000Y-61065000I0J250000D01*
G01*
X126910000Y-60390000D01*
G75*
G02*
X127160000Y-60140000I250000J0D01*
G01*
G37*
G36*
G01*
X127160000Y-58065000D02*
X128110000Y-58065000D01*
G75*
G02*
X128360000Y-58315000I0J-250000D01*
G01*
X128360000Y-58990000D01*
G75*
G02*
X128110000Y-59240000I-250000J0D01*
G01*
X127160000Y-59240000D01*
G75*
G02*
X126910000Y-58990000I0J250000D01*
G01*
X126910000Y-58315000D01*
G75*
G02*
X127160000Y-58065000I250000J0D01*
G01*
G37*
D17*
X123190000Y-68500000D03*
D18*
X123190000Y-63500000D03*
G36*
G01*
X129700000Y-58848500D02*
X130650000Y-58848500D01*
G75*
G02*
X130900000Y-59098500I0J-250000D01*
G01*
X130900000Y-59773500D01*
G75*
G02*
X130650000Y-60023500I-250000J0D01*
G01*
X129700000Y-60023500D01*
G75*
G02*
X129450000Y-59773500I0J250000D01*
G01*
X129450000Y-59098500D01*
G75*
G02*
X129700000Y-58848500I250000J0D01*
G01*
G37*
G36*
G01*
X129700000Y-60923500D02*
X130650000Y-60923500D01*
G75*
G02*
X130900000Y-61173500I0J-250000D01*
G01*
X130900000Y-61848500D01*
G75*
G02*
X130650000Y-62098500I-250000J0D01*
G01*
X129700000Y-62098500D01*
G75*
G02*
X129450000Y-61848500I0J250000D01*
G01*
X129450000Y-61173500D01*
G75*
G02*
X129700000Y-60923500I250000J0D01*
G01*
G37*
D26*
X138310000Y-75565000D03*
D27*
X130810000Y-75565000D03*
G36*
G01*
X60372500Y-71595000D02*
X60372500Y-70645000D01*
G75*
G02*
X60622500Y-70395000I250000J0D01*
G01*
X61297500Y-70395000D01*
G75*
G02*
X61547500Y-70645000I0J-250000D01*
G01*
X61547500Y-71595000D01*
G75*
G02*
X61297500Y-71845000I-250000J0D01*
G01*
X60622500Y-71845000D01*
G75*
G02*
X60372500Y-71595000I0J250000D01*
G01*
G37*
G36*
G01*
X58297500Y-71595000D02*
X58297500Y-70645000D01*
G75*
G02*
X58547500Y-70395000I250000J0D01*
G01*
X59222500Y-70395000D01*
G75*
G02*
X59472500Y-70645000I0J-250000D01*
G01*
X59472500Y-71595000D01*
G75*
G02*
X59222500Y-71845000I-250000J0D01*
G01*
X58547500Y-71845000D01*
G75*
G02*
X58297500Y-71595000I0J250000D01*
G01*
G37*
D17*
X62230000Y-61548000D03*
D18*
X62230000Y-66548000D03*
G36*
G01*
X64087500Y-70645000D02*
X64087500Y-71595000D01*
G75*
G02*
X63837500Y-71845000I-250000J0D01*
G01*
X63162500Y-71845000D01*
G75*
G02*
X62912500Y-71595000I0J250000D01*
G01*
X62912500Y-70645000D01*
G75*
G02*
X63162500Y-70395000I250000J0D01*
G01*
X63837500Y-70395000D01*
G75*
G02*
X64087500Y-70645000I0J-250000D01*
G01*
G37*
G36*
G01*
X66162500Y-70645000D02*
X66162500Y-71595000D01*
G75*
G02*
X65912500Y-71845000I-250000J0D01*
G01*
X65237500Y-71845000D01*
G75*
G02*
X64987500Y-71595000I0J250000D01*
G01*
X64987500Y-70645000D01*
G75*
G02*
X65237500Y-70395000I250000J0D01*
G01*
X65912500Y-70395000D01*
G75*
G02*
X66162500Y-70645000I0J-250000D01*
G01*
G37*
D26*
X90685000Y-75565000D03*
D27*
X83185000Y-75565000D03*
M02*
