M48
; DRILL file {KiCad 5.1.9-73d0e3b20d~88~ubuntu20.04.1} date Sat Jan 30 11:57:27 2021
; FORMAT={-:-/ absolute / inch / decimal}
; #@! TF.CreationDate,2021-01-30T11:57:27+01:00
; #@! TF.GenerationSoftware,Kicad,Pcbnew,5.1.9-73d0e3b20d~88~ubuntu20.04.1
; #@! TF.FileFunction,Plated,1,2,PTH
FMAT,2
INCH
T1C0.0157
T2C0.0354
T3C0.0374
T4C0.0394
T5C0.0433
T6C0.0472
T7C0.0591
T8C0.0630
T9C0.1260
%
G90
G05
T1
X2.38Y-2.015
X2.3993Y-2.2507
X2.45Y-2.8
X2.45Y-2.85
X2.45Y-3.025
X2.515Y-2.015
X2.5346Y-2.2504
X2.65Y-2.01
X2.675Y-2.765
X3.6Y-2.11
X3.6Y-2.33
X4.125Y-2.45
X4.175Y-2.01
X4.1783Y-2.1683
X4.575Y-2.325
X5.0733Y-2.4217
X5.225Y-2.06
T2
X2.425Y-3.7657
X2.425Y-4.75
X2.6219Y-3.7657
X2.6219Y-4.75
X2.9171Y-3.7657
X3.2124Y-3.7657
X3.2124Y-4.75
X3.4093Y-3.7657
X3.4093Y-4.75
X3.7281Y-2.1234
X3.925Y-2.025
X3.925Y-2.2219
X4.275Y-3.7657
X4.275Y-4.75
X4.4719Y-3.7657
X4.4719Y-4.75
X4.7281Y-2.1734
X4.7671Y-3.7657
X4.925Y-2.075
X4.925Y-2.2719
X5.0624Y-3.7657
X5.0624Y-4.75
X5.2593Y-3.7657
X5.2593Y-4.75
T3
X2.8Y-2.175
X2.8984Y-2.175
X2.9969Y-2.175
X3.0953Y-2.175
X3.1937Y-2.175
X3.2921Y-2.175
T4
X2.45Y-2.4231
X2.45Y-2.62
X2.7358Y-3.2392
X2.8Y-2.475
X2.875Y-3.1
X2.875Y-3.3784
X2.8984Y-2.475
X3.0142Y-3.2392
X3.805Y-2.4031
X3.805Y-2.6
X4.6108Y-3.2392
X4.75Y-3.1
X4.75Y-3.3784
X4.85Y-2.5
X4.85Y-2.6969
X4.8892Y-3.2392
T5
X2.35Y-2.95
X2.45Y-2.95
X2.55Y-2.95
X4.275Y-2.125
X4.275Y-2.225
X4.275Y-2.325
X5.275Y-2.15
X5.275Y-2.25
X5.275Y-2.35
T6
X2.45Y-3.1
X3.275Y-2.975
X3.5703Y-2.975
X4.05Y-2.975
X4.3453Y-2.975
X4.425Y-2.225
X5.15Y-2.975
X5.425Y-2.25
X5.4453Y-2.975
T7
X3.2Y-5.3
X4.0898Y-5.3
T8
X2.6Y-5.3
X2.9Y-5.3
X4.4Y-5.3
X4.7Y-5.3
T9
X2.1654Y-1.8504
X2.1654Y-3.3465
X2.1654Y-5.3937
X3.8386Y-3.3465
X5.1181Y-1.8504
X5.1181Y-5.3937
T0
M30
