G04 #@! TF.GenerationSoftware,KiCad,Pcbnew,5.1.9-73d0e3b20d~88~ubuntu20.04.1*
G04 #@! TF.CreationDate,2021-01-30T11:56:24+01:00*
G04 #@! TF.ProjectId,FY6600_Power_Supply,46593636-3030-45f5-906f-7765725f5375,1.0*
G04 #@! TF.SameCoordinates,Original*
G04 #@! TF.FileFunction,Legend,Top*
G04 #@! TF.FilePolarity,Positive*
%FSLAX46Y46*%
G04 Gerber Fmt 4.6, Leading zero omitted, Abs format (unit mm)*
G04 Created by KiCad (PCBNEW 5.1.9-73d0e3b20d~88~ubuntu20.04.1) date 2021-01-30 11:56:24*
%MOMM*%
%LPD*%
G01*
G04 APERTURE LIST*
%ADD10C,0.150000*%
%ADD11C,0.200000*%
%ADD12C,0.300000*%
%ADD13C,0.120000*%
%ADD14C,0.010000*%
G04 APERTURE END LIST*
D10*
X120269047Y-76271428D02*
X121030952Y-76271428D01*
X120650000Y-76652380D02*
X120650000Y-75890476D01*
X72644047Y-76271428D02*
X73405952Y-76271428D01*
X73025000Y-76652380D02*
X73025000Y-75890476D01*
X65984428Y-50083404D02*
X65984428Y-49321500D01*
X66365380Y-48321500D02*
X66365380Y-48892928D01*
X66365380Y-48607214D02*
X65365380Y-48607214D01*
X65508238Y-48702452D01*
X65603476Y-48797690D01*
X65651095Y-48892928D01*
X65460619Y-47940547D02*
X65413000Y-47892928D01*
X65365380Y-47797690D01*
X65365380Y-47559595D01*
X65413000Y-47464357D01*
X65460619Y-47416738D01*
X65555857Y-47369119D01*
X65651095Y-47369119D01*
X65793952Y-47416738D01*
X66365380Y-47988166D01*
X66365380Y-47369119D01*
X65365380Y-47083404D02*
X66365380Y-46750071D01*
X65365380Y-46416738D01*
X62682428Y-50083404D02*
X62682428Y-49321500D01*
X63063380Y-49702452D02*
X62301476Y-49702452D01*
X63063380Y-48321500D02*
X63063380Y-48892928D01*
X63063380Y-48607214D02*
X62063380Y-48607214D01*
X62206238Y-48702452D01*
X62301476Y-48797690D01*
X62349095Y-48892928D01*
X62158619Y-47940547D02*
X62111000Y-47892928D01*
X62063380Y-47797690D01*
X62063380Y-47559595D01*
X62111000Y-47464357D01*
X62158619Y-47416738D01*
X62253857Y-47369119D01*
X62349095Y-47369119D01*
X62491952Y-47416738D01*
X63063380Y-47988166D01*
X63063380Y-47369119D01*
X62063380Y-47083404D02*
X63063380Y-46750071D01*
X62063380Y-46416738D01*
X59253428Y-50083404D02*
X59253428Y-49321500D01*
X59634380Y-49702452D02*
X58872476Y-49702452D01*
X58634380Y-48369119D02*
X58634380Y-48845309D01*
X59110571Y-48892928D01*
X59062952Y-48845309D01*
X59015333Y-48750071D01*
X59015333Y-48511976D01*
X59062952Y-48416738D01*
X59110571Y-48369119D01*
X59205809Y-48321500D01*
X59443904Y-48321500D01*
X59539142Y-48369119D01*
X59586761Y-48416738D01*
X59634380Y-48511976D01*
X59634380Y-48750071D01*
X59586761Y-48845309D01*
X59539142Y-48892928D01*
X58634380Y-48035785D02*
X59634380Y-47702452D01*
X58634380Y-47369119D01*
D11*
X68625142Y-105514857D02*
X68625142Y-106372000D01*
X68568000Y-106543428D01*
X68453714Y-106657714D01*
X68282285Y-106714857D01*
X68168000Y-106714857D01*
X69768000Y-106714857D02*
X69196571Y-106714857D01*
X69196571Y-105514857D01*
X70853714Y-106600571D02*
X70796571Y-106657714D01*
X70625142Y-106714857D01*
X70510857Y-106714857D01*
X70339428Y-106657714D01*
X70225142Y-106543428D01*
X70168000Y-106429142D01*
X70110857Y-106200571D01*
X70110857Y-106029142D01*
X70168000Y-105800571D01*
X70225142Y-105686285D01*
X70339428Y-105572000D01*
X70510857Y-105514857D01*
X70625142Y-105514857D01*
X70796571Y-105572000D01*
X70853714Y-105629142D01*
X71710857Y-105514857D02*
X71710857Y-106372000D01*
X71653714Y-106543428D01*
X71539428Y-106657714D01*
X71368000Y-106714857D01*
X71253714Y-106714857D01*
X72853714Y-106714857D02*
X72282285Y-106714857D01*
X72282285Y-105514857D01*
X73939428Y-106600571D02*
X73882285Y-106657714D01*
X73710857Y-106714857D01*
X73596571Y-106714857D01*
X73425142Y-106657714D01*
X73310857Y-106543428D01*
X73253714Y-106429142D01*
X73196571Y-106200571D01*
X73196571Y-106029142D01*
X73253714Y-105800571D01*
X73310857Y-105686285D01*
X73425142Y-105572000D01*
X73596571Y-105514857D01*
X73710857Y-105514857D01*
X73882285Y-105572000D01*
X73939428Y-105629142D01*
X74796571Y-105514857D02*
X74796571Y-106372000D01*
X74739428Y-106543428D01*
X74625142Y-106657714D01*
X74453714Y-106714857D01*
X74339428Y-106714857D01*
X75939428Y-106714857D02*
X75368000Y-106714857D01*
X75368000Y-105514857D01*
X77025142Y-106600571D02*
X76968000Y-106657714D01*
X76796571Y-106714857D01*
X76682285Y-106714857D01*
X76510857Y-106657714D01*
X76396571Y-106543428D01*
X76339428Y-106429142D01*
X76282285Y-106200571D01*
X76282285Y-106029142D01*
X76339428Y-105800571D01*
X76396571Y-105686285D01*
X76510857Y-105572000D01*
X76682285Y-105514857D01*
X76796571Y-105514857D01*
X76968000Y-105572000D01*
X77025142Y-105629142D01*
X77882285Y-105514857D02*
X77882285Y-106372000D01*
X77825142Y-106543428D01*
X77710857Y-106657714D01*
X77539428Y-106714857D01*
X77425142Y-106714857D01*
X79025142Y-106714857D02*
X78453714Y-106714857D01*
X78453714Y-105514857D01*
X80110857Y-106600571D02*
X80053714Y-106657714D01*
X79882285Y-106714857D01*
X79768000Y-106714857D01*
X79596571Y-106657714D01*
X79482285Y-106543428D01*
X79425142Y-106429142D01*
X79368000Y-106200571D01*
X79368000Y-106029142D01*
X79425142Y-105800571D01*
X79482285Y-105686285D01*
X79596571Y-105572000D01*
X79768000Y-105514857D01*
X79882285Y-105514857D01*
X80053714Y-105572000D01*
X80110857Y-105629142D01*
X127937428Y-132203857D02*
X127937428Y-133403857D01*
X127937428Y-132946714D02*
X127823142Y-133003857D01*
X127594571Y-133003857D01*
X127480285Y-132946714D01*
X127423142Y-132889571D01*
X127366000Y-132775285D01*
X127366000Y-132432428D01*
X127423142Y-132318142D01*
X127480285Y-132261000D01*
X127594571Y-132203857D01*
X127823142Y-132203857D01*
X127937428Y-132261000D01*
X129023142Y-132203857D02*
X129023142Y-133003857D01*
X128508857Y-132203857D02*
X128508857Y-132832428D01*
X128566000Y-132946714D01*
X128680285Y-133003857D01*
X128851714Y-133003857D01*
X128966000Y-132946714D01*
X129023142Y-132889571D01*
X129594571Y-133003857D02*
X129594571Y-132203857D01*
X129594571Y-131803857D02*
X129537428Y-131861000D01*
X129594571Y-131918142D01*
X129651714Y-131861000D01*
X129594571Y-131803857D01*
X129594571Y-131918142D01*
X130166000Y-133003857D02*
X130166000Y-132203857D01*
X130166000Y-132432428D02*
X130223142Y-132318142D01*
X130280285Y-132261000D01*
X130394571Y-132203857D01*
X130508857Y-132203857D01*
X130908857Y-133003857D02*
X130908857Y-131803857D01*
X131023142Y-132546714D02*
X131366000Y-133003857D01*
X131366000Y-132203857D02*
X130908857Y-132661000D01*
X131766000Y-132203857D02*
X132051714Y-133003857D01*
X132337428Y-132203857D02*
X132051714Y-133003857D01*
X131937428Y-133289571D01*
X131880285Y-133346714D01*
X131766000Y-133403857D01*
X133651714Y-132946714D02*
X133766000Y-133003857D01*
X133994571Y-133003857D01*
X134108857Y-132946714D01*
X134166000Y-132832428D01*
X134166000Y-132775285D01*
X134108857Y-132661000D01*
X133994571Y-132603857D01*
X133823142Y-132603857D01*
X133708857Y-132546714D01*
X133651714Y-132432428D01*
X133651714Y-132375285D01*
X133708857Y-132261000D01*
X133823142Y-132203857D01*
X133994571Y-132203857D01*
X134108857Y-132261000D01*
X134851714Y-133003857D02*
X134737428Y-132946714D01*
X134680285Y-132889571D01*
X134623142Y-132775285D01*
X134623142Y-132432428D01*
X134680285Y-132318142D01*
X134737428Y-132261000D01*
X134851714Y-132203857D01*
X135023142Y-132203857D01*
X135137428Y-132261000D01*
X135194571Y-132318142D01*
X135251714Y-132432428D01*
X135251714Y-132775285D01*
X135194571Y-132889571D01*
X135137428Y-132946714D01*
X135023142Y-133003857D01*
X134851714Y-133003857D01*
X135937428Y-133003857D02*
X135823142Y-132946714D01*
X135766000Y-132832428D01*
X135766000Y-131803857D01*
X136908857Y-132203857D02*
X136908857Y-133003857D01*
X136394571Y-132203857D02*
X136394571Y-132832428D01*
X136451714Y-132946714D01*
X136566000Y-133003857D01*
X136737428Y-133003857D01*
X136851714Y-132946714D01*
X136908857Y-132889571D01*
X137308857Y-132203857D02*
X137766000Y-132203857D01*
X137480285Y-131803857D02*
X137480285Y-132832428D01*
X137537428Y-132946714D01*
X137651714Y-133003857D01*
X137766000Y-133003857D01*
X138166000Y-133003857D02*
X138166000Y-132203857D01*
X138166000Y-131803857D02*
X138108857Y-131861000D01*
X138166000Y-131918142D01*
X138223142Y-131861000D01*
X138166000Y-131803857D01*
X138166000Y-131918142D01*
X138908857Y-133003857D02*
X138794571Y-132946714D01*
X138737428Y-132889571D01*
X138680285Y-132775285D01*
X138680285Y-132432428D01*
X138737428Y-132318142D01*
X138794571Y-132261000D01*
X138908857Y-132203857D01*
X139080285Y-132203857D01*
X139194571Y-132261000D01*
X139251714Y-132318142D01*
X139308857Y-132432428D01*
X139308857Y-132775285D01*
X139251714Y-132889571D01*
X139194571Y-132946714D01*
X139080285Y-133003857D01*
X138908857Y-133003857D01*
X139823142Y-132203857D02*
X139823142Y-133003857D01*
X139823142Y-132318142D02*
X139880285Y-132261000D01*
X139994571Y-132203857D01*
X140166000Y-132203857D01*
X140280285Y-132261000D01*
X140337428Y-132375285D01*
X140337428Y-133003857D01*
X140851714Y-132946714D02*
X140966000Y-133003857D01*
X141194571Y-133003857D01*
X141308857Y-132946714D01*
X141366000Y-132832428D01*
X141366000Y-132775285D01*
X141308857Y-132661000D01*
X141194571Y-132603857D01*
X141023142Y-132603857D01*
X140908857Y-132546714D01*
X140851714Y-132432428D01*
X140851714Y-132375285D01*
X140908857Y-132261000D01*
X141023142Y-132203857D01*
X141194571Y-132203857D01*
X141308857Y-132261000D01*
D12*
X78202333Y-44307142D02*
X77535666Y-44307142D01*
X77535666Y-45354761D02*
X77535666Y-43354761D01*
X78488047Y-43354761D01*
X79630904Y-44402380D02*
X79630904Y-45354761D01*
X78964238Y-43354761D02*
X79630904Y-44402380D01*
X80297571Y-43354761D01*
X81821380Y-43354761D02*
X81440428Y-43354761D01*
X81249952Y-43450000D01*
X81154714Y-43545238D01*
X80964238Y-43830952D01*
X80869000Y-44211904D01*
X80869000Y-44973809D01*
X80964238Y-45164285D01*
X81059476Y-45259523D01*
X81249952Y-45354761D01*
X81630904Y-45354761D01*
X81821380Y-45259523D01*
X81916619Y-45164285D01*
X82011857Y-44973809D01*
X82011857Y-44497619D01*
X81916619Y-44307142D01*
X81821380Y-44211904D01*
X81630904Y-44116666D01*
X81249952Y-44116666D01*
X81059476Y-44211904D01*
X80964238Y-44307142D01*
X80869000Y-44497619D01*
X83726142Y-43354761D02*
X83345190Y-43354761D01*
X83154714Y-43450000D01*
X83059476Y-43545238D01*
X82869000Y-43830952D01*
X82773761Y-44211904D01*
X82773761Y-44973809D01*
X82869000Y-45164285D01*
X82964238Y-45259523D01*
X83154714Y-45354761D01*
X83535666Y-45354761D01*
X83726142Y-45259523D01*
X83821380Y-45164285D01*
X83916619Y-44973809D01*
X83916619Y-44497619D01*
X83821380Y-44307142D01*
X83726142Y-44211904D01*
X83535666Y-44116666D01*
X83154714Y-44116666D01*
X82964238Y-44211904D01*
X82869000Y-44307142D01*
X82773761Y-44497619D01*
X85154714Y-43354761D02*
X85345190Y-43354761D01*
X85535666Y-43450000D01*
X85630904Y-43545238D01*
X85726142Y-43735714D01*
X85821380Y-44116666D01*
X85821380Y-44592857D01*
X85726142Y-44973809D01*
X85630904Y-45164285D01*
X85535666Y-45259523D01*
X85345190Y-45354761D01*
X85154714Y-45354761D01*
X84964238Y-45259523D01*
X84869000Y-45164285D01*
X84773761Y-44973809D01*
X84678523Y-44592857D01*
X84678523Y-44116666D01*
X84773761Y-43735714D01*
X84869000Y-43545238D01*
X84964238Y-43450000D01*
X85154714Y-43354761D01*
X87059476Y-43354761D02*
X87249952Y-43354761D01*
X87440428Y-43450000D01*
X87535666Y-43545238D01*
X87630904Y-43735714D01*
X87726142Y-44116666D01*
X87726142Y-44592857D01*
X87630904Y-44973809D01*
X87535666Y-45164285D01*
X87440428Y-45259523D01*
X87249952Y-45354761D01*
X87059476Y-45354761D01*
X86869000Y-45259523D01*
X86773761Y-45164285D01*
X86678523Y-44973809D01*
X86583285Y-44592857D01*
X86583285Y-44116666D01*
X86678523Y-43735714D01*
X86773761Y-43545238D01*
X86869000Y-43450000D01*
X87059476Y-43354761D01*
X90107095Y-45354761D02*
X90107095Y-43354761D01*
X90869000Y-43354761D01*
X91059476Y-43450000D01*
X91154714Y-43545238D01*
X91249952Y-43735714D01*
X91249952Y-44021428D01*
X91154714Y-44211904D01*
X91059476Y-44307142D01*
X90869000Y-44402380D01*
X90107095Y-44402380D01*
X92488047Y-43354761D02*
X92869000Y-43354761D01*
X93059476Y-43450000D01*
X93249952Y-43640476D01*
X93345190Y-44021428D01*
X93345190Y-44688095D01*
X93249952Y-45069047D01*
X93059476Y-45259523D01*
X92869000Y-45354761D01*
X92488047Y-45354761D01*
X92297571Y-45259523D01*
X92107095Y-45069047D01*
X92011857Y-44688095D01*
X92011857Y-44021428D01*
X92107095Y-43640476D01*
X92297571Y-43450000D01*
X92488047Y-43354761D01*
X94011857Y-43354761D02*
X94488047Y-45354761D01*
X94869000Y-43926190D01*
X95249952Y-45354761D01*
X95726142Y-43354761D01*
X96488047Y-44307142D02*
X97154714Y-44307142D01*
X97440428Y-45354761D02*
X96488047Y-45354761D01*
X96488047Y-43354761D01*
X97440428Y-43354761D01*
X99440428Y-45354761D02*
X98773761Y-44402380D01*
X98297571Y-45354761D02*
X98297571Y-43354761D01*
X99059476Y-43354761D01*
X99249952Y-43450000D01*
X99345190Y-43545238D01*
X99440428Y-43735714D01*
X99440428Y-44021428D01*
X99345190Y-44211904D01*
X99249952Y-44307142D01*
X99059476Y-44402380D01*
X98297571Y-44402380D01*
X101726142Y-45259523D02*
X102011857Y-45354761D01*
X102488047Y-45354761D01*
X102678523Y-45259523D01*
X102773761Y-45164285D01*
X102869000Y-44973809D01*
X102869000Y-44783333D01*
X102773761Y-44592857D01*
X102678523Y-44497619D01*
X102488047Y-44402380D01*
X102107095Y-44307142D01*
X101916619Y-44211904D01*
X101821380Y-44116666D01*
X101726142Y-43926190D01*
X101726142Y-43735714D01*
X101821380Y-43545238D01*
X101916619Y-43450000D01*
X102107095Y-43354761D01*
X102583285Y-43354761D01*
X102869000Y-43450000D01*
X103726142Y-43354761D02*
X103726142Y-44973809D01*
X103821380Y-45164285D01*
X103916619Y-45259523D01*
X104107095Y-45354761D01*
X104488047Y-45354761D01*
X104678523Y-45259523D01*
X104773761Y-45164285D01*
X104869000Y-44973809D01*
X104869000Y-43354761D01*
X105821380Y-45354761D02*
X105821380Y-43354761D01*
X106583285Y-43354761D01*
X106773761Y-43450000D01*
X106869000Y-43545238D01*
X106964238Y-43735714D01*
X106964238Y-44021428D01*
X106869000Y-44211904D01*
X106773761Y-44307142D01*
X106583285Y-44402380D01*
X105821380Y-44402380D01*
X107821380Y-45354761D02*
X107821380Y-43354761D01*
X108583285Y-43354761D01*
X108773761Y-43450000D01*
X108869000Y-43545238D01*
X108964238Y-43735714D01*
X108964238Y-44021428D01*
X108869000Y-44211904D01*
X108773761Y-44307142D01*
X108583285Y-44402380D01*
X107821380Y-44402380D01*
X110773761Y-45354761D02*
X109821380Y-45354761D01*
X109821380Y-43354761D01*
X111821380Y-44402380D02*
X111821380Y-45354761D01*
X111154714Y-43354761D02*
X111821380Y-44402380D01*
X112488047Y-43354761D01*
D10*
X78240000Y-50575595D02*
X78192380Y-50670833D01*
X78192380Y-50813690D01*
X78240000Y-50956547D01*
X78335238Y-51051785D01*
X78430476Y-51099404D01*
X78620952Y-51147023D01*
X78763809Y-51147023D01*
X78954285Y-51099404D01*
X79049523Y-51051785D01*
X79144761Y-50956547D01*
X79192380Y-50813690D01*
X79192380Y-50718452D01*
X79144761Y-50575595D01*
X79097142Y-50527976D01*
X78763809Y-50527976D01*
X78763809Y-50718452D01*
X79192380Y-50099404D02*
X78192380Y-50099404D01*
X79192380Y-49527976D01*
X78192380Y-49527976D01*
X79192380Y-49051785D02*
X78192380Y-49051785D01*
X78192380Y-48813690D01*
X78240000Y-48670833D01*
X78335238Y-48575595D01*
X78430476Y-48527976D01*
X78620952Y-48480357D01*
X78763809Y-48480357D01*
X78954285Y-48527976D01*
X79049523Y-48575595D01*
X79144761Y-48670833D01*
X79192380Y-48813690D01*
X79192380Y-49051785D01*
X75700000Y-50575595D02*
X75652380Y-50670833D01*
X75652380Y-50813690D01*
X75700000Y-50956547D01*
X75795238Y-51051785D01*
X75890476Y-51099404D01*
X76080952Y-51147023D01*
X76223809Y-51147023D01*
X76414285Y-51099404D01*
X76509523Y-51051785D01*
X76604761Y-50956547D01*
X76652380Y-50813690D01*
X76652380Y-50718452D01*
X76604761Y-50575595D01*
X76557142Y-50527976D01*
X76223809Y-50527976D01*
X76223809Y-50718452D01*
X76652380Y-50099404D02*
X75652380Y-50099404D01*
X76652380Y-49527976D01*
X75652380Y-49527976D01*
X76652380Y-49051785D02*
X75652380Y-49051785D01*
X75652380Y-48813690D01*
X75700000Y-48670833D01*
X75795238Y-48575595D01*
X75890476Y-48527976D01*
X76080952Y-48480357D01*
X76223809Y-48480357D01*
X76414285Y-48527976D01*
X76509523Y-48575595D01*
X76604761Y-48670833D01*
X76652380Y-48813690D01*
X76652380Y-49051785D01*
X83891428Y-51099404D02*
X83891428Y-50337500D01*
X84272380Y-49337500D02*
X84272380Y-49908928D01*
X84272380Y-49623214D02*
X83272380Y-49623214D01*
X83415238Y-49718452D01*
X83510476Y-49813690D01*
X83558095Y-49908928D01*
X83367619Y-48956547D02*
X83320000Y-48908928D01*
X83272380Y-48813690D01*
X83272380Y-48575595D01*
X83320000Y-48480357D01*
X83367619Y-48432738D01*
X83462857Y-48385119D01*
X83558095Y-48385119D01*
X83700952Y-48432738D01*
X84272380Y-49004166D01*
X84272380Y-48385119D01*
X83272380Y-48099404D02*
X84272380Y-47766071D01*
X83272380Y-47432738D01*
X81351428Y-51099404D02*
X81351428Y-50337500D01*
X81732380Y-50718452D02*
X80970476Y-50718452D01*
X81732380Y-49337500D02*
X81732380Y-49908928D01*
X81732380Y-49623214D02*
X80732380Y-49623214D01*
X80875238Y-49718452D01*
X80970476Y-49813690D01*
X81018095Y-49908928D01*
X80827619Y-48956547D02*
X80780000Y-48908928D01*
X80732380Y-48813690D01*
X80732380Y-48575595D01*
X80780000Y-48480357D01*
X80827619Y-48432738D01*
X80922857Y-48385119D01*
X81018095Y-48385119D01*
X81160952Y-48432738D01*
X81732380Y-49004166D01*
X81732380Y-48385119D01*
X80732380Y-48099404D02*
X81732380Y-47766071D01*
X80732380Y-47432738D01*
X73731428Y-51099404D02*
X73731428Y-50337500D01*
X74112380Y-50718452D02*
X73350476Y-50718452D01*
X73112380Y-49385119D02*
X73112380Y-49861309D01*
X73588571Y-49908928D01*
X73540952Y-49861309D01*
X73493333Y-49766071D01*
X73493333Y-49527976D01*
X73540952Y-49432738D01*
X73588571Y-49385119D01*
X73683809Y-49337500D01*
X73921904Y-49337500D01*
X74017142Y-49385119D01*
X74064761Y-49432738D01*
X74112380Y-49527976D01*
X74112380Y-49766071D01*
X74064761Y-49861309D01*
X74017142Y-49908928D01*
X73112380Y-49051785D02*
X74112380Y-48718452D01*
X73112380Y-48385119D01*
X71191428Y-51099404D02*
X71191428Y-50337500D01*
X71572380Y-50718452D02*
X70810476Y-50718452D01*
X70572380Y-49385119D02*
X70572380Y-49861309D01*
X71048571Y-49908928D01*
X71000952Y-49861309D01*
X70953333Y-49766071D01*
X70953333Y-49527976D01*
X71000952Y-49432738D01*
X71048571Y-49385119D01*
X71143809Y-49337500D01*
X71381904Y-49337500D01*
X71477142Y-49385119D01*
X71524761Y-49432738D01*
X71572380Y-49527976D01*
X71572380Y-49766071D01*
X71524761Y-49861309D01*
X71477142Y-49908928D01*
X70572380Y-49051785D02*
X71572380Y-48718452D01*
X70572380Y-48385119D01*
D13*
X117220000Y-60005000D02*
X117220000Y-65405000D01*
X113920000Y-60005000D02*
X113920000Y-65405000D01*
X117220000Y-60005000D02*
X113920000Y-60005000D01*
X117855000Y-51464000D02*
X117855000Y-56864000D01*
X114555000Y-51464000D02*
X114555000Y-56864000D01*
X117855000Y-51464000D02*
X114555000Y-51464000D01*
X139955000Y-56645000D02*
X139955000Y-51245000D01*
X143255000Y-56645000D02*
X143255000Y-51245000D01*
X139955000Y-56645000D02*
X143255000Y-56645000D01*
X139955000Y-64455000D02*
X139955000Y-59055000D01*
X143255000Y-64455000D02*
X143255000Y-59055000D01*
X139955000Y-64455000D02*
X143255000Y-64455000D01*
X104040000Y-51808748D02*
X104040000Y-52331252D01*
X105510000Y-51808748D02*
X105510000Y-52331252D01*
X130167748Y-53313000D02*
X130690252Y-53313000D01*
X130167748Y-51843000D02*
X130690252Y-51843000D01*
X68270000Y-60115000D02*
X68270000Y-61365000D01*
X69520000Y-60115000D02*
X68270000Y-60115000D01*
X75420000Y-65615000D02*
X72370000Y-65615000D01*
X75420000Y-62665000D02*
X75420000Y-65615000D01*
X76170000Y-62665000D02*
X75420000Y-62665000D01*
X69320000Y-65615000D02*
X72370000Y-65615000D01*
X69320000Y-62665000D02*
X69320000Y-65615000D01*
X68570000Y-62665000D02*
X69320000Y-62665000D01*
X76170000Y-60415000D02*
X74370000Y-60415000D01*
X76170000Y-61165000D02*
X76170000Y-60415000D01*
X74370000Y-61165000D02*
X76170000Y-61165000D01*
X74370000Y-60415000D02*
X74370000Y-61165000D01*
X70370000Y-60415000D02*
X68570000Y-60415000D01*
X70370000Y-61165000D02*
X70370000Y-60415000D01*
X68570000Y-61165000D02*
X70370000Y-61165000D01*
X68570000Y-60415000D02*
X68570000Y-61165000D01*
X72870000Y-60415000D02*
X71870000Y-60415000D01*
X72870000Y-61165000D02*
X72870000Y-60415000D01*
X71870000Y-61165000D02*
X72870000Y-61165000D01*
X71870000Y-60415000D02*
X71870000Y-61165000D01*
X76180000Y-60405000D02*
X68560000Y-60405000D01*
X76180000Y-66375000D02*
X76180000Y-60405000D01*
X68560000Y-66375000D02*
X76180000Y-66375000D01*
X68560000Y-60405000D02*
X68560000Y-66375000D01*
X89037936Y-57885000D02*
X89492064Y-57885000D01*
X89037936Y-56415000D02*
X89492064Y-56415000D01*
X89037936Y-52170000D02*
X89492064Y-52170000D01*
X89037936Y-50700000D02*
X89492064Y-50700000D01*
X70309064Y-67337000D02*
X69854936Y-67337000D01*
X70309064Y-68807000D02*
X69854936Y-68807000D01*
X89563752Y-58447000D02*
X89041248Y-58447000D01*
X89563752Y-59917000D02*
X89041248Y-59917000D01*
X89041248Y-54329000D02*
X89563752Y-54329000D01*
X89041248Y-52859000D02*
X89563752Y-52859000D01*
X70386752Y-69496000D02*
X69864248Y-69496000D01*
X70386752Y-70966000D02*
X69864248Y-70966000D01*
D14*
G36*
X132458309Y-128780310D02*
G01*
X132530532Y-128826079D01*
X132585180Y-128893578D01*
X132618330Y-128976075D01*
X132626059Y-129066834D01*
X132604443Y-129159122D01*
X132549559Y-129246205D01*
X132548566Y-129247322D01*
X132477785Y-129298264D01*
X132388501Y-129323711D01*
X132296640Y-129321365D01*
X132225474Y-129293948D01*
X132153298Y-129225188D01*
X132111993Y-129138351D01*
X132100608Y-129042944D01*
X132118189Y-128948473D01*
X132163787Y-128864443D01*
X132236450Y-128800361D01*
X132276831Y-128780903D01*
X132372434Y-128763007D01*
X132458309Y-128780310D01*
G37*
X132458309Y-128780310D02*
X132530532Y-128826079D01*
X132585180Y-128893578D01*
X132618330Y-128976075D01*
X132626059Y-129066834D01*
X132604443Y-129159122D01*
X132549559Y-129246205D01*
X132548566Y-129247322D01*
X132477785Y-129298264D01*
X132388501Y-129323711D01*
X132296640Y-129321365D01*
X132225474Y-129293948D01*
X132153298Y-129225188D01*
X132111993Y-129138351D01*
X132100608Y-129042944D01*
X132118189Y-128948473D01*
X132163787Y-128864443D01*
X132236450Y-128800361D01*
X132276831Y-128780903D01*
X132372434Y-128763007D01*
X132458309Y-128780310D01*
G36*
X135393315Y-128175690D02*
G01*
X135463010Y-128228812D01*
X135490972Y-128269669D01*
X135505544Y-128301193D01*
X135516511Y-128337179D01*
X135523808Y-128382052D01*
X135527367Y-128440238D01*
X135527121Y-128516162D01*
X135523003Y-128614251D01*
X135514947Y-128738930D01*
X135502884Y-128894625D01*
X135486749Y-129085762D01*
X135476919Y-129198448D01*
X135459805Y-129395920D01*
X135446007Y-129555323D01*
X135434431Y-129680690D01*
X135423984Y-129776056D01*
X135413572Y-129845455D01*
X135402100Y-129892921D01*
X135388474Y-129922487D01*
X135371600Y-129938187D01*
X135350384Y-129944056D01*
X135323733Y-129944127D01*
X135290551Y-129942434D01*
X135275207Y-129942166D01*
X135208450Y-129939744D01*
X135162646Y-129933452D01*
X135148881Y-129926291D01*
X135146886Y-129902064D01*
X135141367Y-129840868D01*
X135132803Y-129747881D01*
X135121675Y-129628277D01*
X135108465Y-129487232D01*
X135093652Y-129329921D01*
X135085499Y-129243666D01*
X135065222Y-129027378D01*
X135049135Y-128848985D01*
X135037171Y-128704260D01*
X135029264Y-128588981D01*
X135025347Y-128498921D01*
X135025353Y-128429857D01*
X135029217Y-128377563D01*
X135036870Y-128337815D01*
X135048248Y-128306388D01*
X135063283Y-128279057D01*
X135070128Y-128268590D01*
X135137899Y-128199507D01*
X135220917Y-128161012D01*
X135309336Y-128153082D01*
X135393315Y-128175690D01*
G37*
X135393315Y-128175690D02*
X135463010Y-128228812D01*
X135490972Y-128269669D01*
X135505544Y-128301193D01*
X135516511Y-128337179D01*
X135523808Y-128382052D01*
X135527367Y-128440238D01*
X135527121Y-128516162D01*
X135523003Y-128614251D01*
X135514947Y-128738930D01*
X135502884Y-128894625D01*
X135486749Y-129085762D01*
X135476919Y-129198448D01*
X135459805Y-129395920D01*
X135446007Y-129555323D01*
X135434431Y-129680690D01*
X135423984Y-129776056D01*
X135413572Y-129845455D01*
X135402100Y-129892921D01*
X135388474Y-129922487D01*
X135371600Y-129938187D01*
X135350384Y-129944056D01*
X135323733Y-129944127D01*
X135290551Y-129942434D01*
X135275207Y-129942166D01*
X135208450Y-129939744D01*
X135162646Y-129933452D01*
X135148881Y-129926291D01*
X135146886Y-129902064D01*
X135141367Y-129840868D01*
X135132803Y-129747881D01*
X135121675Y-129628277D01*
X135108465Y-129487232D01*
X135093652Y-129329921D01*
X135085499Y-129243666D01*
X135065222Y-129027378D01*
X135049135Y-128848985D01*
X135037171Y-128704260D01*
X135029264Y-128588981D01*
X135025347Y-128498921D01*
X135025353Y-128429857D01*
X135029217Y-128377563D01*
X135036870Y-128337815D01*
X135048248Y-128306388D01*
X135063283Y-128279057D01*
X135070128Y-128268590D01*
X135137899Y-128199507D01*
X135220917Y-128161012D01*
X135309336Y-128153082D01*
X135393315Y-128175690D01*
G36*
X135327038Y-130184786D02*
G01*
X135405496Y-130217293D01*
X135470426Y-130277102D01*
X135515297Y-130360934D01*
X135533580Y-130465509D01*
X135531935Y-130512978D01*
X135504398Y-130605238D01*
X135446392Y-130677730D01*
X135367004Y-130725755D01*
X135275326Y-130744617D01*
X135180445Y-130729620D01*
X135144141Y-130713365D01*
X135080313Y-130656519D01*
X135038336Y-130574573D01*
X135020163Y-130479789D01*
X135027745Y-130384432D01*
X135063033Y-130300767D01*
X135075776Y-130283870D01*
X135155648Y-130214795D01*
X135241579Y-130182860D01*
X135327038Y-130184786D01*
G37*
X135327038Y-130184786D02*
X135405496Y-130217293D01*
X135470426Y-130277102D01*
X135515297Y-130360934D01*
X135533580Y-130465509D01*
X135531935Y-130512978D01*
X135504398Y-130605238D01*
X135446392Y-130677730D01*
X135367004Y-130725755D01*
X135275326Y-130744617D01*
X135180445Y-130729620D01*
X135144141Y-130713365D01*
X135080313Y-130656519D01*
X135038336Y-130574573D01*
X135020163Y-130479789D01*
X135027745Y-130384432D01*
X135063033Y-130300767D01*
X135075776Y-130283870D01*
X135155648Y-130214795D01*
X135241579Y-130182860D01*
X135327038Y-130184786D01*
G36*
X132444320Y-130196746D02*
G01*
X132517453Y-130239342D01*
X132574402Y-130303678D01*
X132611593Y-130383008D01*
X132625451Y-130470586D01*
X132612403Y-130559666D01*
X132568873Y-130643499D01*
X132522493Y-130692023D01*
X132443314Y-130733653D01*
X132349161Y-130746756D01*
X132257706Y-130729758D01*
X132232183Y-130717864D01*
X132160404Y-130656271D01*
X132117076Y-130573716D01*
X132101594Y-130480025D01*
X132113354Y-130385026D01*
X132151753Y-130298545D01*
X132216184Y-130230407D01*
X132263801Y-130203762D01*
X132358578Y-130182638D01*
X132444320Y-130196746D01*
G37*
X132444320Y-130196746D02*
X132517453Y-130239342D01*
X132574402Y-130303678D01*
X132611593Y-130383008D01*
X132625451Y-130470586D01*
X132612403Y-130559666D01*
X132568873Y-130643499D01*
X132522493Y-130692023D01*
X132443314Y-130733653D01*
X132349161Y-130746756D01*
X132257706Y-130729758D01*
X132232183Y-130717864D01*
X132160404Y-130656271D01*
X132117076Y-130573716D01*
X132101594Y-130480025D01*
X132113354Y-130385026D01*
X132151753Y-130298545D01*
X132216184Y-130230407D01*
X132263801Y-130203762D01*
X132358578Y-130182638D01*
X132444320Y-130196746D01*
G36*
X133982160Y-128870435D02*
G01*
X134104471Y-128892334D01*
X134216462Y-128916552D01*
X134303165Y-128925110D01*
X134359329Y-128917764D01*
X134376583Y-128904999D01*
X134403432Y-128893269D01*
X134458615Y-128885582D01*
X134505801Y-128883833D01*
X134621937Y-128883833D01*
X134615677Y-130100487D01*
X134609416Y-131317142D01*
X134831666Y-131291004D01*
X134831666Y-131593166D01*
X133879166Y-131593166D01*
X133879166Y-131466166D01*
X133880364Y-131395722D01*
X133886590Y-131357684D01*
X133901792Y-131342137D01*
X133929738Y-131339166D01*
X133983328Y-131325981D01*
X134030280Y-131298750D01*
X134048875Y-131281940D01*
X134062347Y-131261744D01*
X134071697Y-131231374D01*
X134077923Y-131184040D01*
X134082026Y-131112951D01*
X134085006Y-131011318D01*
X134087062Y-130913093D01*
X134089378Y-130785490D01*
X134090125Y-130694798D01*
X134088749Y-130635606D01*
X134084699Y-130602504D01*
X134077424Y-130590081D01*
X134066372Y-130592928D01*
X134055312Y-130601793D01*
X133954994Y-130666754D01*
X133828502Y-130714139D01*
X133689331Y-130741154D01*
X133550976Y-130745004D01*
X133444924Y-130728200D01*
X133299918Y-130667609D01*
X133172222Y-130571093D01*
X133065978Y-130442960D01*
X132985325Y-130287520D01*
X132964054Y-130227916D01*
X132934071Y-130096233D01*
X132918272Y-129943416D01*
X132916619Y-129783678D01*
X132918343Y-129762566D01*
X133466671Y-129762566D01*
X133466679Y-129772833D01*
X133467540Y-129892849D01*
X133470692Y-129980322D01*
X133477372Y-130045026D01*
X133488820Y-130096738D01*
X133506273Y-130145234D01*
X133516977Y-130169862D01*
X133559856Y-130246504D01*
X133613361Y-130317796D01*
X133641823Y-130346826D01*
X133691189Y-130385797D01*
X133734734Y-130403501D01*
X133791785Y-130405794D01*
X133828123Y-130403265D01*
X133932343Y-130382249D01*
X134015223Y-130336349D01*
X134090833Y-130278678D01*
X134090754Y-129798214D01*
X134090477Y-129641909D01*
X134089402Y-129522019D01*
X134087072Y-129432628D01*
X134083032Y-129367819D01*
X134076826Y-129321675D01*
X134067999Y-129288279D01*
X134056094Y-129261715D01*
X134048411Y-129248430D01*
X133990607Y-129182960D01*
X133911643Y-129147356D01*
X133817418Y-129137833D01*
X133717284Y-129157654D01*
X133629317Y-129217398D01*
X133552973Y-129317486D01*
X133529916Y-129360083D01*
X133504235Y-129413424D01*
X133486620Y-129459140D01*
X133475564Y-129507071D01*
X133469559Y-129567058D01*
X133467097Y-129648943D01*
X133466671Y-129762566D01*
X132918343Y-129762566D01*
X132929071Y-129631234D01*
X132955590Y-129500295D01*
X132966183Y-129467608D01*
X133051210Y-129281323D01*
X133159754Y-129129306D01*
X133293598Y-129009497D01*
X133430959Y-128930343D01*
X133543817Y-128893216D01*
X133682709Y-128870325D01*
X133833527Y-128862466D01*
X133982160Y-128870435D01*
G37*
X133982160Y-128870435D02*
X134104471Y-128892334D01*
X134216462Y-128916552D01*
X134303165Y-128925110D01*
X134359329Y-128917764D01*
X134376583Y-128904999D01*
X134403432Y-128893269D01*
X134458615Y-128885582D01*
X134505801Y-128883833D01*
X134621937Y-128883833D01*
X134615677Y-130100487D01*
X134609416Y-131317142D01*
X134831666Y-131291004D01*
X134831666Y-131593166D01*
X133879166Y-131593166D01*
X133879166Y-131466166D01*
X133880364Y-131395722D01*
X133886590Y-131357684D01*
X133901792Y-131342137D01*
X133929738Y-131339166D01*
X133983328Y-131325981D01*
X134030280Y-131298750D01*
X134048875Y-131281940D01*
X134062347Y-131261744D01*
X134071697Y-131231374D01*
X134077923Y-131184040D01*
X134082026Y-131112951D01*
X134085006Y-131011318D01*
X134087062Y-130913093D01*
X134089378Y-130785490D01*
X134090125Y-130694798D01*
X134088749Y-130635606D01*
X134084699Y-130602504D01*
X134077424Y-130590081D01*
X134066372Y-130592928D01*
X134055312Y-130601793D01*
X133954994Y-130666754D01*
X133828502Y-130714139D01*
X133689331Y-130741154D01*
X133550976Y-130745004D01*
X133444924Y-130728200D01*
X133299918Y-130667609D01*
X133172222Y-130571093D01*
X133065978Y-130442960D01*
X132985325Y-130287520D01*
X132964054Y-130227916D01*
X132934071Y-130096233D01*
X132918272Y-129943416D01*
X132916619Y-129783678D01*
X132918343Y-129762566D01*
X133466671Y-129762566D01*
X133466679Y-129772833D01*
X133467540Y-129892849D01*
X133470692Y-129980322D01*
X133477372Y-130045026D01*
X133488820Y-130096738D01*
X133506273Y-130145234D01*
X133516977Y-130169862D01*
X133559856Y-130246504D01*
X133613361Y-130317796D01*
X133641823Y-130346826D01*
X133691189Y-130385797D01*
X133734734Y-130403501D01*
X133791785Y-130405794D01*
X133828123Y-130403265D01*
X133932343Y-130382249D01*
X134015223Y-130336349D01*
X134090833Y-130278678D01*
X134090754Y-129798214D01*
X134090477Y-129641909D01*
X134089402Y-129522019D01*
X134087072Y-129432628D01*
X134083032Y-129367819D01*
X134076826Y-129321675D01*
X134067999Y-129288279D01*
X134056094Y-129261715D01*
X134048411Y-129248430D01*
X133990607Y-129182960D01*
X133911643Y-129147356D01*
X133817418Y-129137833D01*
X133717284Y-129157654D01*
X133629317Y-129217398D01*
X133552973Y-129317486D01*
X133529916Y-129360083D01*
X133504235Y-129413424D01*
X133486620Y-129459140D01*
X133475564Y-129507071D01*
X133469559Y-129567058D01*
X133467097Y-129648943D01*
X133466671Y-129762566D01*
X132918343Y-129762566D01*
X132929071Y-129631234D01*
X132955590Y-129500295D01*
X132966183Y-129467608D01*
X133051210Y-129281323D01*
X133159754Y-129129306D01*
X133293598Y-129009497D01*
X133430959Y-128930343D01*
X133543817Y-128893216D01*
X133682709Y-128870325D01*
X133833527Y-128862466D01*
X133982160Y-128870435D01*
D13*
X111855000Y-58366000D02*
X110345000Y-58366000D01*
X111855000Y-54665000D02*
X110345000Y-54665000D01*
X110345000Y-51395000D02*
X110345000Y-61635000D01*
X111855000Y-61635000D02*
X107214000Y-61635000D01*
X111855000Y-51395000D02*
X107214000Y-51395000D01*
X107214000Y-51395000D02*
X107214000Y-61635000D01*
X111855000Y-51395000D02*
X111855000Y-61635000D01*
X137255000Y-59001000D02*
X135745000Y-59001000D01*
X137255000Y-55300000D02*
X135745000Y-55300000D01*
X135745000Y-52030000D02*
X135745000Y-62270000D01*
X137255000Y-62270000D02*
X132614000Y-62270000D01*
X137255000Y-52030000D02*
X132614000Y-52030000D01*
X132614000Y-52030000D02*
X132614000Y-62270000D01*
X137255000Y-52030000D02*
X137255000Y-62270000D01*
X60379000Y-78200000D02*
X60379000Y-76690000D01*
X64080000Y-78200000D02*
X64080000Y-76690000D01*
X67350000Y-76690000D02*
X57110000Y-76690000D01*
X57110000Y-78200000D02*
X57110000Y-73559000D01*
X67350000Y-78200000D02*
X67350000Y-73559000D01*
X67350000Y-73559000D02*
X57110000Y-73559000D01*
X67350000Y-78200000D02*
X57110000Y-78200000D01*
X143705000Y-127270000D02*
X98465000Y-127270000D01*
X143705000Y-127270000D02*
X143705000Y-89030000D01*
X98465000Y-89030000D02*
X98465000Y-127270000D01*
X98465000Y-89030000D02*
X143705000Y-89030000D01*
X104085000Y-123650000D02*
X104085000Y-92650000D01*
X138085000Y-123650000D02*
X104085000Y-123650000D01*
X138085000Y-92650000D02*
X138085000Y-123650000D01*
X104085000Y-92650000D02*
X138085000Y-92650000D01*
X96715000Y-127270000D02*
X51475000Y-127270000D01*
X96715000Y-127270000D02*
X96715000Y-89030000D01*
X51475000Y-89030000D02*
X51475000Y-127270000D01*
X51475000Y-89030000D02*
X96715000Y-89030000D01*
X57095000Y-123650000D02*
X57095000Y-92650000D01*
X91095000Y-123650000D02*
X57095000Y-123650000D01*
X91095000Y-92650000D02*
X91095000Y-123650000D01*
X57095000Y-92650000D02*
X91095000Y-92650000D01*
X122290000Y-136720000D02*
X122290000Y-131420000D01*
X121540000Y-136720000D02*
X122290000Y-136720000D01*
X113900000Y-136720000D02*
X117220000Y-136720000D01*
X108870000Y-136720000D02*
X109620000Y-136720000D01*
X108870000Y-131420000D02*
X108870000Y-136720000D01*
X122290000Y-131420000D02*
X108870000Y-131420000D01*
X107590000Y-129550000D02*
X108590000Y-129550000D01*
X107590000Y-129550000D02*
X107590000Y-130550000D01*
X107890000Y-138490000D02*
X107890000Y-129850000D01*
X123250000Y-138490000D02*
X107890000Y-138490000D01*
X123250000Y-129850000D02*
X123250000Y-138490000D01*
X107900000Y-129850000D02*
X123250000Y-129850000D01*
X121539492Y-136720523D02*
G75*
G02*
X117220000Y-136720000I-2159492J2100523D01*
G01*
X113900695Y-136719291D02*
G75*
G02*
X109620000Y-136720000I-2140695J2099291D01*
G01*
X97138137Y-50664925D02*
G75*
G02*
X98680000Y-51021000I56863J-3270075D01*
G01*
X100108387Y-52449798D02*
G75*
G02*
X100109000Y-55419000I-2913387J-1485202D01*
G01*
X98678968Y-56848829D02*
G75*
G02*
X94103000Y-54999000I-1483968J2913829D01*
G01*
X94103154Y-52870392D02*
G75*
G02*
X97195000Y-50665000I3091846J-1064608D01*
G01*
X122538137Y-51934925D02*
G75*
G02*
X124080000Y-52291000I56863J-3270075D01*
G01*
X125508387Y-53719798D02*
G75*
G02*
X125509000Y-56689000I-2913387J-1485202D01*
G01*
X124078968Y-58118829D02*
G75*
G02*
X119503000Y-56269000I-1483968J2913829D01*
G01*
X119503154Y-54140392D02*
G75*
G02*
X122595000Y-51935000I3091846J-1064608D01*
G01*
X101500000Y-56017936D02*
X101500000Y-56472064D01*
X102970000Y-56017936D02*
X102970000Y-56472064D01*
X101500000Y-51842936D02*
X101500000Y-52297064D01*
X102970000Y-51842936D02*
X102970000Y-52297064D01*
X65305000Y-51985936D02*
X65305000Y-52440064D01*
X66775000Y-51985936D02*
X66775000Y-52440064D01*
X61876000Y-51985936D02*
X61876000Y-52440064D01*
X63346000Y-51985936D02*
X63346000Y-52440064D01*
X58447000Y-51969936D02*
X58447000Y-52424064D01*
X59917000Y-51969936D02*
X59917000Y-52424064D01*
X128116000Y-53694064D02*
X128116000Y-53239936D01*
X126646000Y-53694064D02*
X126646000Y-53239936D01*
X130910000Y-55837064D02*
X130910000Y-55382936D01*
X129440000Y-55837064D02*
X129440000Y-55382936D01*
X68270000Y-52495000D02*
X68270000Y-53745000D01*
X69520000Y-52495000D02*
X68270000Y-52495000D01*
X85420000Y-57995000D02*
X77370000Y-57995000D01*
X85420000Y-55045000D02*
X85420000Y-57995000D01*
X86170000Y-55045000D02*
X85420000Y-55045000D01*
X69320000Y-57995000D02*
X77370000Y-57995000D01*
X69320000Y-55045000D02*
X69320000Y-57995000D01*
X68570000Y-55045000D02*
X69320000Y-55045000D01*
X86170000Y-52795000D02*
X84370000Y-52795000D01*
X86170000Y-53545000D02*
X86170000Y-52795000D01*
X84370000Y-53545000D02*
X86170000Y-53545000D01*
X84370000Y-52795000D02*
X84370000Y-53545000D01*
X70370000Y-52795000D02*
X68570000Y-52795000D01*
X70370000Y-53545000D02*
X70370000Y-52795000D01*
X68570000Y-53545000D02*
X70370000Y-53545000D01*
X68570000Y-52795000D02*
X68570000Y-53545000D01*
X82870000Y-52795000D02*
X71870000Y-52795000D01*
X82870000Y-53545000D02*
X82870000Y-52795000D01*
X71870000Y-53545000D02*
X82870000Y-53545000D01*
X71870000Y-52795000D02*
X71870000Y-53545000D01*
X86180000Y-52785000D02*
X68560000Y-52785000D01*
X86180000Y-58755000D02*
X86180000Y-52785000D01*
X68560000Y-58755000D02*
X86180000Y-58755000D01*
X68560000Y-52785000D02*
X68560000Y-58755000D01*
X76570000Y-136720000D02*
X76570000Y-131420000D01*
X75820000Y-136720000D02*
X76570000Y-136720000D01*
X68180000Y-136720000D02*
X71500000Y-136720000D01*
X63150000Y-136720000D02*
X63900000Y-136720000D01*
X63150000Y-131420000D02*
X63150000Y-136720000D01*
X76570000Y-131420000D02*
X63150000Y-131420000D01*
X61870000Y-129550000D02*
X62870000Y-129550000D01*
X61870000Y-129550000D02*
X61870000Y-130550000D01*
X62170000Y-138490000D02*
X62170000Y-129850000D01*
X77530000Y-138490000D02*
X62170000Y-138490000D01*
X77530000Y-129850000D02*
X77530000Y-138490000D01*
X62180000Y-129850000D02*
X77530000Y-129850000D01*
X75819492Y-136720523D02*
G75*
G02*
X71500000Y-136720000I-2159492J2100523D01*
G01*
X68180695Y-136719291D02*
G75*
G02*
X63900000Y-136720000I-2140695J2099291D01*
G01*
X113845000Y-57965000D02*
X110945000Y-57965000D01*
X113845000Y-55065000D02*
X113845000Y-57965000D01*
X110945000Y-55065000D02*
X113845000Y-55065000D01*
X110945000Y-57965000D02*
X110945000Y-55065000D01*
X139245000Y-58600000D02*
X136345000Y-58600000D01*
X139245000Y-55700000D02*
X139245000Y-58600000D01*
X136345000Y-55700000D02*
X139245000Y-55700000D01*
X136345000Y-58600000D02*
X136345000Y-55700000D01*
X63680000Y-80190000D02*
X60780000Y-80190000D01*
X63680000Y-77290000D02*
X63680000Y-80190000D01*
X60780000Y-77290000D02*
X63680000Y-77290000D01*
X60780000Y-80190000D02*
X60780000Y-77290000D01*
X81280000Y-139420000D02*
X81280000Y-136620000D01*
X81280000Y-139420000D02*
X103880000Y-139420000D01*
X81280000Y-129820000D02*
X103880000Y-129820000D01*
X81280000Y-132620000D02*
X81280000Y-129820000D01*
X103880000Y-132620000D02*
X103880000Y-129820000D01*
X103880000Y-139420000D02*
X103880000Y-136620000D01*
X125206667Y-81614644D02*
G75*
G03*
X121498528Y-77750051I-4556667J-660890D01*
G01*
X121391983Y-86833435D02*
G75*
G03*
X125175483Y-83194773I-741983J4557901D01*
G01*
X116145540Y-83256527D02*
G75*
G03*
X119978249Y-86836373I4504460J980993D01*
G01*
X119770838Y-77739062D02*
G75*
G03*
X116089161Y-81533072I879162J-4536472D01*
G01*
X119397905Y-77228034D02*
G75*
G02*
X121710660Y-77184365I1252095J-5047500D01*
G01*
X65080000Y-54274000D02*
X65080000Y-57134000D01*
X67000000Y-54274000D02*
X65080000Y-54274000D01*
X67000000Y-57134000D02*
X67000000Y-54274000D01*
X63571000Y-57994000D02*
X63571000Y-55134000D01*
X61651000Y-57994000D02*
X63571000Y-57994000D01*
X61651000Y-55134000D02*
X61651000Y-57994000D01*
X60142000Y-58003000D02*
X60142000Y-55143000D01*
X58222000Y-58003000D02*
X60142000Y-58003000D01*
X58222000Y-55143000D02*
X58222000Y-58003000D01*
X77581667Y-81614644D02*
G75*
G03*
X73873528Y-77750051I-4556667J-660890D01*
G01*
X73766983Y-86833435D02*
G75*
G03*
X77550483Y-83194773I-741983J4557901D01*
G01*
X68520540Y-83256527D02*
G75*
G03*
X72353249Y-86836373I4504460J980993D01*
G01*
X72145838Y-77739062D02*
G75*
G03*
X68464161Y-81533072I879162J-4536472D01*
G01*
X71772905Y-77228034D02*
G75*
G02*
X74085660Y-77184365I1252095J-5047500D01*
G01*
X105510000Y-60353752D02*
X105510000Y-59831248D01*
X104040000Y-60353752D02*
X104040000Y-59831248D01*
X93272000Y-68519646D02*
X94272000Y-68519646D01*
X93772000Y-69019646D02*
X93772000Y-68019646D01*
X96048000Y-58459000D02*
X97246000Y-58459000D01*
X95785000Y-58499000D02*
X97509000Y-58499000D01*
X95585000Y-58539000D02*
X97709000Y-58539000D01*
X95417000Y-58579000D02*
X97877000Y-58579000D01*
X95269000Y-58619000D02*
X98025000Y-58619000D01*
X95137000Y-58659000D02*
X98157000Y-58659000D01*
X95017000Y-58699000D02*
X98277000Y-58699000D01*
X94905000Y-58739000D02*
X98389000Y-58739000D01*
X94801000Y-58779000D02*
X98493000Y-58779000D01*
X94703000Y-58819000D02*
X98591000Y-58819000D01*
X94610000Y-58859000D02*
X98684000Y-58859000D01*
X94522000Y-58899000D02*
X98772000Y-58899000D01*
X94438000Y-58939000D02*
X98856000Y-58939000D01*
X94358000Y-58979000D02*
X98936000Y-58979000D01*
X94282000Y-59019000D02*
X99012000Y-59019000D01*
X94208000Y-59059000D02*
X99086000Y-59059000D01*
X94137000Y-59099000D02*
X99157000Y-59099000D01*
X94068000Y-59139000D02*
X99226000Y-59139000D01*
X94002000Y-59179000D02*
X99292000Y-59179000D01*
X93938000Y-59219000D02*
X99356000Y-59219000D01*
X93877000Y-59259000D02*
X99417000Y-59259000D01*
X93817000Y-59299000D02*
X99477000Y-59299000D01*
X93758000Y-59339000D02*
X99536000Y-59339000D01*
X93702000Y-59379000D02*
X99592000Y-59379000D01*
X93647000Y-59419000D02*
X99647000Y-59419000D01*
X93593000Y-59459000D02*
X99701000Y-59459000D01*
X93541000Y-59499000D02*
X99753000Y-59499000D01*
X93491000Y-59539000D02*
X99803000Y-59539000D01*
X93441000Y-59579000D02*
X99853000Y-59579000D01*
X93393000Y-59619000D02*
X99901000Y-59619000D01*
X93346000Y-59659000D02*
X99948000Y-59659000D01*
X93300000Y-59699000D02*
X99994000Y-59699000D01*
X93255000Y-59739000D02*
X100039000Y-59739000D01*
X93211000Y-59779000D02*
X100083000Y-59779000D01*
X97888000Y-59819000D02*
X100125000Y-59819000D01*
X93169000Y-59819000D02*
X95406000Y-59819000D01*
X97888000Y-59859000D02*
X100167000Y-59859000D01*
X93127000Y-59859000D02*
X95406000Y-59859000D01*
X97888000Y-59899000D02*
X100208000Y-59899000D01*
X93086000Y-59899000D02*
X95406000Y-59899000D01*
X97888000Y-59939000D02*
X100248000Y-59939000D01*
X93046000Y-59939000D02*
X95406000Y-59939000D01*
X97888000Y-59979000D02*
X100287000Y-59979000D01*
X93007000Y-59979000D02*
X95406000Y-59979000D01*
X97888000Y-60019000D02*
X100326000Y-60019000D01*
X92968000Y-60019000D02*
X95406000Y-60019000D01*
X97888000Y-60059000D02*
X100363000Y-60059000D01*
X92931000Y-60059000D02*
X95406000Y-60059000D01*
X97888000Y-60099000D02*
X100400000Y-60099000D01*
X92894000Y-60099000D02*
X95406000Y-60099000D01*
X97888000Y-60139000D02*
X100436000Y-60139000D01*
X92858000Y-60139000D02*
X95406000Y-60139000D01*
X97888000Y-60179000D02*
X100471000Y-60179000D01*
X92823000Y-60179000D02*
X95406000Y-60179000D01*
X97888000Y-60219000D02*
X100505000Y-60219000D01*
X92789000Y-60219000D02*
X95406000Y-60219000D01*
X97888000Y-60259000D02*
X100539000Y-60259000D01*
X92755000Y-60259000D02*
X95406000Y-60259000D01*
X97888000Y-60299000D02*
X100572000Y-60299000D01*
X92722000Y-60299000D02*
X95406000Y-60299000D01*
X97888000Y-60339000D02*
X100604000Y-60339000D01*
X92690000Y-60339000D02*
X95406000Y-60339000D01*
X97888000Y-60379000D02*
X100636000Y-60379000D01*
X92658000Y-60379000D02*
X95406000Y-60379000D01*
X97888000Y-60419000D02*
X100667000Y-60419000D01*
X92627000Y-60419000D02*
X95406000Y-60419000D01*
X97888000Y-60459000D02*
X100697000Y-60459000D01*
X92597000Y-60459000D02*
X95406000Y-60459000D01*
X97888000Y-60499000D02*
X100727000Y-60499000D01*
X92567000Y-60499000D02*
X95406000Y-60499000D01*
X97888000Y-60539000D02*
X100757000Y-60539000D01*
X92537000Y-60539000D02*
X95406000Y-60539000D01*
X97888000Y-60579000D02*
X100785000Y-60579000D01*
X92509000Y-60579000D02*
X95406000Y-60579000D01*
X97888000Y-60619000D02*
X100813000Y-60619000D01*
X92481000Y-60619000D02*
X95406000Y-60619000D01*
X97888000Y-60659000D02*
X100841000Y-60659000D01*
X92453000Y-60659000D02*
X95406000Y-60659000D01*
X97888000Y-60699000D02*
X100868000Y-60699000D01*
X92426000Y-60699000D02*
X95406000Y-60699000D01*
X97888000Y-60739000D02*
X100894000Y-60739000D01*
X92400000Y-60739000D02*
X95406000Y-60739000D01*
X97888000Y-60779000D02*
X100920000Y-60779000D01*
X92374000Y-60779000D02*
X95406000Y-60779000D01*
X97888000Y-60819000D02*
X100945000Y-60819000D01*
X92349000Y-60819000D02*
X95406000Y-60819000D01*
X97888000Y-60859000D02*
X100970000Y-60859000D01*
X92324000Y-60859000D02*
X95406000Y-60859000D01*
X97888000Y-60899000D02*
X100994000Y-60899000D01*
X92300000Y-60899000D02*
X95406000Y-60899000D01*
X97888000Y-60939000D02*
X101018000Y-60939000D01*
X92276000Y-60939000D02*
X95406000Y-60939000D01*
X97888000Y-60979000D02*
X101042000Y-60979000D01*
X92252000Y-60979000D02*
X95406000Y-60979000D01*
X97888000Y-61019000D02*
X101064000Y-61019000D01*
X92230000Y-61019000D02*
X95406000Y-61019000D01*
X97888000Y-61059000D02*
X101087000Y-61059000D01*
X92207000Y-61059000D02*
X95406000Y-61059000D01*
X97888000Y-61099000D02*
X101109000Y-61099000D01*
X92185000Y-61099000D02*
X95406000Y-61099000D01*
X97888000Y-61139000D02*
X101130000Y-61139000D01*
X92164000Y-61139000D02*
X95406000Y-61139000D01*
X97888000Y-61179000D02*
X101151000Y-61179000D01*
X92143000Y-61179000D02*
X95406000Y-61179000D01*
X97888000Y-61219000D02*
X101172000Y-61219000D01*
X92122000Y-61219000D02*
X95406000Y-61219000D01*
X97888000Y-61259000D02*
X101192000Y-61259000D01*
X92102000Y-61259000D02*
X95406000Y-61259000D01*
X97888000Y-61299000D02*
X101211000Y-61299000D01*
X92083000Y-61299000D02*
X95406000Y-61299000D01*
X97888000Y-61339000D02*
X101231000Y-61339000D01*
X92063000Y-61339000D02*
X95406000Y-61339000D01*
X97888000Y-61379000D02*
X101250000Y-61379000D01*
X92044000Y-61379000D02*
X95406000Y-61379000D01*
X97888000Y-61419000D02*
X101268000Y-61419000D01*
X92026000Y-61419000D02*
X95406000Y-61419000D01*
X97888000Y-61459000D02*
X101286000Y-61459000D01*
X92008000Y-61459000D02*
X95406000Y-61459000D01*
X97888000Y-61499000D02*
X101304000Y-61499000D01*
X91990000Y-61499000D02*
X95406000Y-61499000D01*
X97888000Y-61539000D02*
X101321000Y-61539000D01*
X91973000Y-61539000D02*
X95406000Y-61539000D01*
X97888000Y-61579000D02*
X101337000Y-61579000D01*
X91957000Y-61579000D02*
X95406000Y-61579000D01*
X97888000Y-61619000D02*
X101354000Y-61619000D01*
X91940000Y-61619000D02*
X95406000Y-61619000D01*
X97888000Y-61659000D02*
X101370000Y-61659000D01*
X91924000Y-61659000D02*
X95406000Y-61659000D01*
X97888000Y-61699000D02*
X101385000Y-61699000D01*
X91909000Y-61699000D02*
X95406000Y-61699000D01*
X97888000Y-61739000D02*
X101401000Y-61739000D01*
X91893000Y-61739000D02*
X95406000Y-61739000D01*
X97888000Y-61779000D02*
X101415000Y-61779000D01*
X91879000Y-61779000D02*
X95406000Y-61779000D01*
X97888000Y-61819000D02*
X101430000Y-61819000D01*
X91864000Y-61819000D02*
X95406000Y-61819000D01*
X97888000Y-61859000D02*
X101444000Y-61859000D01*
X91850000Y-61859000D02*
X95406000Y-61859000D01*
X97888000Y-61899000D02*
X101458000Y-61899000D01*
X91836000Y-61899000D02*
X95406000Y-61899000D01*
X97888000Y-61939000D02*
X101471000Y-61939000D01*
X91823000Y-61939000D02*
X95406000Y-61939000D01*
X97888000Y-61979000D02*
X101484000Y-61979000D01*
X91810000Y-61979000D02*
X95406000Y-61979000D01*
X97888000Y-62019000D02*
X101497000Y-62019000D01*
X91797000Y-62019000D02*
X95406000Y-62019000D01*
X97888000Y-62059000D02*
X101509000Y-62059000D01*
X91785000Y-62059000D02*
X95406000Y-62059000D01*
X97888000Y-62099000D02*
X101521000Y-62099000D01*
X91773000Y-62099000D02*
X95406000Y-62099000D01*
X97888000Y-62139000D02*
X101532000Y-62139000D01*
X91762000Y-62139000D02*
X95406000Y-62139000D01*
X97888000Y-62179000D02*
X101544000Y-62179000D01*
X91750000Y-62179000D02*
X95406000Y-62179000D01*
X97888000Y-62219000D02*
X101554000Y-62219000D01*
X91740000Y-62219000D02*
X95406000Y-62219000D01*
X97888000Y-62259000D02*
X101565000Y-62259000D01*
X91729000Y-62259000D02*
X95406000Y-62259000D01*
X91719000Y-62299000D02*
X101575000Y-62299000D01*
X91709000Y-62339000D02*
X101585000Y-62339000D01*
X91700000Y-62379000D02*
X101594000Y-62379000D01*
X91691000Y-62419000D02*
X101603000Y-62419000D01*
X91682000Y-62459000D02*
X101612000Y-62459000D01*
X91673000Y-62499000D02*
X101621000Y-62499000D01*
X91665000Y-62539000D02*
X101629000Y-62539000D01*
X91657000Y-62579000D02*
X101637000Y-62579000D01*
X91650000Y-62619000D02*
X101644000Y-62619000D01*
X91643000Y-62659000D02*
X101651000Y-62659000D01*
X91636000Y-62699000D02*
X101658000Y-62699000D01*
X91629000Y-62739000D02*
X101665000Y-62739000D01*
X91623000Y-62779000D02*
X101671000Y-62779000D01*
X91617000Y-62819000D02*
X101677000Y-62819000D01*
X91612000Y-62860000D02*
X101682000Y-62860000D01*
X91607000Y-62900000D02*
X101687000Y-62900000D01*
X91602000Y-62940000D02*
X101692000Y-62940000D01*
X91597000Y-62980000D02*
X101697000Y-62980000D01*
X91593000Y-63020000D02*
X101701000Y-63020000D01*
X91589000Y-63060000D02*
X101705000Y-63060000D01*
X91585000Y-63100000D02*
X101709000Y-63100000D01*
X91582000Y-63140000D02*
X101712000Y-63140000D01*
X91579000Y-63180000D02*
X101715000Y-63180000D01*
X91577000Y-63220000D02*
X101717000Y-63220000D01*
X91574000Y-63260000D02*
X101720000Y-63260000D01*
X91572000Y-63300000D02*
X101722000Y-63300000D01*
X91570000Y-63340000D02*
X101724000Y-63340000D01*
X91569000Y-63380000D02*
X101725000Y-63380000D01*
X91568000Y-63420000D02*
X101726000Y-63420000D01*
X91567000Y-63460000D02*
X101727000Y-63460000D01*
X91567000Y-63500000D02*
X101727000Y-63500000D01*
X91567000Y-63540000D02*
X101727000Y-63540000D01*
X101767000Y-63540000D02*
G75*
G03*
X101767000Y-63540000I-5120000J0D01*
G01*
X104040000Y-55851248D02*
X104040000Y-56373752D01*
X105510000Y-55851248D02*
X105510000Y-56373752D01*
X97760560Y-69550000D02*
X97760560Y-71350000D01*
X96860560Y-70450000D02*
X98660560Y-70450000D01*
X115740000Y-75525000D02*
X115740000Y-75605000D01*
X115700000Y-74751000D02*
X115700000Y-76379000D01*
X115660000Y-74399000D02*
X115660000Y-76731000D01*
X115620000Y-74130000D02*
X115620000Y-77000000D01*
X115580000Y-73904000D02*
X115580000Y-77226000D01*
X115540000Y-73705000D02*
X115540000Y-77425000D01*
X115500000Y-73526000D02*
X115500000Y-77604000D01*
X115460000Y-73362000D02*
X115460000Y-77768000D01*
X115420000Y-73210000D02*
X115420000Y-77920000D01*
X115380000Y-73067000D02*
X115380000Y-78063000D01*
X115340000Y-72933000D02*
X115340000Y-78197000D01*
X115300000Y-72806000D02*
X115300000Y-78324000D01*
X115260000Y-72685000D02*
X115260000Y-78445000D01*
X115220000Y-72569000D02*
X115220000Y-78561000D01*
X115180000Y-72458000D02*
X115180000Y-78672000D01*
X115140000Y-72351000D02*
X115140000Y-78779000D01*
X115100000Y-72248000D02*
X115100000Y-78882000D01*
X115060000Y-72149000D02*
X115060000Y-78981000D01*
X115020000Y-72053000D02*
X115020000Y-79077000D01*
X114980000Y-71960000D02*
X114980000Y-79170000D01*
X114940000Y-71869000D02*
X114940000Y-79261000D01*
X114900000Y-71781000D02*
X114900000Y-79349000D01*
X114860000Y-71696000D02*
X114860000Y-79434000D01*
X114820000Y-71613000D02*
X114820000Y-79517000D01*
X114781000Y-71532000D02*
X114781000Y-79598000D01*
X114741000Y-71452000D02*
X114741000Y-79678000D01*
X114701000Y-71375000D02*
X114701000Y-79755000D01*
X114661000Y-71300000D02*
X114661000Y-79830000D01*
X114621000Y-71226000D02*
X114621000Y-79904000D01*
X114581000Y-71153000D02*
X114581000Y-79977000D01*
X114541000Y-71083000D02*
X114541000Y-80047000D01*
X114501000Y-71013000D02*
X114501000Y-80117000D01*
X114461000Y-70945000D02*
X114461000Y-80185000D01*
X114421000Y-70879000D02*
X114421000Y-80251000D01*
X114381000Y-70813000D02*
X114381000Y-80317000D01*
X114341000Y-70749000D02*
X114341000Y-80381000D01*
X114301000Y-70686000D02*
X114301000Y-80444000D01*
X114261000Y-70624000D02*
X114261000Y-80506000D01*
X114221000Y-70563000D02*
X114221000Y-80567000D01*
X114181000Y-70503000D02*
X114181000Y-80627000D01*
X114141000Y-70445000D02*
X114141000Y-80685000D01*
X114101000Y-70387000D02*
X114101000Y-80743000D01*
X114061000Y-70330000D02*
X114061000Y-80800000D01*
X114021000Y-70274000D02*
X114021000Y-80856000D01*
X113981000Y-70219000D02*
X113981000Y-80911000D01*
X113941000Y-70165000D02*
X113941000Y-80965000D01*
X113901000Y-70111000D02*
X113901000Y-81019000D01*
X113861000Y-70059000D02*
X113861000Y-81071000D01*
X113821000Y-70007000D02*
X113821000Y-81123000D01*
X113781000Y-69956000D02*
X113781000Y-81174000D01*
X113741000Y-69905000D02*
X113741000Y-81225000D01*
X113701000Y-69856000D02*
X113701000Y-81274000D01*
X113661000Y-69807000D02*
X113661000Y-81323000D01*
X113621000Y-69759000D02*
X113621000Y-81371000D01*
X113581000Y-69711000D02*
X113581000Y-81419000D01*
X113541000Y-69664000D02*
X113541000Y-81466000D01*
X113501000Y-69618000D02*
X113501000Y-81512000D01*
X113461000Y-69572000D02*
X113461000Y-81558000D01*
X113421000Y-69527000D02*
X113421000Y-81603000D01*
X113381000Y-69483000D02*
X113381000Y-81647000D01*
X113341000Y-69439000D02*
X113341000Y-81691000D01*
X113301000Y-69395000D02*
X113301000Y-81735000D01*
X113261000Y-69353000D02*
X113261000Y-81777000D01*
X113221000Y-69311000D02*
X113221000Y-81819000D01*
X113181000Y-69269000D02*
X113181000Y-81861000D01*
X113141000Y-69228000D02*
X113141000Y-81902000D01*
X113101000Y-69187000D02*
X113101000Y-81943000D01*
X113061000Y-69147000D02*
X113061000Y-81983000D01*
X113021000Y-69107000D02*
X113021000Y-82023000D01*
X112981000Y-69068000D02*
X112981000Y-82062000D01*
X112941000Y-69029000D02*
X112941000Y-82101000D01*
X112901000Y-68991000D02*
X112901000Y-82139000D01*
X112861000Y-68953000D02*
X112861000Y-82177000D01*
X112821000Y-68916000D02*
X112821000Y-82214000D01*
X112781000Y-68879000D02*
X112781000Y-82251000D01*
X112741000Y-68843000D02*
X112741000Y-82287000D01*
X112701000Y-68807000D02*
X112701000Y-82323000D01*
X112661000Y-68771000D02*
X112661000Y-82359000D01*
X112621000Y-68736000D02*
X112621000Y-82394000D01*
X112581000Y-68701000D02*
X112581000Y-82429000D01*
X112541000Y-68667000D02*
X112541000Y-82463000D01*
X112501000Y-68633000D02*
X112501000Y-82497000D01*
X112461000Y-68600000D02*
X112461000Y-82530000D01*
X112421000Y-68566000D02*
X112421000Y-82564000D01*
X112381000Y-68534000D02*
X112381000Y-82596000D01*
X112341000Y-68501000D02*
X112341000Y-82629000D01*
X112301000Y-68469000D02*
X112301000Y-82661000D01*
X112261000Y-68438000D02*
X112261000Y-82692000D01*
X112221000Y-68406000D02*
X112221000Y-82724000D01*
X112181000Y-68375000D02*
X112181000Y-82755000D01*
X112141000Y-68345000D02*
X112141000Y-82785000D01*
X112101000Y-68315000D02*
X112101000Y-82815000D01*
X112061000Y-68285000D02*
X112061000Y-82845000D01*
X112021000Y-68255000D02*
X112021000Y-82875000D01*
X111981000Y-68226000D02*
X111981000Y-82904000D01*
X111941000Y-68197000D02*
X111941000Y-82933000D01*
X111901000Y-68168000D02*
X111901000Y-82962000D01*
X111861000Y-68140000D02*
X111861000Y-82990000D01*
X111821000Y-68112000D02*
X111821000Y-83018000D01*
X111781000Y-77005000D02*
X111781000Y-83045000D01*
X111781000Y-68085000D02*
X111781000Y-74125000D01*
X111741000Y-77005000D02*
X111741000Y-83073000D01*
X111741000Y-68057000D02*
X111741000Y-74125000D01*
X111701000Y-77005000D02*
X111701000Y-83100000D01*
X111701000Y-68030000D02*
X111701000Y-74125000D01*
X111661000Y-77005000D02*
X111661000Y-83126000D01*
X111661000Y-68004000D02*
X111661000Y-74125000D01*
X111621000Y-77005000D02*
X111621000Y-83153000D01*
X111621000Y-67977000D02*
X111621000Y-74125000D01*
X111581000Y-77005000D02*
X111581000Y-83179000D01*
X111581000Y-67951000D02*
X111581000Y-74125000D01*
X111541000Y-77005000D02*
X111541000Y-83205000D01*
X111541000Y-67925000D02*
X111541000Y-74125000D01*
X111501000Y-77005000D02*
X111501000Y-83230000D01*
X111501000Y-67900000D02*
X111501000Y-74125000D01*
X111461000Y-77005000D02*
X111461000Y-83255000D01*
X111461000Y-67875000D02*
X111461000Y-74125000D01*
X111421000Y-77005000D02*
X111421000Y-83280000D01*
X111421000Y-67850000D02*
X111421000Y-74125000D01*
X111381000Y-77005000D02*
X111381000Y-83305000D01*
X111381000Y-67825000D02*
X111381000Y-74125000D01*
X111341000Y-77005000D02*
X111341000Y-83329000D01*
X111341000Y-67801000D02*
X111341000Y-74125000D01*
X111301000Y-77005000D02*
X111301000Y-83353000D01*
X111301000Y-67777000D02*
X111301000Y-74125000D01*
X111261000Y-77005000D02*
X111261000Y-83377000D01*
X111261000Y-67753000D02*
X111261000Y-74125000D01*
X111221000Y-77005000D02*
X111221000Y-83400000D01*
X111221000Y-67730000D02*
X111221000Y-74125000D01*
X111181000Y-77005000D02*
X111181000Y-83424000D01*
X111181000Y-67706000D02*
X111181000Y-74125000D01*
X111141000Y-77005000D02*
X111141000Y-83447000D01*
X111141000Y-67683000D02*
X111141000Y-74125000D01*
X111101000Y-77005000D02*
X111101000Y-83469000D01*
X111101000Y-67661000D02*
X111101000Y-74125000D01*
X111061000Y-77005000D02*
X111061000Y-83492000D01*
X111061000Y-67638000D02*
X111061000Y-74125000D01*
X111021000Y-77005000D02*
X111021000Y-83514000D01*
X111021000Y-67616000D02*
X111021000Y-74125000D01*
X110981000Y-77005000D02*
X110981000Y-83536000D01*
X110981000Y-67594000D02*
X110981000Y-74125000D01*
X110941000Y-77005000D02*
X110941000Y-83557000D01*
X110941000Y-67573000D02*
X110941000Y-74125000D01*
X110901000Y-77005000D02*
X110901000Y-83579000D01*
X110901000Y-67551000D02*
X110901000Y-74125000D01*
X110861000Y-77005000D02*
X110861000Y-83600000D01*
X110861000Y-67530000D02*
X110861000Y-74125000D01*
X110821000Y-77005000D02*
X110821000Y-83621000D01*
X110821000Y-67509000D02*
X110821000Y-74125000D01*
X110781000Y-77005000D02*
X110781000Y-83641000D01*
X110781000Y-67489000D02*
X110781000Y-74125000D01*
X110741000Y-77005000D02*
X110741000Y-83662000D01*
X110741000Y-67468000D02*
X110741000Y-74125000D01*
X110701000Y-77005000D02*
X110701000Y-83682000D01*
X110701000Y-67448000D02*
X110701000Y-74125000D01*
X110661000Y-77005000D02*
X110661000Y-83702000D01*
X110661000Y-67428000D02*
X110661000Y-74125000D01*
X110621000Y-77005000D02*
X110621000Y-83721000D01*
X110621000Y-67409000D02*
X110621000Y-74125000D01*
X110581000Y-77005000D02*
X110581000Y-83741000D01*
X110581000Y-67389000D02*
X110581000Y-74125000D01*
X110541000Y-77005000D02*
X110541000Y-83760000D01*
X110541000Y-67370000D02*
X110541000Y-74125000D01*
X110501000Y-77005000D02*
X110501000Y-83779000D01*
X110501000Y-67351000D02*
X110501000Y-74125000D01*
X110461000Y-77005000D02*
X110461000Y-83798000D01*
X110461000Y-67332000D02*
X110461000Y-74125000D01*
X110421000Y-77005000D02*
X110421000Y-83816000D01*
X110421000Y-67314000D02*
X110421000Y-74125000D01*
X110381000Y-77005000D02*
X110381000Y-83834000D01*
X110381000Y-67296000D02*
X110381000Y-74125000D01*
X110341000Y-77005000D02*
X110341000Y-83852000D01*
X110341000Y-67278000D02*
X110341000Y-74125000D01*
X110301000Y-77005000D02*
X110301000Y-83870000D01*
X110301000Y-67260000D02*
X110301000Y-74125000D01*
X110261000Y-77005000D02*
X110261000Y-83888000D01*
X110261000Y-67242000D02*
X110261000Y-74125000D01*
X110221000Y-77005000D02*
X110221000Y-83905000D01*
X110221000Y-67225000D02*
X110221000Y-74125000D01*
X110181000Y-77005000D02*
X110181000Y-83922000D01*
X110181000Y-67208000D02*
X110181000Y-74125000D01*
X110141000Y-77005000D02*
X110141000Y-83939000D01*
X110141000Y-67191000D02*
X110141000Y-74125000D01*
X110101000Y-77005000D02*
X110101000Y-83955000D01*
X110101000Y-67175000D02*
X110101000Y-74125000D01*
X110061000Y-77005000D02*
X110061000Y-83972000D01*
X110061000Y-67158000D02*
X110061000Y-74125000D01*
X110021000Y-77005000D02*
X110021000Y-83988000D01*
X110021000Y-67142000D02*
X110021000Y-74125000D01*
X109981000Y-77005000D02*
X109981000Y-84004000D01*
X109981000Y-67126000D02*
X109981000Y-74125000D01*
X109941000Y-77005000D02*
X109941000Y-84020000D01*
X109941000Y-67110000D02*
X109941000Y-74125000D01*
X109901000Y-77005000D02*
X109901000Y-84035000D01*
X109901000Y-67095000D02*
X109901000Y-74125000D01*
X109861000Y-77005000D02*
X109861000Y-84051000D01*
X109861000Y-67079000D02*
X109861000Y-74125000D01*
X109821000Y-77005000D02*
X109821000Y-84066000D01*
X109821000Y-67064000D02*
X109821000Y-74125000D01*
X109781000Y-77005000D02*
X109781000Y-84081000D01*
X109781000Y-67049000D02*
X109781000Y-74125000D01*
X109741000Y-77005000D02*
X109741000Y-84095000D01*
X109741000Y-67035000D02*
X109741000Y-74125000D01*
X109701000Y-77005000D02*
X109701000Y-84110000D01*
X109701000Y-67020000D02*
X109701000Y-74125000D01*
X109661000Y-77005000D02*
X109661000Y-84124000D01*
X109661000Y-67006000D02*
X109661000Y-74125000D01*
X109621000Y-77005000D02*
X109621000Y-84138000D01*
X109621000Y-66992000D02*
X109621000Y-74125000D01*
X109581000Y-77005000D02*
X109581000Y-84152000D01*
X109581000Y-66978000D02*
X109581000Y-74125000D01*
X109541000Y-77005000D02*
X109541000Y-84165000D01*
X109541000Y-66965000D02*
X109541000Y-74125000D01*
X109501000Y-77005000D02*
X109501000Y-84179000D01*
X109501000Y-66951000D02*
X109501000Y-74125000D01*
X109461000Y-77005000D02*
X109461000Y-84192000D01*
X109461000Y-66938000D02*
X109461000Y-74125000D01*
X109421000Y-77005000D02*
X109421000Y-84205000D01*
X109421000Y-66925000D02*
X109421000Y-74125000D01*
X109381000Y-77005000D02*
X109381000Y-84218000D01*
X109381000Y-66912000D02*
X109381000Y-74125000D01*
X109341000Y-77005000D02*
X109341000Y-84230000D01*
X109341000Y-66900000D02*
X109341000Y-74125000D01*
X109301000Y-77005000D02*
X109301000Y-84243000D01*
X109301000Y-66887000D02*
X109301000Y-74125000D01*
X109261000Y-77005000D02*
X109261000Y-84255000D01*
X109261000Y-66875000D02*
X109261000Y-74125000D01*
X109221000Y-77005000D02*
X109221000Y-84267000D01*
X109221000Y-66863000D02*
X109221000Y-74125000D01*
X109181000Y-77005000D02*
X109181000Y-84279000D01*
X109181000Y-66851000D02*
X109181000Y-74125000D01*
X109141000Y-77005000D02*
X109141000Y-84290000D01*
X109141000Y-66840000D02*
X109141000Y-74125000D01*
X109101000Y-77005000D02*
X109101000Y-84302000D01*
X109101000Y-66828000D02*
X109101000Y-74125000D01*
X109061000Y-77005000D02*
X109061000Y-84313000D01*
X109061000Y-66817000D02*
X109061000Y-74125000D01*
X109021000Y-77005000D02*
X109021000Y-84324000D01*
X109021000Y-66806000D02*
X109021000Y-74125000D01*
X108981000Y-77005000D02*
X108981000Y-84335000D01*
X108981000Y-66795000D02*
X108981000Y-74125000D01*
X108941000Y-77005000D02*
X108941000Y-84345000D01*
X108941000Y-66785000D02*
X108941000Y-74125000D01*
X108901000Y-66774000D02*
X108901000Y-84356000D01*
X108861000Y-66764000D02*
X108861000Y-84366000D01*
X108821000Y-66754000D02*
X108821000Y-84376000D01*
X108781000Y-66744000D02*
X108781000Y-84386000D01*
X108741000Y-66734000D02*
X108741000Y-84396000D01*
X108701000Y-66725000D02*
X108701000Y-84405000D01*
X108661000Y-66716000D02*
X108661000Y-84414000D01*
X108621000Y-66707000D02*
X108621000Y-84423000D01*
X108581000Y-66698000D02*
X108581000Y-84432000D01*
X108541000Y-66689000D02*
X108541000Y-84441000D01*
X108501000Y-66680000D02*
X108501000Y-84450000D01*
X108461000Y-66672000D02*
X108461000Y-84458000D01*
X108421000Y-66664000D02*
X108421000Y-84466000D01*
X108381000Y-66656000D02*
X108381000Y-84474000D01*
X108341000Y-66648000D02*
X108341000Y-84482000D01*
X108301000Y-66641000D02*
X108301000Y-84489000D01*
X108261000Y-66633000D02*
X108261000Y-84497000D01*
X108221000Y-66626000D02*
X108221000Y-84504000D01*
X108181000Y-66619000D02*
X108181000Y-84511000D01*
X108141000Y-66612000D02*
X108141000Y-84518000D01*
X108101000Y-66605000D02*
X108101000Y-84525000D01*
X108061000Y-66599000D02*
X108061000Y-84531000D01*
X108021000Y-66593000D02*
X108021000Y-84537000D01*
X107981000Y-66586000D02*
X107981000Y-84544000D01*
X107941000Y-66581000D02*
X107941000Y-84549000D01*
X107901000Y-66575000D02*
X107901000Y-84555000D01*
X107861000Y-66569000D02*
X107861000Y-84561000D01*
X107821000Y-66564000D02*
X107821000Y-84566000D01*
X107781000Y-66559000D02*
X107781000Y-84571000D01*
X107741000Y-66554000D02*
X107741000Y-84576000D01*
X107701000Y-66549000D02*
X107701000Y-84581000D01*
X107661000Y-66544000D02*
X107661000Y-84586000D01*
X107621000Y-66539000D02*
X107621000Y-84591000D01*
X107581000Y-66535000D02*
X107581000Y-84595000D01*
X107541000Y-66531000D02*
X107541000Y-84599000D01*
X107501000Y-66527000D02*
X107501000Y-84603000D01*
X107461000Y-66523000D02*
X107461000Y-84607000D01*
X107421000Y-66520000D02*
X107421000Y-84610000D01*
X107381000Y-66516000D02*
X107381000Y-84614000D01*
X107341000Y-66513000D02*
X107341000Y-84617000D01*
X107300000Y-66510000D02*
X107300000Y-84620000D01*
X107260000Y-66507000D02*
X107260000Y-84623000D01*
X107220000Y-66504000D02*
X107220000Y-84626000D01*
X107180000Y-66502000D02*
X107180000Y-84628000D01*
X107140000Y-66499000D02*
X107140000Y-84631000D01*
X107100000Y-66497000D02*
X107100000Y-84633000D01*
X107060000Y-66495000D02*
X107060000Y-84635000D01*
X107020000Y-66493000D02*
X107020000Y-84637000D01*
X106980000Y-66492000D02*
X106980000Y-84638000D01*
X106940000Y-66490000D02*
X106940000Y-84640000D01*
X106900000Y-66489000D02*
X106900000Y-84641000D01*
X106860000Y-66488000D02*
X106860000Y-84642000D01*
X106820000Y-66487000D02*
X106820000Y-84643000D01*
X106780000Y-66486000D02*
X106780000Y-84644000D01*
X106740000Y-66485000D02*
X106740000Y-84645000D01*
X106700000Y-66485000D02*
X106700000Y-84645000D01*
X106660000Y-66485000D02*
X106660000Y-84645000D01*
X106620000Y-66484000D02*
X106620000Y-84646000D01*
X115740000Y-75565000D02*
G75*
G03*
X115740000Y-75565000I-9120000J0D01*
G01*
X126900000Y-59428748D02*
X126900000Y-59951252D01*
X128370000Y-59428748D02*
X128370000Y-59951252D01*
X126565000Y-61020354D02*
X125565000Y-61020354D01*
X126065000Y-60520354D02*
X126065000Y-61520354D01*
X123789000Y-71081000D02*
X122591000Y-71081000D01*
X124052000Y-71041000D02*
X122328000Y-71041000D01*
X124252000Y-71001000D02*
X122128000Y-71001000D01*
X124420000Y-70961000D02*
X121960000Y-70961000D01*
X124568000Y-70921000D02*
X121812000Y-70921000D01*
X124700000Y-70881000D02*
X121680000Y-70881000D01*
X124820000Y-70841000D02*
X121560000Y-70841000D01*
X124932000Y-70801000D02*
X121448000Y-70801000D01*
X125036000Y-70761000D02*
X121344000Y-70761000D01*
X125134000Y-70721000D02*
X121246000Y-70721000D01*
X125227000Y-70681000D02*
X121153000Y-70681000D01*
X125315000Y-70641000D02*
X121065000Y-70641000D01*
X125399000Y-70601000D02*
X120981000Y-70601000D01*
X125479000Y-70561000D02*
X120901000Y-70561000D01*
X125555000Y-70521000D02*
X120825000Y-70521000D01*
X125629000Y-70481000D02*
X120751000Y-70481000D01*
X125700000Y-70441000D02*
X120680000Y-70441000D01*
X125769000Y-70401000D02*
X120611000Y-70401000D01*
X125835000Y-70361000D02*
X120545000Y-70361000D01*
X125899000Y-70321000D02*
X120481000Y-70321000D01*
X125960000Y-70281000D02*
X120420000Y-70281000D01*
X126020000Y-70241000D02*
X120360000Y-70241000D01*
X126079000Y-70201000D02*
X120301000Y-70201000D01*
X126135000Y-70161000D02*
X120245000Y-70161000D01*
X126190000Y-70121000D02*
X120190000Y-70121000D01*
X126244000Y-70081000D02*
X120136000Y-70081000D01*
X126296000Y-70041000D02*
X120084000Y-70041000D01*
X126346000Y-70001000D02*
X120034000Y-70001000D01*
X126396000Y-69961000D02*
X119984000Y-69961000D01*
X126444000Y-69921000D02*
X119936000Y-69921000D01*
X126491000Y-69881000D02*
X119889000Y-69881000D01*
X126537000Y-69841000D02*
X119843000Y-69841000D01*
X126582000Y-69801000D02*
X119798000Y-69801000D01*
X126626000Y-69761000D02*
X119754000Y-69761000D01*
X121949000Y-69721000D02*
X119712000Y-69721000D01*
X126668000Y-69721000D02*
X124431000Y-69721000D01*
X121949000Y-69681000D02*
X119670000Y-69681000D01*
X126710000Y-69681000D02*
X124431000Y-69681000D01*
X121949000Y-69641000D02*
X119629000Y-69641000D01*
X126751000Y-69641000D02*
X124431000Y-69641000D01*
X121949000Y-69601000D02*
X119589000Y-69601000D01*
X126791000Y-69601000D02*
X124431000Y-69601000D01*
X121949000Y-69561000D02*
X119550000Y-69561000D01*
X126830000Y-69561000D02*
X124431000Y-69561000D01*
X121949000Y-69521000D02*
X119511000Y-69521000D01*
X126869000Y-69521000D02*
X124431000Y-69521000D01*
X121949000Y-69481000D02*
X119474000Y-69481000D01*
X126906000Y-69481000D02*
X124431000Y-69481000D01*
X121949000Y-69441000D02*
X119437000Y-69441000D01*
X126943000Y-69441000D02*
X124431000Y-69441000D01*
X121949000Y-69401000D02*
X119401000Y-69401000D01*
X126979000Y-69401000D02*
X124431000Y-69401000D01*
X121949000Y-69361000D02*
X119366000Y-69361000D01*
X127014000Y-69361000D02*
X124431000Y-69361000D01*
X121949000Y-69321000D02*
X119332000Y-69321000D01*
X127048000Y-69321000D02*
X124431000Y-69321000D01*
X121949000Y-69281000D02*
X119298000Y-69281000D01*
X127082000Y-69281000D02*
X124431000Y-69281000D01*
X121949000Y-69241000D02*
X119265000Y-69241000D01*
X127115000Y-69241000D02*
X124431000Y-69241000D01*
X121949000Y-69201000D02*
X119233000Y-69201000D01*
X127147000Y-69201000D02*
X124431000Y-69201000D01*
X121949000Y-69161000D02*
X119201000Y-69161000D01*
X127179000Y-69161000D02*
X124431000Y-69161000D01*
X121949000Y-69121000D02*
X119170000Y-69121000D01*
X127210000Y-69121000D02*
X124431000Y-69121000D01*
X121949000Y-69081000D02*
X119140000Y-69081000D01*
X127240000Y-69081000D02*
X124431000Y-69081000D01*
X121949000Y-69041000D02*
X119110000Y-69041000D01*
X127270000Y-69041000D02*
X124431000Y-69041000D01*
X121949000Y-69001000D02*
X119080000Y-69001000D01*
X127300000Y-69001000D02*
X124431000Y-69001000D01*
X121949000Y-68961000D02*
X119052000Y-68961000D01*
X127328000Y-68961000D02*
X124431000Y-68961000D01*
X121949000Y-68921000D02*
X119024000Y-68921000D01*
X127356000Y-68921000D02*
X124431000Y-68921000D01*
X121949000Y-68881000D02*
X118996000Y-68881000D01*
X127384000Y-68881000D02*
X124431000Y-68881000D01*
X121949000Y-68841000D02*
X118969000Y-68841000D01*
X127411000Y-68841000D02*
X124431000Y-68841000D01*
X121949000Y-68801000D02*
X118943000Y-68801000D01*
X127437000Y-68801000D02*
X124431000Y-68801000D01*
X121949000Y-68761000D02*
X118917000Y-68761000D01*
X127463000Y-68761000D02*
X124431000Y-68761000D01*
X121949000Y-68721000D02*
X118892000Y-68721000D01*
X127488000Y-68721000D02*
X124431000Y-68721000D01*
X121949000Y-68681000D02*
X118867000Y-68681000D01*
X127513000Y-68681000D02*
X124431000Y-68681000D01*
X121949000Y-68641000D02*
X118843000Y-68641000D01*
X127537000Y-68641000D02*
X124431000Y-68641000D01*
X121949000Y-68601000D02*
X118819000Y-68601000D01*
X127561000Y-68601000D02*
X124431000Y-68601000D01*
X121949000Y-68561000D02*
X118795000Y-68561000D01*
X127585000Y-68561000D02*
X124431000Y-68561000D01*
X121949000Y-68521000D02*
X118773000Y-68521000D01*
X127607000Y-68521000D02*
X124431000Y-68521000D01*
X121949000Y-68481000D02*
X118750000Y-68481000D01*
X127630000Y-68481000D02*
X124431000Y-68481000D01*
X121949000Y-68441000D02*
X118728000Y-68441000D01*
X127652000Y-68441000D02*
X124431000Y-68441000D01*
X121949000Y-68401000D02*
X118707000Y-68401000D01*
X127673000Y-68401000D02*
X124431000Y-68401000D01*
X121949000Y-68361000D02*
X118686000Y-68361000D01*
X127694000Y-68361000D02*
X124431000Y-68361000D01*
X121949000Y-68321000D02*
X118665000Y-68321000D01*
X127715000Y-68321000D02*
X124431000Y-68321000D01*
X121949000Y-68281000D02*
X118645000Y-68281000D01*
X127735000Y-68281000D02*
X124431000Y-68281000D01*
X121949000Y-68241000D02*
X118626000Y-68241000D01*
X127754000Y-68241000D02*
X124431000Y-68241000D01*
X121949000Y-68201000D02*
X118606000Y-68201000D01*
X127774000Y-68201000D02*
X124431000Y-68201000D01*
X121949000Y-68161000D02*
X118587000Y-68161000D01*
X127793000Y-68161000D02*
X124431000Y-68161000D01*
X121949000Y-68121000D02*
X118569000Y-68121000D01*
X127811000Y-68121000D02*
X124431000Y-68121000D01*
X121949000Y-68081000D02*
X118551000Y-68081000D01*
X127829000Y-68081000D02*
X124431000Y-68081000D01*
X121949000Y-68041000D02*
X118533000Y-68041000D01*
X127847000Y-68041000D02*
X124431000Y-68041000D01*
X121949000Y-68001000D02*
X118516000Y-68001000D01*
X127864000Y-68001000D02*
X124431000Y-68001000D01*
X121949000Y-67961000D02*
X118500000Y-67961000D01*
X127880000Y-67961000D02*
X124431000Y-67961000D01*
X121949000Y-67921000D02*
X118483000Y-67921000D01*
X127897000Y-67921000D02*
X124431000Y-67921000D01*
X121949000Y-67881000D02*
X118467000Y-67881000D01*
X127913000Y-67881000D02*
X124431000Y-67881000D01*
X121949000Y-67841000D02*
X118452000Y-67841000D01*
X127928000Y-67841000D02*
X124431000Y-67841000D01*
X121949000Y-67801000D02*
X118436000Y-67801000D01*
X127944000Y-67801000D02*
X124431000Y-67801000D01*
X121949000Y-67761000D02*
X118422000Y-67761000D01*
X127958000Y-67761000D02*
X124431000Y-67761000D01*
X121949000Y-67721000D02*
X118407000Y-67721000D01*
X127973000Y-67721000D02*
X124431000Y-67721000D01*
X121949000Y-67681000D02*
X118393000Y-67681000D01*
X127987000Y-67681000D02*
X124431000Y-67681000D01*
X121949000Y-67641000D02*
X118379000Y-67641000D01*
X128001000Y-67641000D02*
X124431000Y-67641000D01*
X121949000Y-67601000D02*
X118366000Y-67601000D01*
X128014000Y-67601000D02*
X124431000Y-67601000D01*
X121949000Y-67561000D02*
X118353000Y-67561000D01*
X128027000Y-67561000D02*
X124431000Y-67561000D01*
X121949000Y-67521000D02*
X118340000Y-67521000D01*
X128040000Y-67521000D02*
X124431000Y-67521000D01*
X121949000Y-67481000D02*
X118328000Y-67481000D01*
X128052000Y-67481000D02*
X124431000Y-67481000D01*
X121949000Y-67441000D02*
X118316000Y-67441000D01*
X128064000Y-67441000D02*
X124431000Y-67441000D01*
X121949000Y-67401000D02*
X118305000Y-67401000D01*
X128075000Y-67401000D02*
X124431000Y-67401000D01*
X121949000Y-67361000D02*
X118293000Y-67361000D01*
X128087000Y-67361000D02*
X124431000Y-67361000D01*
X121949000Y-67321000D02*
X118283000Y-67321000D01*
X128097000Y-67321000D02*
X124431000Y-67321000D01*
X121949000Y-67281000D02*
X118272000Y-67281000D01*
X128108000Y-67281000D02*
X124431000Y-67281000D01*
X128118000Y-67241000D02*
X118262000Y-67241000D01*
X128128000Y-67201000D02*
X118252000Y-67201000D01*
X128137000Y-67161000D02*
X118243000Y-67161000D01*
X128146000Y-67121000D02*
X118234000Y-67121000D01*
X128155000Y-67081000D02*
X118225000Y-67081000D01*
X128164000Y-67041000D02*
X118216000Y-67041000D01*
X128172000Y-67001000D02*
X118208000Y-67001000D01*
X128180000Y-66961000D02*
X118200000Y-66961000D01*
X128187000Y-66921000D02*
X118193000Y-66921000D01*
X128194000Y-66881000D02*
X118186000Y-66881000D01*
X128201000Y-66841000D02*
X118179000Y-66841000D01*
X128208000Y-66801000D02*
X118172000Y-66801000D01*
X128214000Y-66761000D02*
X118166000Y-66761000D01*
X128220000Y-66721000D02*
X118160000Y-66721000D01*
X128225000Y-66680000D02*
X118155000Y-66680000D01*
X128230000Y-66640000D02*
X118150000Y-66640000D01*
X128235000Y-66600000D02*
X118145000Y-66600000D01*
X128240000Y-66560000D02*
X118140000Y-66560000D01*
X128244000Y-66520000D02*
X118136000Y-66520000D01*
X128248000Y-66480000D02*
X118132000Y-66480000D01*
X128252000Y-66440000D02*
X118128000Y-66440000D01*
X128255000Y-66400000D02*
X118125000Y-66400000D01*
X128258000Y-66360000D02*
X118122000Y-66360000D01*
X128260000Y-66320000D02*
X118120000Y-66320000D01*
X128263000Y-66280000D02*
X118117000Y-66280000D01*
X128265000Y-66240000D02*
X118115000Y-66240000D01*
X128267000Y-66200000D02*
X118113000Y-66200000D01*
X128268000Y-66160000D02*
X118112000Y-66160000D01*
X128269000Y-66120000D02*
X118111000Y-66120000D01*
X128270000Y-66080000D02*
X118110000Y-66080000D01*
X128270000Y-66040000D02*
X118110000Y-66040000D01*
X128270000Y-66000000D02*
X118110000Y-66000000D01*
X128310000Y-66000000D02*
G75*
G03*
X128310000Y-66000000I-5120000J0D01*
G01*
X130910000Y-60212248D02*
X130910000Y-60734752D01*
X129440000Y-60212248D02*
X129440000Y-60734752D01*
X125700560Y-69550000D02*
X125700560Y-71350000D01*
X124800560Y-70450000D02*
X126600560Y-70450000D01*
X143680000Y-75525000D02*
X143680000Y-75605000D01*
X143640000Y-74751000D02*
X143640000Y-76379000D01*
X143600000Y-74399000D02*
X143600000Y-76731000D01*
X143560000Y-74130000D02*
X143560000Y-77000000D01*
X143520000Y-73904000D02*
X143520000Y-77226000D01*
X143480000Y-73705000D02*
X143480000Y-77425000D01*
X143440000Y-73526000D02*
X143440000Y-77604000D01*
X143400000Y-73362000D02*
X143400000Y-77768000D01*
X143360000Y-73210000D02*
X143360000Y-77920000D01*
X143320000Y-73067000D02*
X143320000Y-78063000D01*
X143280000Y-72933000D02*
X143280000Y-78197000D01*
X143240000Y-72806000D02*
X143240000Y-78324000D01*
X143200000Y-72685000D02*
X143200000Y-78445000D01*
X143160000Y-72569000D02*
X143160000Y-78561000D01*
X143120000Y-72458000D02*
X143120000Y-78672000D01*
X143080000Y-72351000D02*
X143080000Y-78779000D01*
X143040000Y-72248000D02*
X143040000Y-78882000D01*
X143000000Y-72149000D02*
X143000000Y-78981000D01*
X142960000Y-72053000D02*
X142960000Y-79077000D01*
X142920000Y-71960000D02*
X142920000Y-79170000D01*
X142880000Y-71869000D02*
X142880000Y-79261000D01*
X142840000Y-71781000D02*
X142840000Y-79349000D01*
X142800000Y-71696000D02*
X142800000Y-79434000D01*
X142760000Y-71613000D02*
X142760000Y-79517000D01*
X142721000Y-71532000D02*
X142721000Y-79598000D01*
X142681000Y-71452000D02*
X142681000Y-79678000D01*
X142641000Y-71375000D02*
X142641000Y-79755000D01*
X142601000Y-71300000D02*
X142601000Y-79830000D01*
X142561000Y-71226000D02*
X142561000Y-79904000D01*
X142521000Y-71153000D02*
X142521000Y-79977000D01*
X142481000Y-71083000D02*
X142481000Y-80047000D01*
X142441000Y-71013000D02*
X142441000Y-80117000D01*
X142401000Y-70945000D02*
X142401000Y-80185000D01*
X142361000Y-70879000D02*
X142361000Y-80251000D01*
X142321000Y-70813000D02*
X142321000Y-80317000D01*
X142281000Y-70749000D02*
X142281000Y-80381000D01*
X142241000Y-70686000D02*
X142241000Y-80444000D01*
X142201000Y-70624000D02*
X142201000Y-80506000D01*
X142161000Y-70563000D02*
X142161000Y-80567000D01*
X142121000Y-70503000D02*
X142121000Y-80627000D01*
X142081000Y-70445000D02*
X142081000Y-80685000D01*
X142041000Y-70387000D02*
X142041000Y-80743000D01*
X142001000Y-70330000D02*
X142001000Y-80800000D01*
X141961000Y-70274000D02*
X141961000Y-80856000D01*
X141921000Y-70219000D02*
X141921000Y-80911000D01*
X141881000Y-70165000D02*
X141881000Y-80965000D01*
X141841000Y-70111000D02*
X141841000Y-81019000D01*
X141801000Y-70059000D02*
X141801000Y-81071000D01*
X141761000Y-70007000D02*
X141761000Y-81123000D01*
X141721000Y-69956000D02*
X141721000Y-81174000D01*
X141681000Y-69905000D02*
X141681000Y-81225000D01*
X141641000Y-69856000D02*
X141641000Y-81274000D01*
X141601000Y-69807000D02*
X141601000Y-81323000D01*
X141561000Y-69759000D02*
X141561000Y-81371000D01*
X141521000Y-69711000D02*
X141521000Y-81419000D01*
X141481000Y-69664000D02*
X141481000Y-81466000D01*
X141441000Y-69618000D02*
X141441000Y-81512000D01*
X141401000Y-69572000D02*
X141401000Y-81558000D01*
X141361000Y-69527000D02*
X141361000Y-81603000D01*
X141321000Y-69483000D02*
X141321000Y-81647000D01*
X141281000Y-69439000D02*
X141281000Y-81691000D01*
X141241000Y-69395000D02*
X141241000Y-81735000D01*
X141201000Y-69353000D02*
X141201000Y-81777000D01*
X141161000Y-69311000D02*
X141161000Y-81819000D01*
X141121000Y-69269000D02*
X141121000Y-81861000D01*
X141081000Y-69228000D02*
X141081000Y-81902000D01*
X141041000Y-69187000D02*
X141041000Y-81943000D01*
X141001000Y-69147000D02*
X141001000Y-81983000D01*
X140961000Y-69107000D02*
X140961000Y-82023000D01*
X140921000Y-69068000D02*
X140921000Y-82062000D01*
X140881000Y-69029000D02*
X140881000Y-82101000D01*
X140841000Y-68991000D02*
X140841000Y-82139000D01*
X140801000Y-68953000D02*
X140801000Y-82177000D01*
X140761000Y-68916000D02*
X140761000Y-82214000D01*
X140721000Y-68879000D02*
X140721000Y-82251000D01*
X140681000Y-68843000D02*
X140681000Y-82287000D01*
X140641000Y-68807000D02*
X140641000Y-82323000D01*
X140601000Y-68771000D02*
X140601000Y-82359000D01*
X140561000Y-68736000D02*
X140561000Y-82394000D01*
X140521000Y-68701000D02*
X140521000Y-82429000D01*
X140481000Y-68667000D02*
X140481000Y-82463000D01*
X140441000Y-68633000D02*
X140441000Y-82497000D01*
X140401000Y-68600000D02*
X140401000Y-82530000D01*
X140361000Y-68566000D02*
X140361000Y-82564000D01*
X140321000Y-68534000D02*
X140321000Y-82596000D01*
X140281000Y-68501000D02*
X140281000Y-82629000D01*
X140241000Y-68469000D02*
X140241000Y-82661000D01*
X140201000Y-68438000D02*
X140201000Y-82692000D01*
X140161000Y-68406000D02*
X140161000Y-82724000D01*
X140121000Y-68375000D02*
X140121000Y-82755000D01*
X140081000Y-68345000D02*
X140081000Y-82785000D01*
X140041000Y-68315000D02*
X140041000Y-82815000D01*
X140001000Y-68285000D02*
X140001000Y-82845000D01*
X139961000Y-68255000D02*
X139961000Y-82875000D01*
X139921000Y-68226000D02*
X139921000Y-82904000D01*
X139881000Y-68197000D02*
X139881000Y-82933000D01*
X139841000Y-68168000D02*
X139841000Y-82962000D01*
X139801000Y-68140000D02*
X139801000Y-82990000D01*
X139761000Y-68112000D02*
X139761000Y-83018000D01*
X139721000Y-77005000D02*
X139721000Y-83045000D01*
X139721000Y-68085000D02*
X139721000Y-74125000D01*
X139681000Y-77005000D02*
X139681000Y-83073000D01*
X139681000Y-68057000D02*
X139681000Y-74125000D01*
X139641000Y-77005000D02*
X139641000Y-83100000D01*
X139641000Y-68030000D02*
X139641000Y-74125000D01*
X139601000Y-77005000D02*
X139601000Y-83126000D01*
X139601000Y-68004000D02*
X139601000Y-74125000D01*
X139561000Y-77005000D02*
X139561000Y-83153000D01*
X139561000Y-67977000D02*
X139561000Y-74125000D01*
X139521000Y-77005000D02*
X139521000Y-83179000D01*
X139521000Y-67951000D02*
X139521000Y-74125000D01*
X139481000Y-77005000D02*
X139481000Y-83205000D01*
X139481000Y-67925000D02*
X139481000Y-74125000D01*
X139441000Y-77005000D02*
X139441000Y-83230000D01*
X139441000Y-67900000D02*
X139441000Y-74125000D01*
X139401000Y-77005000D02*
X139401000Y-83255000D01*
X139401000Y-67875000D02*
X139401000Y-74125000D01*
X139361000Y-77005000D02*
X139361000Y-83280000D01*
X139361000Y-67850000D02*
X139361000Y-74125000D01*
X139321000Y-77005000D02*
X139321000Y-83305000D01*
X139321000Y-67825000D02*
X139321000Y-74125000D01*
X139281000Y-77005000D02*
X139281000Y-83329000D01*
X139281000Y-67801000D02*
X139281000Y-74125000D01*
X139241000Y-77005000D02*
X139241000Y-83353000D01*
X139241000Y-67777000D02*
X139241000Y-74125000D01*
X139201000Y-77005000D02*
X139201000Y-83377000D01*
X139201000Y-67753000D02*
X139201000Y-74125000D01*
X139161000Y-77005000D02*
X139161000Y-83400000D01*
X139161000Y-67730000D02*
X139161000Y-74125000D01*
X139121000Y-77005000D02*
X139121000Y-83424000D01*
X139121000Y-67706000D02*
X139121000Y-74125000D01*
X139081000Y-77005000D02*
X139081000Y-83447000D01*
X139081000Y-67683000D02*
X139081000Y-74125000D01*
X139041000Y-77005000D02*
X139041000Y-83469000D01*
X139041000Y-67661000D02*
X139041000Y-74125000D01*
X139001000Y-77005000D02*
X139001000Y-83492000D01*
X139001000Y-67638000D02*
X139001000Y-74125000D01*
X138961000Y-77005000D02*
X138961000Y-83514000D01*
X138961000Y-67616000D02*
X138961000Y-74125000D01*
X138921000Y-77005000D02*
X138921000Y-83536000D01*
X138921000Y-67594000D02*
X138921000Y-74125000D01*
X138881000Y-77005000D02*
X138881000Y-83557000D01*
X138881000Y-67573000D02*
X138881000Y-74125000D01*
X138841000Y-77005000D02*
X138841000Y-83579000D01*
X138841000Y-67551000D02*
X138841000Y-74125000D01*
X138801000Y-77005000D02*
X138801000Y-83600000D01*
X138801000Y-67530000D02*
X138801000Y-74125000D01*
X138761000Y-77005000D02*
X138761000Y-83621000D01*
X138761000Y-67509000D02*
X138761000Y-74125000D01*
X138721000Y-77005000D02*
X138721000Y-83641000D01*
X138721000Y-67489000D02*
X138721000Y-74125000D01*
X138681000Y-77005000D02*
X138681000Y-83662000D01*
X138681000Y-67468000D02*
X138681000Y-74125000D01*
X138641000Y-77005000D02*
X138641000Y-83682000D01*
X138641000Y-67448000D02*
X138641000Y-74125000D01*
X138601000Y-77005000D02*
X138601000Y-83702000D01*
X138601000Y-67428000D02*
X138601000Y-74125000D01*
X138561000Y-77005000D02*
X138561000Y-83721000D01*
X138561000Y-67409000D02*
X138561000Y-74125000D01*
X138521000Y-77005000D02*
X138521000Y-83741000D01*
X138521000Y-67389000D02*
X138521000Y-74125000D01*
X138481000Y-77005000D02*
X138481000Y-83760000D01*
X138481000Y-67370000D02*
X138481000Y-74125000D01*
X138441000Y-77005000D02*
X138441000Y-83779000D01*
X138441000Y-67351000D02*
X138441000Y-74125000D01*
X138401000Y-77005000D02*
X138401000Y-83798000D01*
X138401000Y-67332000D02*
X138401000Y-74125000D01*
X138361000Y-77005000D02*
X138361000Y-83816000D01*
X138361000Y-67314000D02*
X138361000Y-74125000D01*
X138321000Y-77005000D02*
X138321000Y-83834000D01*
X138321000Y-67296000D02*
X138321000Y-74125000D01*
X138281000Y-77005000D02*
X138281000Y-83852000D01*
X138281000Y-67278000D02*
X138281000Y-74125000D01*
X138241000Y-77005000D02*
X138241000Y-83870000D01*
X138241000Y-67260000D02*
X138241000Y-74125000D01*
X138201000Y-77005000D02*
X138201000Y-83888000D01*
X138201000Y-67242000D02*
X138201000Y-74125000D01*
X138161000Y-77005000D02*
X138161000Y-83905000D01*
X138161000Y-67225000D02*
X138161000Y-74125000D01*
X138121000Y-77005000D02*
X138121000Y-83922000D01*
X138121000Y-67208000D02*
X138121000Y-74125000D01*
X138081000Y-77005000D02*
X138081000Y-83939000D01*
X138081000Y-67191000D02*
X138081000Y-74125000D01*
X138041000Y-77005000D02*
X138041000Y-83955000D01*
X138041000Y-67175000D02*
X138041000Y-74125000D01*
X138001000Y-77005000D02*
X138001000Y-83972000D01*
X138001000Y-67158000D02*
X138001000Y-74125000D01*
X137961000Y-77005000D02*
X137961000Y-83988000D01*
X137961000Y-67142000D02*
X137961000Y-74125000D01*
X137921000Y-77005000D02*
X137921000Y-84004000D01*
X137921000Y-67126000D02*
X137921000Y-74125000D01*
X137881000Y-77005000D02*
X137881000Y-84020000D01*
X137881000Y-67110000D02*
X137881000Y-74125000D01*
X137841000Y-77005000D02*
X137841000Y-84035000D01*
X137841000Y-67095000D02*
X137841000Y-74125000D01*
X137801000Y-77005000D02*
X137801000Y-84051000D01*
X137801000Y-67079000D02*
X137801000Y-74125000D01*
X137761000Y-77005000D02*
X137761000Y-84066000D01*
X137761000Y-67064000D02*
X137761000Y-74125000D01*
X137721000Y-77005000D02*
X137721000Y-84081000D01*
X137721000Y-67049000D02*
X137721000Y-74125000D01*
X137681000Y-77005000D02*
X137681000Y-84095000D01*
X137681000Y-67035000D02*
X137681000Y-74125000D01*
X137641000Y-77005000D02*
X137641000Y-84110000D01*
X137641000Y-67020000D02*
X137641000Y-74125000D01*
X137601000Y-77005000D02*
X137601000Y-84124000D01*
X137601000Y-67006000D02*
X137601000Y-74125000D01*
X137561000Y-77005000D02*
X137561000Y-84138000D01*
X137561000Y-66992000D02*
X137561000Y-74125000D01*
X137521000Y-77005000D02*
X137521000Y-84152000D01*
X137521000Y-66978000D02*
X137521000Y-74125000D01*
X137481000Y-77005000D02*
X137481000Y-84165000D01*
X137481000Y-66965000D02*
X137481000Y-74125000D01*
X137441000Y-77005000D02*
X137441000Y-84179000D01*
X137441000Y-66951000D02*
X137441000Y-74125000D01*
X137401000Y-77005000D02*
X137401000Y-84192000D01*
X137401000Y-66938000D02*
X137401000Y-74125000D01*
X137361000Y-77005000D02*
X137361000Y-84205000D01*
X137361000Y-66925000D02*
X137361000Y-74125000D01*
X137321000Y-77005000D02*
X137321000Y-84218000D01*
X137321000Y-66912000D02*
X137321000Y-74125000D01*
X137281000Y-77005000D02*
X137281000Y-84230000D01*
X137281000Y-66900000D02*
X137281000Y-74125000D01*
X137241000Y-77005000D02*
X137241000Y-84243000D01*
X137241000Y-66887000D02*
X137241000Y-74125000D01*
X137201000Y-77005000D02*
X137201000Y-84255000D01*
X137201000Y-66875000D02*
X137201000Y-74125000D01*
X137161000Y-77005000D02*
X137161000Y-84267000D01*
X137161000Y-66863000D02*
X137161000Y-74125000D01*
X137121000Y-77005000D02*
X137121000Y-84279000D01*
X137121000Y-66851000D02*
X137121000Y-74125000D01*
X137081000Y-77005000D02*
X137081000Y-84290000D01*
X137081000Y-66840000D02*
X137081000Y-74125000D01*
X137041000Y-77005000D02*
X137041000Y-84302000D01*
X137041000Y-66828000D02*
X137041000Y-74125000D01*
X137001000Y-77005000D02*
X137001000Y-84313000D01*
X137001000Y-66817000D02*
X137001000Y-74125000D01*
X136961000Y-77005000D02*
X136961000Y-84324000D01*
X136961000Y-66806000D02*
X136961000Y-74125000D01*
X136921000Y-77005000D02*
X136921000Y-84335000D01*
X136921000Y-66795000D02*
X136921000Y-74125000D01*
X136881000Y-77005000D02*
X136881000Y-84345000D01*
X136881000Y-66785000D02*
X136881000Y-74125000D01*
X136841000Y-66774000D02*
X136841000Y-84356000D01*
X136801000Y-66764000D02*
X136801000Y-84366000D01*
X136761000Y-66754000D02*
X136761000Y-84376000D01*
X136721000Y-66744000D02*
X136721000Y-84386000D01*
X136681000Y-66734000D02*
X136681000Y-84396000D01*
X136641000Y-66725000D02*
X136641000Y-84405000D01*
X136601000Y-66716000D02*
X136601000Y-84414000D01*
X136561000Y-66707000D02*
X136561000Y-84423000D01*
X136521000Y-66698000D02*
X136521000Y-84432000D01*
X136481000Y-66689000D02*
X136481000Y-84441000D01*
X136441000Y-66680000D02*
X136441000Y-84450000D01*
X136401000Y-66672000D02*
X136401000Y-84458000D01*
X136361000Y-66664000D02*
X136361000Y-84466000D01*
X136321000Y-66656000D02*
X136321000Y-84474000D01*
X136281000Y-66648000D02*
X136281000Y-84482000D01*
X136241000Y-66641000D02*
X136241000Y-84489000D01*
X136201000Y-66633000D02*
X136201000Y-84497000D01*
X136161000Y-66626000D02*
X136161000Y-84504000D01*
X136121000Y-66619000D02*
X136121000Y-84511000D01*
X136081000Y-66612000D02*
X136081000Y-84518000D01*
X136041000Y-66605000D02*
X136041000Y-84525000D01*
X136001000Y-66599000D02*
X136001000Y-84531000D01*
X135961000Y-66593000D02*
X135961000Y-84537000D01*
X135921000Y-66586000D02*
X135921000Y-84544000D01*
X135881000Y-66581000D02*
X135881000Y-84549000D01*
X135841000Y-66575000D02*
X135841000Y-84555000D01*
X135801000Y-66569000D02*
X135801000Y-84561000D01*
X135761000Y-66564000D02*
X135761000Y-84566000D01*
X135721000Y-66559000D02*
X135721000Y-84571000D01*
X135681000Y-66554000D02*
X135681000Y-84576000D01*
X135641000Y-66549000D02*
X135641000Y-84581000D01*
X135601000Y-66544000D02*
X135601000Y-84586000D01*
X135561000Y-66539000D02*
X135561000Y-84591000D01*
X135521000Y-66535000D02*
X135521000Y-84595000D01*
X135481000Y-66531000D02*
X135481000Y-84599000D01*
X135441000Y-66527000D02*
X135441000Y-84603000D01*
X135401000Y-66523000D02*
X135401000Y-84607000D01*
X135361000Y-66520000D02*
X135361000Y-84610000D01*
X135321000Y-66516000D02*
X135321000Y-84614000D01*
X135281000Y-66513000D02*
X135281000Y-84617000D01*
X135240000Y-66510000D02*
X135240000Y-84620000D01*
X135200000Y-66507000D02*
X135200000Y-84623000D01*
X135160000Y-66504000D02*
X135160000Y-84626000D01*
X135120000Y-66502000D02*
X135120000Y-84628000D01*
X135080000Y-66499000D02*
X135080000Y-84631000D01*
X135040000Y-66497000D02*
X135040000Y-84633000D01*
X135000000Y-66495000D02*
X135000000Y-84635000D01*
X134960000Y-66493000D02*
X134960000Y-84637000D01*
X134920000Y-66492000D02*
X134920000Y-84638000D01*
X134880000Y-66490000D02*
X134880000Y-84640000D01*
X134840000Y-66489000D02*
X134840000Y-84641000D01*
X134800000Y-66488000D02*
X134800000Y-84642000D01*
X134760000Y-66487000D02*
X134760000Y-84643000D01*
X134720000Y-66486000D02*
X134720000Y-84644000D01*
X134680000Y-66485000D02*
X134680000Y-84645000D01*
X134640000Y-66485000D02*
X134640000Y-84645000D01*
X134600000Y-66485000D02*
X134600000Y-84645000D01*
X134560000Y-66484000D02*
X134560000Y-84646000D01*
X143680000Y-75565000D02*
G75*
G03*
X143680000Y-75565000I-9120000J0D01*
G01*
X59661248Y-71855000D02*
X60183752Y-71855000D01*
X59661248Y-70385000D02*
X60183752Y-70385000D01*
X58855000Y-69027646D02*
X59855000Y-69027646D01*
X59355000Y-69527646D02*
X59355000Y-68527646D01*
X61631000Y-58967000D02*
X62829000Y-58967000D01*
X61368000Y-59007000D02*
X63092000Y-59007000D01*
X61168000Y-59047000D02*
X63292000Y-59047000D01*
X61000000Y-59087000D02*
X63460000Y-59087000D01*
X60852000Y-59127000D02*
X63608000Y-59127000D01*
X60720000Y-59167000D02*
X63740000Y-59167000D01*
X60600000Y-59207000D02*
X63860000Y-59207000D01*
X60488000Y-59247000D02*
X63972000Y-59247000D01*
X60384000Y-59287000D02*
X64076000Y-59287000D01*
X60286000Y-59327000D02*
X64174000Y-59327000D01*
X60193000Y-59367000D02*
X64267000Y-59367000D01*
X60105000Y-59407000D02*
X64355000Y-59407000D01*
X60021000Y-59447000D02*
X64439000Y-59447000D01*
X59941000Y-59487000D02*
X64519000Y-59487000D01*
X59865000Y-59527000D02*
X64595000Y-59527000D01*
X59791000Y-59567000D02*
X64669000Y-59567000D01*
X59720000Y-59607000D02*
X64740000Y-59607000D01*
X59651000Y-59647000D02*
X64809000Y-59647000D01*
X59585000Y-59687000D02*
X64875000Y-59687000D01*
X59521000Y-59727000D02*
X64939000Y-59727000D01*
X59460000Y-59767000D02*
X65000000Y-59767000D01*
X59400000Y-59807000D02*
X65060000Y-59807000D01*
X59341000Y-59847000D02*
X65119000Y-59847000D01*
X59285000Y-59887000D02*
X65175000Y-59887000D01*
X59230000Y-59927000D02*
X65230000Y-59927000D01*
X59176000Y-59967000D02*
X65284000Y-59967000D01*
X59124000Y-60007000D02*
X65336000Y-60007000D01*
X59074000Y-60047000D02*
X65386000Y-60047000D01*
X59024000Y-60087000D02*
X65436000Y-60087000D01*
X58976000Y-60127000D02*
X65484000Y-60127000D01*
X58929000Y-60167000D02*
X65531000Y-60167000D01*
X58883000Y-60207000D02*
X65577000Y-60207000D01*
X58838000Y-60247000D02*
X65622000Y-60247000D01*
X58794000Y-60287000D02*
X65666000Y-60287000D01*
X63471000Y-60327000D02*
X65708000Y-60327000D01*
X58752000Y-60327000D02*
X60989000Y-60327000D01*
X63471000Y-60367000D02*
X65750000Y-60367000D01*
X58710000Y-60367000D02*
X60989000Y-60367000D01*
X63471000Y-60407000D02*
X65791000Y-60407000D01*
X58669000Y-60407000D02*
X60989000Y-60407000D01*
X63471000Y-60447000D02*
X65831000Y-60447000D01*
X58629000Y-60447000D02*
X60989000Y-60447000D01*
X63471000Y-60487000D02*
X65870000Y-60487000D01*
X58590000Y-60487000D02*
X60989000Y-60487000D01*
X63471000Y-60527000D02*
X65909000Y-60527000D01*
X58551000Y-60527000D02*
X60989000Y-60527000D01*
X63471000Y-60567000D02*
X65946000Y-60567000D01*
X58514000Y-60567000D02*
X60989000Y-60567000D01*
X63471000Y-60607000D02*
X65983000Y-60607000D01*
X58477000Y-60607000D02*
X60989000Y-60607000D01*
X63471000Y-60647000D02*
X66019000Y-60647000D01*
X58441000Y-60647000D02*
X60989000Y-60647000D01*
X63471000Y-60687000D02*
X66054000Y-60687000D01*
X58406000Y-60687000D02*
X60989000Y-60687000D01*
X63471000Y-60727000D02*
X66088000Y-60727000D01*
X58372000Y-60727000D02*
X60989000Y-60727000D01*
X63471000Y-60767000D02*
X66122000Y-60767000D01*
X58338000Y-60767000D02*
X60989000Y-60767000D01*
X63471000Y-60807000D02*
X66155000Y-60807000D01*
X58305000Y-60807000D02*
X60989000Y-60807000D01*
X63471000Y-60847000D02*
X66187000Y-60847000D01*
X58273000Y-60847000D02*
X60989000Y-60847000D01*
X63471000Y-60887000D02*
X66219000Y-60887000D01*
X58241000Y-60887000D02*
X60989000Y-60887000D01*
X63471000Y-60927000D02*
X66250000Y-60927000D01*
X58210000Y-60927000D02*
X60989000Y-60927000D01*
X63471000Y-60967000D02*
X66280000Y-60967000D01*
X58180000Y-60967000D02*
X60989000Y-60967000D01*
X63471000Y-61007000D02*
X66310000Y-61007000D01*
X58150000Y-61007000D02*
X60989000Y-61007000D01*
X63471000Y-61047000D02*
X66340000Y-61047000D01*
X58120000Y-61047000D02*
X60989000Y-61047000D01*
X63471000Y-61087000D02*
X66368000Y-61087000D01*
X58092000Y-61087000D02*
X60989000Y-61087000D01*
X63471000Y-61127000D02*
X66396000Y-61127000D01*
X58064000Y-61127000D02*
X60989000Y-61127000D01*
X63471000Y-61167000D02*
X66424000Y-61167000D01*
X58036000Y-61167000D02*
X60989000Y-61167000D01*
X63471000Y-61207000D02*
X66451000Y-61207000D01*
X58009000Y-61207000D02*
X60989000Y-61207000D01*
X63471000Y-61247000D02*
X66477000Y-61247000D01*
X57983000Y-61247000D02*
X60989000Y-61247000D01*
X63471000Y-61287000D02*
X66503000Y-61287000D01*
X57957000Y-61287000D02*
X60989000Y-61287000D01*
X63471000Y-61327000D02*
X66528000Y-61327000D01*
X57932000Y-61327000D02*
X60989000Y-61327000D01*
X63471000Y-61367000D02*
X66553000Y-61367000D01*
X57907000Y-61367000D02*
X60989000Y-61367000D01*
X63471000Y-61407000D02*
X66577000Y-61407000D01*
X57883000Y-61407000D02*
X60989000Y-61407000D01*
X63471000Y-61447000D02*
X66601000Y-61447000D01*
X57859000Y-61447000D02*
X60989000Y-61447000D01*
X63471000Y-61487000D02*
X66625000Y-61487000D01*
X57835000Y-61487000D02*
X60989000Y-61487000D01*
X63471000Y-61527000D02*
X66647000Y-61527000D01*
X57813000Y-61527000D02*
X60989000Y-61527000D01*
X63471000Y-61567000D02*
X66670000Y-61567000D01*
X57790000Y-61567000D02*
X60989000Y-61567000D01*
X63471000Y-61607000D02*
X66692000Y-61607000D01*
X57768000Y-61607000D02*
X60989000Y-61607000D01*
X63471000Y-61647000D02*
X66713000Y-61647000D01*
X57747000Y-61647000D02*
X60989000Y-61647000D01*
X63471000Y-61687000D02*
X66734000Y-61687000D01*
X57726000Y-61687000D02*
X60989000Y-61687000D01*
X63471000Y-61727000D02*
X66755000Y-61727000D01*
X57705000Y-61727000D02*
X60989000Y-61727000D01*
X63471000Y-61767000D02*
X66775000Y-61767000D01*
X57685000Y-61767000D02*
X60989000Y-61767000D01*
X63471000Y-61807000D02*
X66794000Y-61807000D01*
X57666000Y-61807000D02*
X60989000Y-61807000D01*
X63471000Y-61847000D02*
X66814000Y-61847000D01*
X57646000Y-61847000D02*
X60989000Y-61847000D01*
X63471000Y-61887000D02*
X66833000Y-61887000D01*
X57627000Y-61887000D02*
X60989000Y-61887000D01*
X63471000Y-61927000D02*
X66851000Y-61927000D01*
X57609000Y-61927000D02*
X60989000Y-61927000D01*
X63471000Y-61967000D02*
X66869000Y-61967000D01*
X57591000Y-61967000D02*
X60989000Y-61967000D01*
X63471000Y-62007000D02*
X66887000Y-62007000D01*
X57573000Y-62007000D02*
X60989000Y-62007000D01*
X63471000Y-62047000D02*
X66904000Y-62047000D01*
X57556000Y-62047000D02*
X60989000Y-62047000D01*
X63471000Y-62087000D02*
X66920000Y-62087000D01*
X57540000Y-62087000D02*
X60989000Y-62087000D01*
X63471000Y-62127000D02*
X66937000Y-62127000D01*
X57523000Y-62127000D02*
X60989000Y-62127000D01*
X63471000Y-62167000D02*
X66953000Y-62167000D01*
X57507000Y-62167000D02*
X60989000Y-62167000D01*
X63471000Y-62207000D02*
X66968000Y-62207000D01*
X57492000Y-62207000D02*
X60989000Y-62207000D01*
X63471000Y-62247000D02*
X66984000Y-62247000D01*
X57476000Y-62247000D02*
X60989000Y-62247000D01*
X63471000Y-62287000D02*
X66998000Y-62287000D01*
X57462000Y-62287000D02*
X60989000Y-62287000D01*
X63471000Y-62327000D02*
X67013000Y-62327000D01*
X57447000Y-62327000D02*
X60989000Y-62327000D01*
X63471000Y-62367000D02*
X67027000Y-62367000D01*
X57433000Y-62367000D02*
X60989000Y-62367000D01*
X63471000Y-62407000D02*
X67041000Y-62407000D01*
X57419000Y-62407000D02*
X60989000Y-62407000D01*
X63471000Y-62447000D02*
X67054000Y-62447000D01*
X57406000Y-62447000D02*
X60989000Y-62447000D01*
X63471000Y-62487000D02*
X67067000Y-62487000D01*
X57393000Y-62487000D02*
X60989000Y-62487000D01*
X63471000Y-62527000D02*
X67080000Y-62527000D01*
X57380000Y-62527000D02*
X60989000Y-62527000D01*
X63471000Y-62567000D02*
X67092000Y-62567000D01*
X57368000Y-62567000D02*
X60989000Y-62567000D01*
X63471000Y-62607000D02*
X67104000Y-62607000D01*
X57356000Y-62607000D02*
X60989000Y-62607000D01*
X63471000Y-62647000D02*
X67115000Y-62647000D01*
X57345000Y-62647000D02*
X60989000Y-62647000D01*
X63471000Y-62687000D02*
X67127000Y-62687000D01*
X57333000Y-62687000D02*
X60989000Y-62687000D01*
X63471000Y-62727000D02*
X67137000Y-62727000D01*
X57323000Y-62727000D02*
X60989000Y-62727000D01*
X63471000Y-62767000D02*
X67148000Y-62767000D01*
X57312000Y-62767000D02*
X60989000Y-62767000D01*
X57302000Y-62807000D02*
X67158000Y-62807000D01*
X57292000Y-62847000D02*
X67168000Y-62847000D01*
X57283000Y-62887000D02*
X67177000Y-62887000D01*
X57274000Y-62927000D02*
X67186000Y-62927000D01*
X57265000Y-62967000D02*
X67195000Y-62967000D01*
X57256000Y-63007000D02*
X67204000Y-63007000D01*
X57248000Y-63047000D02*
X67212000Y-63047000D01*
X57240000Y-63087000D02*
X67220000Y-63087000D01*
X57233000Y-63127000D02*
X67227000Y-63127000D01*
X57226000Y-63167000D02*
X67234000Y-63167000D01*
X57219000Y-63207000D02*
X67241000Y-63207000D01*
X57212000Y-63247000D02*
X67248000Y-63247000D01*
X57206000Y-63287000D02*
X67254000Y-63287000D01*
X57200000Y-63327000D02*
X67260000Y-63327000D01*
X57195000Y-63368000D02*
X67265000Y-63368000D01*
X57190000Y-63408000D02*
X67270000Y-63408000D01*
X57185000Y-63448000D02*
X67275000Y-63448000D01*
X57180000Y-63488000D02*
X67280000Y-63488000D01*
X57176000Y-63528000D02*
X67284000Y-63528000D01*
X57172000Y-63568000D02*
X67288000Y-63568000D01*
X57168000Y-63608000D02*
X67292000Y-63608000D01*
X57165000Y-63648000D02*
X67295000Y-63648000D01*
X57162000Y-63688000D02*
X67298000Y-63688000D01*
X57160000Y-63728000D02*
X67300000Y-63728000D01*
X57157000Y-63768000D02*
X67303000Y-63768000D01*
X57155000Y-63808000D02*
X67305000Y-63808000D01*
X57153000Y-63848000D02*
X67307000Y-63848000D01*
X57152000Y-63888000D02*
X67308000Y-63888000D01*
X57151000Y-63928000D02*
X67309000Y-63928000D01*
X57150000Y-63968000D02*
X67310000Y-63968000D01*
X57150000Y-64008000D02*
X67310000Y-64008000D01*
X57150000Y-64048000D02*
X67310000Y-64048000D01*
X67350000Y-64048000D02*
G75*
G03*
X67350000Y-64048000I-5120000J0D01*
G01*
X64798752Y-70385000D02*
X64276248Y-70385000D01*
X64798752Y-71855000D02*
X64276248Y-71855000D01*
X78075560Y-69550000D02*
X78075560Y-71350000D01*
X77175560Y-70450000D02*
X78975560Y-70450000D01*
X96055000Y-75525000D02*
X96055000Y-75605000D01*
X96015000Y-74751000D02*
X96015000Y-76379000D01*
X95975000Y-74399000D02*
X95975000Y-76731000D01*
X95935000Y-74130000D02*
X95935000Y-77000000D01*
X95895000Y-73904000D02*
X95895000Y-77226000D01*
X95855000Y-73705000D02*
X95855000Y-77425000D01*
X95815000Y-73526000D02*
X95815000Y-77604000D01*
X95775000Y-73362000D02*
X95775000Y-77768000D01*
X95735000Y-73210000D02*
X95735000Y-77920000D01*
X95695000Y-73067000D02*
X95695000Y-78063000D01*
X95655000Y-72933000D02*
X95655000Y-78197000D01*
X95615000Y-72806000D02*
X95615000Y-78324000D01*
X95575000Y-72685000D02*
X95575000Y-78445000D01*
X95535000Y-72569000D02*
X95535000Y-78561000D01*
X95495000Y-72458000D02*
X95495000Y-78672000D01*
X95455000Y-72351000D02*
X95455000Y-78779000D01*
X95415000Y-72248000D02*
X95415000Y-78882000D01*
X95375000Y-72149000D02*
X95375000Y-78981000D01*
X95335000Y-72053000D02*
X95335000Y-79077000D01*
X95295000Y-71960000D02*
X95295000Y-79170000D01*
X95255000Y-71869000D02*
X95255000Y-79261000D01*
X95215000Y-71781000D02*
X95215000Y-79349000D01*
X95175000Y-71696000D02*
X95175000Y-79434000D01*
X95135000Y-71613000D02*
X95135000Y-79517000D01*
X95096000Y-71532000D02*
X95096000Y-79598000D01*
X95056000Y-71452000D02*
X95056000Y-79678000D01*
X95016000Y-71375000D02*
X95016000Y-79755000D01*
X94976000Y-71300000D02*
X94976000Y-79830000D01*
X94936000Y-71226000D02*
X94936000Y-79904000D01*
X94896000Y-71153000D02*
X94896000Y-79977000D01*
X94856000Y-71083000D02*
X94856000Y-80047000D01*
X94816000Y-71013000D02*
X94816000Y-80117000D01*
X94776000Y-70945000D02*
X94776000Y-80185000D01*
X94736000Y-70879000D02*
X94736000Y-80251000D01*
X94696000Y-70813000D02*
X94696000Y-80317000D01*
X94656000Y-70749000D02*
X94656000Y-80381000D01*
X94616000Y-70686000D02*
X94616000Y-80444000D01*
X94576000Y-70624000D02*
X94576000Y-80506000D01*
X94536000Y-70563000D02*
X94536000Y-80567000D01*
X94496000Y-70503000D02*
X94496000Y-80627000D01*
X94456000Y-70445000D02*
X94456000Y-80685000D01*
X94416000Y-70387000D02*
X94416000Y-80743000D01*
X94376000Y-70330000D02*
X94376000Y-80800000D01*
X94336000Y-70274000D02*
X94336000Y-80856000D01*
X94296000Y-70219000D02*
X94296000Y-80911000D01*
X94256000Y-70165000D02*
X94256000Y-80965000D01*
X94216000Y-70111000D02*
X94216000Y-81019000D01*
X94176000Y-70059000D02*
X94176000Y-81071000D01*
X94136000Y-70007000D02*
X94136000Y-81123000D01*
X94096000Y-69956000D02*
X94096000Y-81174000D01*
X94056000Y-69905000D02*
X94056000Y-81225000D01*
X94016000Y-69856000D02*
X94016000Y-81274000D01*
X93976000Y-69807000D02*
X93976000Y-81323000D01*
X93936000Y-69759000D02*
X93936000Y-81371000D01*
X93896000Y-69711000D02*
X93896000Y-81419000D01*
X93856000Y-69664000D02*
X93856000Y-81466000D01*
X93816000Y-69618000D02*
X93816000Y-81512000D01*
X93776000Y-69572000D02*
X93776000Y-81558000D01*
X93736000Y-69527000D02*
X93736000Y-81603000D01*
X93696000Y-69483000D02*
X93696000Y-81647000D01*
X93656000Y-69439000D02*
X93656000Y-81691000D01*
X93616000Y-69395000D02*
X93616000Y-81735000D01*
X93576000Y-69353000D02*
X93576000Y-81777000D01*
X93536000Y-69311000D02*
X93536000Y-81819000D01*
X93496000Y-69269000D02*
X93496000Y-81861000D01*
X93456000Y-69228000D02*
X93456000Y-81902000D01*
X93416000Y-69187000D02*
X93416000Y-81943000D01*
X93376000Y-69147000D02*
X93376000Y-81983000D01*
X93336000Y-69107000D02*
X93336000Y-82023000D01*
X93296000Y-69068000D02*
X93296000Y-82062000D01*
X93256000Y-69029000D02*
X93256000Y-82101000D01*
X93216000Y-68991000D02*
X93216000Y-82139000D01*
X93176000Y-68953000D02*
X93176000Y-82177000D01*
X93136000Y-68916000D02*
X93136000Y-82214000D01*
X93096000Y-68879000D02*
X93096000Y-82251000D01*
X93056000Y-68843000D02*
X93056000Y-82287000D01*
X93016000Y-68807000D02*
X93016000Y-82323000D01*
X92976000Y-68771000D02*
X92976000Y-82359000D01*
X92936000Y-68736000D02*
X92936000Y-82394000D01*
X92896000Y-68701000D02*
X92896000Y-82429000D01*
X92856000Y-68667000D02*
X92856000Y-82463000D01*
X92816000Y-68633000D02*
X92816000Y-82497000D01*
X92776000Y-68600000D02*
X92776000Y-82530000D01*
X92736000Y-68566000D02*
X92736000Y-82564000D01*
X92696000Y-68534000D02*
X92696000Y-82596000D01*
X92656000Y-68501000D02*
X92656000Y-82629000D01*
X92616000Y-68469000D02*
X92616000Y-82661000D01*
X92576000Y-68438000D02*
X92576000Y-82692000D01*
X92536000Y-68406000D02*
X92536000Y-82724000D01*
X92496000Y-68375000D02*
X92496000Y-82755000D01*
X92456000Y-68345000D02*
X92456000Y-82785000D01*
X92416000Y-68315000D02*
X92416000Y-82815000D01*
X92376000Y-68285000D02*
X92376000Y-82845000D01*
X92336000Y-68255000D02*
X92336000Y-82875000D01*
X92296000Y-68226000D02*
X92296000Y-82904000D01*
X92256000Y-68197000D02*
X92256000Y-82933000D01*
X92216000Y-68168000D02*
X92216000Y-82962000D01*
X92176000Y-68140000D02*
X92176000Y-82990000D01*
X92136000Y-68112000D02*
X92136000Y-83018000D01*
X92096000Y-77005000D02*
X92096000Y-83045000D01*
X92096000Y-68085000D02*
X92096000Y-74125000D01*
X92056000Y-77005000D02*
X92056000Y-83073000D01*
X92056000Y-68057000D02*
X92056000Y-74125000D01*
X92016000Y-77005000D02*
X92016000Y-83100000D01*
X92016000Y-68030000D02*
X92016000Y-74125000D01*
X91976000Y-77005000D02*
X91976000Y-83126000D01*
X91976000Y-68004000D02*
X91976000Y-74125000D01*
X91936000Y-77005000D02*
X91936000Y-83153000D01*
X91936000Y-67977000D02*
X91936000Y-74125000D01*
X91896000Y-77005000D02*
X91896000Y-83179000D01*
X91896000Y-67951000D02*
X91896000Y-74125000D01*
X91856000Y-77005000D02*
X91856000Y-83205000D01*
X91856000Y-67925000D02*
X91856000Y-74125000D01*
X91816000Y-77005000D02*
X91816000Y-83230000D01*
X91816000Y-67900000D02*
X91816000Y-74125000D01*
X91776000Y-77005000D02*
X91776000Y-83255000D01*
X91776000Y-67875000D02*
X91776000Y-74125000D01*
X91736000Y-77005000D02*
X91736000Y-83280000D01*
X91736000Y-67850000D02*
X91736000Y-74125000D01*
X91696000Y-77005000D02*
X91696000Y-83305000D01*
X91696000Y-67825000D02*
X91696000Y-74125000D01*
X91656000Y-77005000D02*
X91656000Y-83329000D01*
X91656000Y-67801000D02*
X91656000Y-74125000D01*
X91616000Y-77005000D02*
X91616000Y-83353000D01*
X91616000Y-67777000D02*
X91616000Y-74125000D01*
X91576000Y-77005000D02*
X91576000Y-83377000D01*
X91576000Y-67753000D02*
X91576000Y-74125000D01*
X91536000Y-77005000D02*
X91536000Y-83400000D01*
X91536000Y-67730000D02*
X91536000Y-74125000D01*
X91496000Y-77005000D02*
X91496000Y-83424000D01*
X91496000Y-67706000D02*
X91496000Y-74125000D01*
X91456000Y-77005000D02*
X91456000Y-83447000D01*
X91456000Y-67683000D02*
X91456000Y-74125000D01*
X91416000Y-77005000D02*
X91416000Y-83469000D01*
X91416000Y-67661000D02*
X91416000Y-74125000D01*
X91376000Y-77005000D02*
X91376000Y-83492000D01*
X91376000Y-67638000D02*
X91376000Y-74125000D01*
X91336000Y-77005000D02*
X91336000Y-83514000D01*
X91336000Y-67616000D02*
X91336000Y-74125000D01*
X91296000Y-77005000D02*
X91296000Y-83536000D01*
X91296000Y-67594000D02*
X91296000Y-74125000D01*
X91256000Y-77005000D02*
X91256000Y-83557000D01*
X91256000Y-67573000D02*
X91256000Y-74125000D01*
X91216000Y-77005000D02*
X91216000Y-83579000D01*
X91216000Y-67551000D02*
X91216000Y-74125000D01*
X91176000Y-77005000D02*
X91176000Y-83600000D01*
X91176000Y-67530000D02*
X91176000Y-74125000D01*
X91136000Y-77005000D02*
X91136000Y-83621000D01*
X91136000Y-67509000D02*
X91136000Y-74125000D01*
X91096000Y-77005000D02*
X91096000Y-83641000D01*
X91096000Y-67489000D02*
X91096000Y-74125000D01*
X91056000Y-77005000D02*
X91056000Y-83662000D01*
X91056000Y-67468000D02*
X91056000Y-74125000D01*
X91016000Y-77005000D02*
X91016000Y-83682000D01*
X91016000Y-67448000D02*
X91016000Y-74125000D01*
X90976000Y-77005000D02*
X90976000Y-83702000D01*
X90976000Y-67428000D02*
X90976000Y-74125000D01*
X90936000Y-77005000D02*
X90936000Y-83721000D01*
X90936000Y-67409000D02*
X90936000Y-74125000D01*
X90896000Y-77005000D02*
X90896000Y-83741000D01*
X90896000Y-67389000D02*
X90896000Y-74125000D01*
X90856000Y-77005000D02*
X90856000Y-83760000D01*
X90856000Y-67370000D02*
X90856000Y-74125000D01*
X90816000Y-77005000D02*
X90816000Y-83779000D01*
X90816000Y-67351000D02*
X90816000Y-74125000D01*
X90776000Y-77005000D02*
X90776000Y-83798000D01*
X90776000Y-67332000D02*
X90776000Y-74125000D01*
X90736000Y-77005000D02*
X90736000Y-83816000D01*
X90736000Y-67314000D02*
X90736000Y-74125000D01*
X90696000Y-77005000D02*
X90696000Y-83834000D01*
X90696000Y-67296000D02*
X90696000Y-74125000D01*
X90656000Y-77005000D02*
X90656000Y-83852000D01*
X90656000Y-67278000D02*
X90656000Y-74125000D01*
X90616000Y-77005000D02*
X90616000Y-83870000D01*
X90616000Y-67260000D02*
X90616000Y-74125000D01*
X90576000Y-77005000D02*
X90576000Y-83888000D01*
X90576000Y-67242000D02*
X90576000Y-74125000D01*
X90536000Y-77005000D02*
X90536000Y-83905000D01*
X90536000Y-67225000D02*
X90536000Y-74125000D01*
X90496000Y-77005000D02*
X90496000Y-83922000D01*
X90496000Y-67208000D02*
X90496000Y-74125000D01*
X90456000Y-77005000D02*
X90456000Y-83939000D01*
X90456000Y-67191000D02*
X90456000Y-74125000D01*
X90416000Y-77005000D02*
X90416000Y-83955000D01*
X90416000Y-67175000D02*
X90416000Y-74125000D01*
X90376000Y-77005000D02*
X90376000Y-83972000D01*
X90376000Y-67158000D02*
X90376000Y-74125000D01*
X90336000Y-77005000D02*
X90336000Y-83988000D01*
X90336000Y-67142000D02*
X90336000Y-74125000D01*
X90296000Y-77005000D02*
X90296000Y-84004000D01*
X90296000Y-67126000D02*
X90296000Y-74125000D01*
X90256000Y-77005000D02*
X90256000Y-84020000D01*
X90256000Y-67110000D02*
X90256000Y-74125000D01*
X90216000Y-77005000D02*
X90216000Y-84035000D01*
X90216000Y-67095000D02*
X90216000Y-74125000D01*
X90176000Y-77005000D02*
X90176000Y-84051000D01*
X90176000Y-67079000D02*
X90176000Y-74125000D01*
X90136000Y-77005000D02*
X90136000Y-84066000D01*
X90136000Y-67064000D02*
X90136000Y-74125000D01*
X90096000Y-77005000D02*
X90096000Y-84081000D01*
X90096000Y-67049000D02*
X90096000Y-74125000D01*
X90056000Y-77005000D02*
X90056000Y-84095000D01*
X90056000Y-67035000D02*
X90056000Y-74125000D01*
X90016000Y-77005000D02*
X90016000Y-84110000D01*
X90016000Y-67020000D02*
X90016000Y-74125000D01*
X89976000Y-77005000D02*
X89976000Y-84124000D01*
X89976000Y-67006000D02*
X89976000Y-74125000D01*
X89936000Y-77005000D02*
X89936000Y-84138000D01*
X89936000Y-66992000D02*
X89936000Y-74125000D01*
X89896000Y-77005000D02*
X89896000Y-84152000D01*
X89896000Y-66978000D02*
X89896000Y-74125000D01*
X89856000Y-77005000D02*
X89856000Y-84165000D01*
X89856000Y-66965000D02*
X89856000Y-74125000D01*
X89816000Y-77005000D02*
X89816000Y-84179000D01*
X89816000Y-66951000D02*
X89816000Y-74125000D01*
X89776000Y-77005000D02*
X89776000Y-84192000D01*
X89776000Y-66938000D02*
X89776000Y-74125000D01*
X89736000Y-77005000D02*
X89736000Y-84205000D01*
X89736000Y-66925000D02*
X89736000Y-74125000D01*
X89696000Y-77005000D02*
X89696000Y-84218000D01*
X89696000Y-66912000D02*
X89696000Y-74125000D01*
X89656000Y-77005000D02*
X89656000Y-84230000D01*
X89656000Y-66900000D02*
X89656000Y-74125000D01*
X89616000Y-77005000D02*
X89616000Y-84243000D01*
X89616000Y-66887000D02*
X89616000Y-74125000D01*
X89576000Y-77005000D02*
X89576000Y-84255000D01*
X89576000Y-66875000D02*
X89576000Y-74125000D01*
X89536000Y-77005000D02*
X89536000Y-84267000D01*
X89536000Y-66863000D02*
X89536000Y-74125000D01*
X89496000Y-77005000D02*
X89496000Y-84279000D01*
X89496000Y-66851000D02*
X89496000Y-74125000D01*
X89456000Y-77005000D02*
X89456000Y-84290000D01*
X89456000Y-66840000D02*
X89456000Y-74125000D01*
X89416000Y-77005000D02*
X89416000Y-84302000D01*
X89416000Y-66828000D02*
X89416000Y-74125000D01*
X89376000Y-77005000D02*
X89376000Y-84313000D01*
X89376000Y-66817000D02*
X89376000Y-74125000D01*
X89336000Y-77005000D02*
X89336000Y-84324000D01*
X89336000Y-66806000D02*
X89336000Y-74125000D01*
X89296000Y-77005000D02*
X89296000Y-84335000D01*
X89296000Y-66795000D02*
X89296000Y-74125000D01*
X89256000Y-77005000D02*
X89256000Y-84345000D01*
X89256000Y-66785000D02*
X89256000Y-74125000D01*
X89216000Y-66774000D02*
X89216000Y-84356000D01*
X89176000Y-66764000D02*
X89176000Y-84366000D01*
X89136000Y-66754000D02*
X89136000Y-84376000D01*
X89096000Y-66744000D02*
X89096000Y-84386000D01*
X89056000Y-66734000D02*
X89056000Y-84396000D01*
X89016000Y-66725000D02*
X89016000Y-84405000D01*
X88976000Y-66716000D02*
X88976000Y-84414000D01*
X88936000Y-66707000D02*
X88936000Y-84423000D01*
X88896000Y-66698000D02*
X88896000Y-84432000D01*
X88856000Y-66689000D02*
X88856000Y-84441000D01*
X88816000Y-66680000D02*
X88816000Y-84450000D01*
X88776000Y-66672000D02*
X88776000Y-84458000D01*
X88736000Y-66664000D02*
X88736000Y-84466000D01*
X88696000Y-66656000D02*
X88696000Y-84474000D01*
X88656000Y-66648000D02*
X88656000Y-84482000D01*
X88616000Y-66641000D02*
X88616000Y-84489000D01*
X88576000Y-66633000D02*
X88576000Y-84497000D01*
X88536000Y-66626000D02*
X88536000Y-84504000D01*
X88496000Y-66619000D02*
X88496000Y-84511000D01*
X88456000Y-66612000D02*
X88456000Y-84518000D01*
X88416000Y-66605000D02*
X88416000Y-84525000D01*
X88376000Y-66599000D02*
X88376000Y-84531000D01*
X88336000Y-66593000D02*
X88336000Y-84537000D01*
X88296000Y-66586000D02*
X88296000Y-84544000D01*
X88256000Y-66581000D02*
X88256000Y-84549000D01*
X88216000Y-66575000D02*
X88216000Y-84555000D01*
X88176000Y-66569000D02*
X88176000Y-84561000D01*
X88136000Y-66564000D02*
X88136000Y-84566000D01*
X88096000Y-66559000D02*
X88096000Y-84571000D01*
X88056000Y-66554000D02*
X88056000Y-84576000D01*
X88016000Y-66549000D02*
X88016000Y-84581000D01*
X87976000Y-66544000D02*
X87976000Y-84586000D01*
X87936000Y-66539000D02*
X87936000Y-84591000D01*
X87896000Y-66535000D02*
X87896000Y-84595000D01*
X87856000Y-66531000D02*
X87856000Y-84599000D01*
X87816000Y-66527000D02*
X87816000Y-84603000D01*
X87776000Y-66523000D02*
X87776000Y-84607000D01*
X87736000Y-66520000D02*
X87736000Y-84610000D01*
X87696000Y-66516000D02*
X87696000Y-84614000D01*
X87656000Y-66513000D02*
X87656000Y-84617000D01*
X87615000Y-66510000D02*
X87615000Y-84620000D01*
X87575000Y-66507000D02*
X87575000Y-84623000D01*
X87535000Y-66504000D02*
X87535000Y-84626000D01*
X87495000Y-66502000D02*
X87495000Y-84628000D01*
X87455000Y-66499000D02*
X87455000Y-84631000D01*
X87415000Y-66497000D02*
X87415000Y-84633000D01*
X87375000Y-66495000D02*
X87375000Y-84635000D01*
X87335000Y-66493000D02*
X87335000Y-84637000D01*
X87295000Y-66492000D02*
X87295000Y-84638000D01*
X87255000Y-66490000D02*
X87255000Y-84640000D01*
X87215000Y-66489000D02*
X87215000Y-84641000D01*
X87175000Y-66488000D02*
X87175000Y-84642000D01*
X87135000Y-66487000D02*
X87135000Y-84643000D01*
X87095000Y-66486000D02*
X87095000Y-84644000D01*
X87055000Y-66485000D02*
X87055000Y-84645000D01*
X87015000Y-66485000D02*
X87015000Y-84645000D01*
X86975000Y-66485000D02*
X86975000Y-84645000D01*
X86935000Y-66484000D02*
X86935000Y-84646000D01*
X96055000Y-75565000D02*
G75*
G03*
X96055000Y-75565000I-9120000J0D01*
G01*
D10*
X118522380Y-61698095D02*
X117522380Y-61698095D01*
X117522380Y-61460000D01*
X117570000Y-61317142D01*
X117665238Y-61221904D01*
X117760476Y-61174285D01*
X117950952Y-61126666D01*
X118093809Y-61126666D01*
X118284285Y-61174285D01*
X118379523Y-61221904D01*
X118474761Y-61317142D01*
X118522380Y-61460000D01*
X118522380Y-61698095D01*
X118522380Y-60650476D02*
X118522380Y-60460000D01*
X118474761Y-60364761D01*
X118427142Y-60317142D01*
X118284285Y-60221904D01*
X118093809Y-60174285D01*
X117712857Y-60174285D01*
X117617619Y-60221904D01*
X117570000Y-60269523D01*
X117522380Y-60364761D01*
X117522380Y-60555238D01*
X117570000Y-60650476D01*
X117617619Y-60698095D01*
X117712857Y-60745714D01*
X117950952Y-60745714D01*
X118046190Y-60698095D01*
X118093809Y-60650476D01*
X118141428Y-60555238D01*
X118141428Y-60364761D01*
X118093809Y-60269523D01*
X118046190Y-60221904D01*
X117950952Y-60174285D01*
X116657380Y-50903095D02*
X115657380Y-50903095D01*
X115657380Y-50665000D01*
X115705000Y-50522142D01*
X115800238Y-50426904D01*
X115895476Y-50379285D01*
X116085952Y-50331666D01*
X116228809Y-50331666D01*
X116419285Y-50379285D01*
X116514523Y-50426904D01*
X116609761Y-50522142D01*
X116657380Y-50665000D01*
X116657380Y-50903095D01*
X116085952Y-49760238D02*
X116038333Y-49855476D01*
X115990714Y-49903095D01*
X115895476Y-49950714D01*
X115847857Y-49950714D01*
X115752619Y-49903095D01*
X115705000Y-49855476D01*
X115657380Y-49760238D01*
X115657380Y-49569761D01*
X115705000Y-49474523D01*
X115752619Y-49426904D01*
X115847857Y-49379285D01*
X115895476Y-49379285D01*
X115990714Y-49426904D01*
X116038333Y-49474523D01*
X116085952Y-49569761D01*
X116085952Y-49760238D01*
X116133571Y-49855476D01*
X116181190Y-49903095D01*
X116276428Y-49950714D01*
X116466904Y-49950714D01*
X116562142Y-49903095D01*
X116609761Y-49855476D01*
X116657380Y-49760238D01*
X116657380Y-49569761D01*
X116609761Y-49474523D01*
X116562142Y-49426904D01*
X116466904Y-49379285D01*
X116276428Y-49379285D01*
X116181190Y-49426904D01*
X116133571Y-49474523D01*
X116085952Y-49569761D01*
X139517380Y-50903095D02*
X138517380Y-50903095D01*
X138517380Y-50665000D01*
X138565000Y-50522142D01*
X138660238Y-50426904D01*
X138755476Y-50379285D01*
X138945952Y-50331666D01*
X139088809Y-50331666D01*
X139279285Y-50379285D01*
X139374523Y-50426904D01*
X139469761Y-50522142D01*
X139517380Y-50665000D01*
X139517380Y-50903095D01*
X138517380Y-49998333D02*
X138517380Y-49331666D01*
X139517380Y-49760238D01*
X139557380Y-61793095D02*
X138557380Y-61793095D01*
X138557380Y-61555000D01*
X138605000Y-61412142D01*
X138700238Y-61316904D01*
X138795476Y-61269285D01*
X138985952Y-61221666D01*
X139128809Y-61221666D01*
X139319285Y-61269285D01*
X139414523Y-61316904D01*
X139509761Y-61412142D01*
X139557380Y-61555000D01*
X139557380Y-61793095D01*
X138557380Y-60364523D02*
X138557380Y-60555000D01*
X138605000Y-60650238D01*
X138652619Y-60697857D01*
X138795476Y-60793095D01*
X138985952Y-60840714D01*
X139366904Y-60840714D01*
X139462142Y-60793095D01*
X139509761Y-60745476D01*
X139557380Y-60650238D01*
X139557380Y-60459761D01*
X139509761Y-60364523D01*
X139462142Y-60316904D01*
X139366904Y-60269285D01*
X139128809Y-60269285D01*
X139033571Y-60316904D01*
X138985952Y-60364523D01*
X138938333Y-60459761D01*
X138938333Y-60650238D01*
X138985952Y-60745476D01*
X139033571Y-60793095D01*
X139128809Y-60840714D01*
X105132142Y-49410857D02*
X105179761Y-49458476D01*
X105227380Y-49601333D01*
X105227380Y-49696571D01*
X105179761Y-49839428D01*
X105084523Y-49934666D01*
X104989285Y-49982285D01*
X104798809Y-50029904D01*
X104655952Y-50029904D01*
X104465476Y-49982285D01*
X104370238Y-49934666D01*
X104275000Y-49839428D01*
X104227380Y-49696571D01*
X104227380Y-49601333D01*
X104275000Y-49458476D01*
X104322619Y-49410857D01*
X105227380Y-48458476D02*
X105227380Y-49029904D01*
X105227380Y-48744190D02*
X104227380Y-48744190D01*
X104370238Y-48839428D01*
X104465476Y-48934666D01*
X104513095Y-49029904D01*
X104227380Y-48125142D02*
X104227380Y-47458476D01*
X105227380Y-47887047D01*
X129786142Y-51255142D02*
X129738523Y-51302761D01*
X129595666Y-51350380D01*
X129500428Y-51350380D01*
X129357571Y-51302761D01*
X129262333Y-51207523D01*
X129214714Y-51112285D01*
X129167095Y-50921809D01*
X129167095Y-50778952D01*
X129214714Y-50588476D01*
X129262333Y-50493238D01*
X129357571Y-50398000D01*
X129500428Y-50350380D01*
X129595666Y-50350380D01*
X129738523Y-50398000D01*
X129786142Y-50445619D01*
X130738523Y-51350380D02*
X130167095Y-51350380D01*
X130452809Y-51350380D02*
X130452809Y-50350380D01*
X130357571Y-50493238D01*
X130262333Y-50588476D01*
X130167095Y-50636095D01*
X131595666Y-50350380D02*
X131405190Y-50350380D01*
X131309952Y-50398000D01*
X131262333Y-50445619D01*
X131167095Y-50588476D01*
X131119476Y-50778952D01*
X131119476Y-51159904D01*
X131167095Y-51255142D01*
X131214714Y-51302761D01*
X131309952Y-51350380D01*
X131500428Y-51350380D01*
X131595666Y-51302761D01*
X131643285Y-51255142D01*
X131690904Y-51159904D01*
X131690904Y-50921809D01*
X131643285Y-50826571D01*
X131595666Y-50778952D01*
X131500428Y-50731333D01*
X131309952Y-50731333D01*
X131214714Y-50778952D01*
X131167095Y-50826571D01*
X131119476Y-50921809D01*
X77263666Y-60031380D02*
X77263666Y-60745666D01*
X77216047Y-60888523D01*
X77120809Y-60983761D01*
X76977952Y-61031380D01*
X76882714Y-61031380D01*
X77644619Y-60031380D02*
X78263666Y-60031380D01*
X77930333Y-60412333D01*
X78073190Y-60412333D01*
X78168428Y-60459952D01*
X78216047Y-60507571D01*
X78263666Y-60602809D01*
X78263666Y-60840904D01*
X78216047Y-60936142D01*
X78168428Y-60983761D01*
X78073190Y-61031380D01*
X77787476Y-61031380D01*
X77692238Y-60983761D01*
X77644619Y-60936142D01*
X91876666Y-57078571D02*
X91543333Y-57078571D01*
X91543333Y-57602380D02*
X91543333Y-56602380D01*
X92019523Y-56602380D01*
X92733809Y-57078571D02*
X92876666Y-57126190D01*
X92924285Y-57173809D01*
X92971904Y-57269047D01*
X92971904Y-57411904D01*
X92924285Y-57507142D01*
X92876666Y-57554761D01*
X92781428Y-57602380D01*
X92400476Y-57602380D01*
X92400476Y-56602380D01*
X92733809Y-56602380D01*
X92829047Y-56650000D01*
X92876666Y-56697619D01*
X92924285Y-56792857D01*
X92924285Y-56888095D01*
X92876666Y-56983333D01*
X92829047Y-57030952D01*
X92733809Y-57078571D01*
X92400476Y-57078571D01*
X93305238Y-56602380D02*
X93924285Y-56602380D01*
X93590952Y-56983333D01*
X93733809Y-56983333D01*
X93829047Y-57030952D01*
X93876666Y-57078571D01*
X93924285Y-57173809D01*
X93924285Y-57411904D01*
X93876666Y-57507142D01*
X93829047Y-57554761D01*
X93733809Y-57602380D01*
X93448095Y-57602380D01*
X93352857Y-57554761D01*
X93305238Y-57507142D01*
X91876666Y-51363571D02*
X91543333Y-51363571D01*
X91543333Y-51887380D02*
X91543333Y-50887380D01*
X92019523Y-50887380D01*
X92733809Y-51363571D02*
X92876666Y-51411190D01*
X92924285Y-51458809D01*
X92971904Y-51554047D01*
X92971904Y-51696904D01*
X92924285Y-51792142D01*
X92876666Y-51839761D01*
X92781428Y-51887380D01*
X92400476Y-51887380D01*
X92400476Y-50887380D01*
X92733809Y-50887380D01*
X92829047Y-50935000D01*
X92876666Y-50982619D01*
X92924285Y-51077857D01*
X92924285Y-51173095D01*
X92876666Y-51268333D01*
X92829047Y-51315952D01*
X92733809Y-51363571D01*
X92400476Y-51363571D01*
X93352857Y-50982619D02*
X93400476Y-50935000D01*
X93495714Y-50887380D01*
X93733809Y-50887380D01*
X93829047Y-50935000D01*
X93876666Y-50982619D01*
X93924285Y-51077857D01*
X93924285Y-51173095D01*
X93876666Y-51315952D01*
X93305238Y-51887380D01*
X93924285Y-51887380D01*
X72953666Y-68000571D02*
X72620333Y-68000571D01*
X72620333Y-68524380D02*
X72620333Y-67524380D01*
X73096523Y-67524380D01*
X73810809Y-68000571D02*
X73953666Y-68048190D01*
X74001285Y-68095809D01*
X74048904Y-68191047D01*
X74048904Y-68333904D01*
X74001285Y-68429142D01*
X73953666Y-68476761D01*
X73858428Y-68524380D01*
X73477476Y-68524380D01*
X73477476Y-67524380D01*
X73810809Y-67524380D01*
X73906047Y-67572000D01*
X73953666Y-67619619D01*
X74001285Y-67714857D01*
X74001285Y-67810095D01*
X73953666Y-67905333D01*
X73906047Y-67952952D01*
X73810809Y-68000571D01*
X73477476Y-68000571D01*
X75001285Y-68524380D02*
X74429857Y-68524380D01*
X74715571Y-68524380D02*
X74715571Y-67524380D01*
X74620333Y-67667238D01*
X74525095Y-67762476D01*
X74429857Y-67810095D01*
X88659642Y-61219142D02*
X88612023Y-61266761D01*
X88469166Y-61314380D01*
X88373928Y-61314380D01*
X88231071Y-61266761D01*
X88135833Y-61171523D01*
X88088214Y-61076285D01*
X88040595Y-60885809D01*
X88040595Y-60742952D01*
X88088214Y-60552476D01*
X88135833Y-60457238D01*
X88231071Y-60362000D01*
X88373928Y-60314380D01*
X88469166Y-60314380D01*
X88612023Y-60362000D01*
X88659642Y-60409619D01*
X89612023Y-61314380D02*
X89040595Y-61314380D01*
X89326309Y-61314380D02*
X89326309Y-60314380D01*
X89231071Y-60457238D01*
X89135833Y-60552476D01*
X89040595Y-60600095D01*
X90516785Y-60314380D02*
X90040595Y-60314380D01*
X89992976Y-60790571D01*
X90040595Y-60742952D01*
X90135833Y-60695333D01*
X90373928Y-60695333D01*
X90469166Y-60742952D01*
X90516785Y-60790571D01*
X90564404Y-60885809D01*
X90564404Y-61123904D01*
X90516785Y-61219142D01*
X90469166Y-61266761D01*
X90373928Y-61314380D01*
X90135833Y-61314380D01*
X90040595Y-61266761D01*
X89992976Y-61219142D01*
X88638142Y-55729142D02*
X88590523Y-55776761D01*
X88447666Y-55824380D01*
X88352428Y-55824380D01*
X88209571Y-55776761D01*
X88114333Y-55681523D01*
X88066714Y-55586285D01*
X88019095Y-55395809D01*
X88019095Y-55252952D01*
X88066714Y-55062476D01*
X88114333Y-54967238D01*
X88209571Y-54872000D01*
X88352428Y-54824380D01*
X88447666Y-54824380D01*
X88590523Y-54872000D01*
X88638142Y-54919619D01*
X89590523Y-55824380D02*
X89019095Y-55824380D01*
X89304809Y-55824380D02*
X89304809Y-54824380D01*
X89209571Y-54967238D01*
X89114333Y-55062476D01*
X89019095Y-55110095D01*
X90447666Y-55157714D02*
X90447666Y-55824380D01*
X90209571Y-54776761D02*
X89971476Y-55491047D01*
X90590523Y-55491047D01*
X73144142Y-70715142D02*
X73096523Y-70762761D01*
X72953666Y-70810380D01*
X72858428Y-70810380D01*
X72715571Y-70762761D01*
X72620333Y-70667523D01*
X72572714Y-70572285D01*
X72525095Y-70381809D01*
X72525095Y-70238952D01*
X72572714Y-70048476D01*
X72620333Y-69953238D01*
X72715571Y-69858000D01*
X72858428Y-69810380D01*
X72953666Y-69810380D01*
X73096523Y-69858000D01*
X73144142Y-69905619D01*
X74096523Y-70810380D02*
X73525095Y-70810380D01*
X73810809Y-70810380D02*
X73810809Y-69810380D01*
X73715571Y-69953238D01*
X73620333Y-70048476D01*
X73525095Y-70096095D01*
X74429857Y-69810380D02*
X75048904Y-69810380D01*
X74715571Y-70191333D01*
X74858428Y-70191333D01*
X74953666Y-70238952D01*
X75001285Y-70286571D01*
X75048904Y-70381809D01*
X75048904Y-70619904D01*
X75001285Y-70715142D01*
X74953666Y-70762761D01*
X74858428Y-70810380D01*
X74572714Y-70810380D01*
X74477476Y-70762761D01*
X74429857Y-70715142D01*
X112307380Y-61086904D02*
X113116904Y-61086904D01*
X113212142Y-61039285D01*
X113259761Y-60991666D01*
X113307380Y-60896428D01*
X113307380Y-60705952D01*
X113259761Y-60610714D01*
X113212142Y-60563095D01*
X113116904Y-60515476D01*
X112307380Y-60515476D01*
X112307380Y-60134523D02*
X112307380Y-59515476D01*
X112688333Y-59848809D01*
X112688333Y-59705952D01*
X112735952Y-59610714D01*
X112783571Y-59563095D01*
X112878809Y-59515476D01*
X113116904Y-59515476D01*
X113212142Y-59563095D01*
X113259761Y-59610714D01*
X113307380Y-59705952D01*
X113307380Y-59991666D01*
X113259761Y-60086904D01*
X113212142Y-60134523D01*
X137707380Y-54101904D02*
X138516904Y-54101904D01*
X138612142Y-54054285D01*
X138659761Y-54006666D01*
X138707380Y-53911428D01*
X138707380Y-53720952D01*
X138659761Y-53625714D01*
X138612142Y-53578095D01*
X138516904Y-53530476D01*
X137707380Y-53530476D01*
X137802619Y-53101904D02*
X137755000Y-53054285D01*
X137707380Y-52959047D01*
X137707380Y-52720952D01*
X137755000Y-52625714D01*
X137802619Y-52578095D01*
X137897857Y-52530476D01*
X137993095Y-52530476D01*
X138135952Y-52578095D01*
X138707380Y-53149523D01*
X138707380Y-52530476D01*
X65278095Y-78652380D02*
X65278095Y-79461904D01*
X65325714Y-79557142D01*
X65373333Y-79604761D01*
X65468571Y-79652380D01*
X65659047Y-79652380D01*
X65754285Y-79604761D01*
X65801904Y-79557142D01*
X65849523Y-79461904D01*
X65849523Y-78652380D01*
X66849523Y-79652380D02*
X66278095Y-79652380D01*
X66563809Y-79652380D02*
X66563809Y-78652380D01*
X66468571Y-78795238D01*
X66373333Y-78890476D01*
X66278095Y-78938095D01*
X132588095Y-87082380D02*
X133159523Y-87082380D01*
X132873809Y-88082380D02*
X132873809Y-87082380D01*
X133445238Y-87177619D02*
X133492857Y-87130000D01*
X133588095Y-87082380D01*
X133826190Y-87082380D01*
X133921428Y-87130000D01*
X133969047Y-87177619D01*
X134016666Y-87272857D01*
X134016666Y-87368095D01*
X133969047Y-87510952D01*
X133397619Y-88082380D01*
X134016666Y-88082380D01*
X108870714Y-126102380D02*
X108299285Y-126102380D01*
X108585000Y-126102380D02*
X108585000Y-125102380D01*
X108489761Y-125245238D01*
X108394523Y-125340476D01*
X108299285Y-125388095D01*
X113299285Y-125197619D02*
X113346904Y-125150000D01*
X113442142Y-125102380D01*
X113680238Y-125102380D01*
X113775476Y-125150000D01*
X113823095Y-125197619D01*
X113870714Y-125292857D01*
X113870714Y-125388095D01*
X113823095Y-125530952D01*
X113251666Y-126102380D01*
X113870714Y-126102380D01*
X120751666Y-125102380D02*
X121370714Y-125102380D01*
X121037380Y-125483333D01*
X121180238Y-125483333D01*
X121275476Y-125530952D01*
X121323095Y-125578571D01*
X121370714Y-125673809D01*
X121370714Y-125911904D01*
X121323095Y-126007142D01*
X121275476Y-126054761D01*
X121180238Y-126102380D01*
X120894523Y-126102380D01*
X120799285Y-126054761D01*
X120751666Y-126007142D01*
X128775476Y-125435714D02*
X128775476Y-126102380D01*
X128537380Y-125054761D02*
X128299285Y-125769047D01*
X128918333Y-125769047D01*
X133823095Y-125102380D02*
X133346904Y-125102380D01*
X133299285Y-125578571D01*
X133346904Y-125530952D01*
X133442142Y-125483333D01*
X133680238Y-125483333D01*
X133775476Y-125530952D01*
X133823095Y-125578571D01*
X133870714Y-125673809D01*
X133870714Y-125911904D01*
X133823095Y-126007142D01*
X133775476Y-126054761D01*
X133680238Y-126102380D01*
X133442142Y-126102380D01*
X133346904Y-126054761D01*
X133299285Y-126007142D01*
X133775476Y-90602380D02*
X133585000Y-90602380D01*
X133489761Y-90650000D01*
X133442142Y-90697619D01*
X133346904Y-90840476D01*
X133299285Y-91030952D01*
X133299285Y-91411904D01*
X133346904Y-91507142D01*
X133394523Y-91554761D01*
X133489761Y-91602380D01*
X133680238Y-91602380D01*
X133775476Y-91554761D01*
X133823095Y-91507142D01*
X133870714Y-91411904D01*
X133870714Y-91173809D01*
X133823095Y-91078571D01*
X133775476Y-91030952D01*
X133680238Y-90983333D01*
X133489761Y-90983333D01*
X133394523Y-91030952D01*
X133346904Y-91078571D01*
X133299285Y-91173809D01*
X128251666Y-90602380D02*
X128918333Y-90602380D01*
X128489761Y-91602380D01*
X120989761Y-91030952D02*
X120894523Y-90983333D01*
X120846904Y-90935714D01*
X120799285Y-90840476D01*
X120799285Y-90792857D01*
X120846904Y-90697619D01*
X120894523Y-90650000D01*
X120989761Y-90602380D01*
X121180238Y-90602380D01*
X121275476Y-90650000D01*
X121323095Y-90697619D01*
X121370714Y-90792857D01*
X121370714Y-90840476D01*
X121323095Y-90935714D01*
X121275476Y-90983333D01*
X121180238Y-91030952D01*
X120989761Y-91030952D01*
X120894523Y-91078571D01*
X120846904Y-91126190D01*
X120799285Y-91221428D01*
X120799285Y-91411904D01*
X120846904Y-91507142D01*
X120894523Y-91554761D01*
X120989761Y-91602380D01*
X121180238Y-91602380D01*
X121275476Y-91554761D01*
X121323095Y-91507142D01*
X121370714Y-91411904D01*
X121370714Y-91221428D01*
X121323095Y-91126190D01*
X121275476Y-91078571D01*
X121180238Y-91030952D01*
X113394523Y-91602380D02*
X113585000Y-91602380D01*
X113680238Y-91554761D01*
X113727857Y-91507142D01*
X113823095Y-91364285D01*
X113870714Y-91173809D01*
X113870714Y-90792857D01*
X113823095Y-90697619D01*
X113775476Y-90650000D01*
X113680238Y-90602380D01*
X113489761Y-90602380D01*
X113394523Y-90650000D01*
X113346904Y-90697619D01*
X113299285Y-90792857D01*
X113299285Y-91030952D01*
X113346904Y-91126190D01*
X113394523Y-91173809D01*
X113489761Y-91221428D01*
X113680238Y-91221428D01*
X113775476Y-91173809D01*
X113823095Y-91126190D01*
X113870714Y-91030952D01*
X108394523Y-91602380D02*
X107823095Y-91602380D01*
X108108809Y-91602380D02*
X108108809Y-90602380D01*
X108013571Y-90745238D01*
X107918333Y-90840476D01*
X107823095Y-90888095D01*
X109013571Y-90602380D02*
X109108809Y-90602380D01*
X109204047Y-90650000D01*
X109251666Y-90697619D01*
X109299285Y-90792857D01*
X109346904Y-90983333D01*
X109346904Y-91221428D01*
X109299285Y-91411904D01*
X109251666Y-91507142D01*
X109204047Y-91554761D01*
X109108809Y-91602380D01*
X109013571Y-91602380D01*
X108918333Y-91554761D01*
X108870714Y-91507142D01*
X108823095Y-91411904D01*
X108775476Y-91221428D01*
X108775476Y-90983333D01*
X108823095Y-90792857D01*
X108870714Y-90697619D01*
X108918333Y-90650000D01*
X109013571Y-90602380D01*
X85598095Y-87082380D02*
X86169523Y-87082380D01*
X85883809Y-88082380D02*
X85883809Y-87082380D01*
X87026666Y-88082380D02*
X86455238Y-88082380D01*
X86740952Y-88082380D02*
X86740952Y-87082380D01*
X86645714Y-87225238D01*
X86550476Y-87320476D01*
X86455238Y-87368095D01*
X61880714Y-126102380D02*
X61309285Y-126102380D01*
X61595000Y-126102380D02*
X61595000Y-125102380D01*
X61499761Y-125245238D01*
X61404523Y-125340476D01*
X61309285Y-125388095D01*
X66309285Y-125197619D02*
X66356904Y-125150000D01*
X66452142Y-125102380D01*
X66690238Y-125102380D01*
X66785476Y-125150000D01*
X66833095Y-125197619D01*
X66880714Y-125292857D01*
X66880714Y-125388095D01*
X66833095Y-125530952D01*
X66261666Y-126102380D01*
X66880714Y-126102380D01*
X73761666Y-125102380D02*
X74380714Y-125102380D01*
X74047380Y-125483333D01*
X74190238Y-125483333D01*
X74285476Y-125530952D01*
X74333095Y-125578571D01*
X74380714Y-125673809D01*
X74380714Y-125911904D01*
X74333095Y-126007142D01*
X74285476Y-126054761D01*
X74190238Y-126102380D01*
X73904523Y-126102380D01*
X73809285Y-126054761D01*
X73761666Y-126007142D01*
X81785476Y-125435714D02*
X81785476Y-126102380D01*
X81547380Y-125054761D02*
X81309285Y-125769047D01*
X81928333Y-125769047D01*
X86833095Y-125102380D02*
X86356904Y-125102380D01*
X86309285Y-125578571D01*
X86356904Y-125530952D01*
X86452142Y-125483333D01*
X86690238Y-125483333D01*
X86785476Y-125530952D01*
X86833095Y-125578571D01*
X86880714Y-125673809D01*
X86880714Y-125911904D01*
X86833095Y-126007142D01*
X86785476Y-126054761D01*
X86690238Y-126102380D01*
X86452142Y-126102380D01*
X86356904Y-126054761D01*
X86309285Y-126007142D01*
X86785476Y-90602380D02*
X86595000Y-90602380D01*
X86499761Y-90650000D01*
X86452142Y-90697619D01*
X86356904Y-90840476D01*
X86309285Y-91030952D01*
X86309285Y-91411904D01*
X86356904Y-91507142D01*
X86404523Y-91554761D01*
X86499761Y-91602380D01*
X86690238Y-91602380D01*
X86785476Y-91554761D01*
X86833095Y-91507142D01*
X86880714Y-91411904D01*
X86880714Y-91173809D01*
X86833095Y-91078571D01*
X86785476Y-91030952D01*
X86690238Y-90983333D01*
X86499761Y-90983333D01*
X86404523Y-91030952D01*
X86356904Y-91078571D01*
X86309285Y-91173809D01*
X81261666Y-90602380D02*
X81928333Y-90602380D01*
X81499761Y-91602380D01*
X73999761Y-91030952D02*
X73904523Y-90983333D01*
X73856904Y-90935714D01*
X73809285Y-90840476D01*
X73809285Y-90792857D01*
X73856904Y-90697619D01*
X73904523Y-90650000D01*
X73999761Y-90602380D01*
X74190238Y-90602380D01*
X74285476Y-90650000D01*
X74333095Y-90697619D01*
X74380714Y-90792857D01*
X74380714Y-90840476D01*
X74333095Y-90935714D01*
X74285476Y-90983333D01*
X74190238Y-91030952D01*
X73999761Y-91030952D01*
X73904523Y-91078571D01*
X73856904Y-91126190D01*
X73809285Y-91221428D01*
X73809285Y-91411904D01*
X73856904Y-91507142D01*
X73904523Y-91554761D01*
X73999761Y-91602380D01*
X74190238Y-91602380D01*
X74285476Y-91554761D01*
X74333095Y-91507142D01*
X74380714Y-91411904D01*
X74380714Y-91221428D01*
X74333095Y-91126190D01*
X74285476Y-91078571D01*
X74190238Y-91030952D01*
X66404523Y-91602380D02*
X66595000Y-91602380D01*
X66690238Y-91554761D01*
X66737857Y-91507142D01*
X66833095Y-91364285D01*
X66880714Y-91173809D01*
X66880714Y-90792857D01*
X66833095Y-90697619D01*
X66785476Y-90650000D01*
X66690238Y-90602380D01*
X66499761Y-90602380D01*
X66404523Y-90650000D01*
X66356904Y-90697619D01*
X66309285Y-90792857D01*
X66309285Y-91030952D01*
X66356904Y-91126190D01*
X66404523Y-91173809D01*
X66499761Y-91221428D01*
X66690238Y-91221428D01*
X66785476Y-91173809D01*
X66833095Y-91126190D01*
X66880714Y-91030952D01*
X61404523Y-91602380D02*
X60833095Y-91602380D01*
X61118809Y-91602380D02*
X61118809Y-90602380D01*
X61023571Y-90745238D01*
X60928333Y-90840476D01*
X60833095Y-90888095D01*
X62023571Y-90602380D02*
X62118809Y-90602380D01*
X62214047Y-90650000D01*
X62261666Y-90697619D01*
X62309285Y-90792857D01*
X62356904Y-90983333D01*
X62356904Y-91221428D01*
X62309285Y-91411904D01*
X62261666Y-91507142D01*
X62214047Y-91554761D01*
X62118809Y-91602380D01*
X62023571Y-91602380D01*
X61928333Y-91554761D01*
X61880714Y-91507142D01*
X61833095Y-91411904D01*
X61785476Y-91221428D01*
X61785476Y-90983333D01*
X61833095Y-90792857D01*
X61880714Y-90697619D01*
X61928333Y-90650000D01*
X62023571Y-90602380D01*
X114236666Y-129024761D02*
X114379523Y-129072380D01*
X114617619Y-129072380D01*
X114712857Y-129024761D01*
X114760476Y-128977142D01*
X114808095Y-128881904D01*
X114808095Y-128786666D01*
X114760476Y-128691428D01*
X114712857Y-128643809D01*
X114617619Y-128596190D01*
X114427142Y-128548571D01*
X114331904Y-128500952D01*
X114284285Y-128453333D01*
X114236666Y-128358095D01*
X114236666Y-128262857D01*
X114284285Y-128167619D01*
X114331904Y-128120000D01*
X114427142Y-128072380D01*
X114665238Y-128072380D01*
X114808095Y-128120000D01*
X115141428Y-128072380D02*
X115379523Y-129072380D01*
X115570000Y-128358095D01*
X115760476Y-129072380D01*
X115998571Y-128072380D01*
X116903333Y-129072380D02*
X116331904Y-129072380D01*
X116617619Y-129072380D02*
X116617619Y-128072380D01*
X116522380Y-128215238D01*
X116427142Y-128310476D01*
X116331904Y-128358095D01*
X96559761Y-50109380D02*
X96226428Y-49633190D01*
X95988333Y-50109380D02*
X95988333Y-49109380D01*
X96369285Y-49109380D01*
X96464523Y-49157000D01*
X96512142Y-49204619D01*
X96559761Y-49299857D01*
X96559761Y-49442714D01*
X96512142Y-49537952D01*
X96464523Y-49585571D01*
X96369285Y-49633190D01*
X95988333Y-49633190D01*
X96845476Y-49109380D02*
X97178809Y-50109380D01*
X97512142Y-49109380D01*
X97797857Y-49204619D02*
X97845476Y-49157000D01*
X97940714Y-49109380D01*
X98178809Y-49109380D01*
X98274047Y-49157000D01*
X98321666Y-49204619D01*
X98369285Y-49299857D01*
X98369285Y-49395095D01*
X98321666Y-49537952D01*
X97750238Y-50109380D01*
X98369285Y-50109380D01*
X121959761Y-51252380D02*
X121626428Y-50776190D01*
X121388333Y-51252380D02*
X121388333Y-50252380D01*
X121769285Y-50252380D01*
X121864523Y-50300000D01*
X121912142Y-50347619D01*
X121959761Y-50442857D01*
X121959761Y-50585714D01*
X121912142Y-50680952D01*
X121864523Y-50728571D01*
X121769285Y-50776190D01*
X121388333Y-50776190D01*
X122245476Y-50252380D02*
X122578809Y-51252380D01*
X122912142Y-50252380D01*
X123769285Y-51252380D02*
X123197857Y-51252380D01*
X123483571Y-51252380D02*
X123483571Y-50252380D01*
X123388333Y-50395238D01*
X123293095Y-50490476D01*
X123197857Y-50538095D01*
X102687380Y-59348666D02*
X102211190Y-59682000D01*
X102687380Y-59920095D02*
X101687380Y-59920095D01*
X101687380Y-59539142D01*
X101735000Y-59443904D01*
X101782619Y-59396285D01*
X101877857Y-59348666D01*
X102020714Y-59348666D01*
X102115952Y-59396285D01*
X102163571Y-59443904D01*
X102211190Y-59539142D01*
X102211190Y-59920095D01*
X101687380Y-59015333D02*
X101687380Y-58348666D01*
X102687380Y-58777238D01*
X102687380Y-49426666D02*
X102211190Y-49760000D01*
X102687380Y-49998095D02*
X101687380Y-49998095D01*
X101687380Y-49617142D01*
X101735000Y-49521904D01*
X101782619Y-49474285D01*
X101877857Y-49426666D01*
X102020714Y-49426666D01*
X102115952Y-49474285D01*
X102163571Y-49521904D01*
X102211190Y-49617142D01*
X102211190Y-49998095D01*
X101687380Y-48569523D02*
X101687380Y-48760000D01*
X101735000Y-48855238D01*
X101782619Y-48902857D01*
X101925476Y-48998095D01*
X102115952Y-49045714D01*
X102496904Y-49045714D01*
X102592142Y-48998095D01*
X102639761Y-48950476D01*
X102687380Y-48855238D01*
X102687380Y-48664761D01*
X102639761Y-48569523D01*
X102592142Y-48521904D01*
X102496904Y-48474285D01*
X102258809Y-48474285D01*
X102163571Y-48521904D01*
X102115952Y-48569523D01*
X102068333Y-48664761D01*
X102068333Y-48855238D01*
X102115952Y-48950476D01*
X102163571Y-48998095D01*
X102258809Y-49045714D01*
X64841380Y-52871666D02*
X64365190Y-53205000D01*
X64841380Y-53443095D02*
X63841380Y-53443095D01*
X63841380Y-53062142D01*
X63889000Y-52966904D01*
X63936619Y-52919285D01*
X64031857Y-52871666D01*
X64174714Y-52871666D01*
X64269952Y-52919285D01*
X64317571Y-52966904D01*
X64365190Y-53062142D01*
X64365190Y-53443095D01*
X63841380Y-51966904D02*
X63841380Y-52443095D01*
X64317571Y-52490714D01*
X64269952Y-52443095D01*
X64222333Y-52347857D01*
X64222333Y-52109761D01*
X64269952Y-52014523D01*
X64317571Y-51966904D01*
X64412809Y-51919285D01*
X64650904Y-51919285D01*
X64746142Y-51966904D01*
X64793761Y-52014523D01*
X64841380Y-52109761D01*
X64841380Y-52347857D01*
X64793761Y-52443095D01*
X64746142Y-52490714D01*
X61412380Y-52871666D02*
X60936190Y-53205000D01*
X61412380Y-53443095D02*
X60412380Y-53443095D01*
X60412380Y-53062142D01*
X60460000Y-52966904D01*
X60507619Y-52919285D01*
X60602857Y-52871666D01*
X60745714Y-52871666D01*
X60840952Y-52919285D01*
X60888571Y-52966904D01*
X60936190Y-53062142D01*
X60936190Y-53443095D01*
X60745714Y-52014523D02*
X61412380Y-52014523D01*
X60364761Y-52252619D02*
X61079047Y-52490714D01*
X61079047Y-51871666D01*
X57983380Y-52871666D02*
X57507190Y-53205000D01*
X57983380Y-53443095D02*
X56983380Y-53443095D01*
X56983380Y-53062142D01*
X57031000Y-52966904D01*
X57078619Y-52919285D01*
X57173857Y-52871666D01*
X57316714Y-52871666D01*
X57411952Y-52919285D01*
X57459571Y-52966904D01*
X57507190Y-53062142D01*
X57507190Y-53443095D01*
X56983380Y-52538333D02*
X56983380Y-51919285D01*
X57364333Y-52252619D01*
X57364333Y-52109761D01*
X57411952Y-52014523D01*
X57459571Y-51966904D01*
X57554809Y-51919285D01*
X57792904Y-51919285D01*
X57888142Y-51966904D01*
X57935761Y-52014523D01*
X57983380Y-52109761D01*
X57983380Y-52395476D01*
X57935761Y-52490714D01*
X57888142Y-52538333D01*
X127833380Y-50823666D02*
X127357190Y-51157000D01*
X127833380Y-51395095D02*
X126833380Y-51395095D01*
X126833380Y-51014142D01*
X126881000Y-50918904D01*
X126928619Y-50871285D01*
X127023857Y-50823666D01*
X127166714Y-50823666D01*
X127261952Y-50871285D01*
X127309571Y-50918904D01*
X127357190Y-51014142D01*
X127357190Y-51395095D01*
X126928619Y-50442714D02*
X126881000Y-50395095D01*
X126833380Y-50299857D01*
X126833380Y-50061761D01*
X126881000Y-49966523D01*
X126928619Y-49918904D01*
X127023857Y-49871285D01*
X127119095Y-49871285D01*
X127261952Y-49918904D01*
X127833380Y-50490333D01*
X127833380Y-49871285D01*
X128976380Y-56808666D02*
X128500190Y-57142000D01*
X128976380Y-57380095D02*
X127976380Y-57380095D01*
X127976380Y-56999142D01*
X128024000Y-56903904D01*
X128071619Y-56856285D01*
X128166857Y-56808666D01*
X128309714Y-56808666D01*
X128404952Y-56856285D01*
X128452571Y-56903904D01*
X128500190Y-56999142D01*
X128500190Y-57380095D01*
X128976380Y-55856285D02*
X128976380Y-56427714D01*
X128976380Y-56142000D02*
X127976380Y-56142000D01*
X128119238Y-56237238D01*
X128214476Y-56332476D01*
X128262095Y-56427714D01*
X84883666Y-59650380D02*
X84883666Y-60364666D01*
X84836047Y-60507523D01*
X84740809Y-60602761D01*
X84597952Y-60650380D01*
X84502714Y-60650380D01*
X85312238Y-59745619D02*
X85359857Y-59698000D01*
X85455095Y-59650380D01*
X85693190Y-59650380D01*
X85788428Y-59698000D01*
X85836047Y-59745619D01*
X85883666Y-59840857D01*
X85883666Y-59936095D01*
X85836047Y-60078952D01*
X85264619Y-60650380D01*
X85883666Y-60650380D01*
X69516666Y-128072380D02*
X69516666Y-128786666D01*
X69469047Y-128929523D01*
X69373809Y-129024761D01*
X69230952Y-129072380D01*
X69135714Y-129072380D01*
X70516666Y-129072380D02*
X69945238Y-129072380D01*
X70230952Y-129072380D02*
X70230952Y-128072380D01*
X70135714Y-128215238D01*
X70040476Y-128310476D01*
X69945238Y-128358095D01*
X92196666Y-128548571D02*
X91863333Y-128548571D01*
X91863333Y-129072380D02*
X91863333Y-128072380D01*
X92339523Y-128072380D01*
X93244285Y-129072380D02*
X92672857Y-129072380D01*
X92958571Y-129072380D02*
X92958571Y-128072380D01*
X92863333Y-128215238D01*
X92768095Y-128310476D01*
X92672857Y-128358095D01*
X123579914Y-78358364D02*
X124287020Y-77651257D01*
X124455379Y-77819616D01*
X124522723Y-77954303D01*
X124522723Y-78088990D01*
X124489051Y-78190005D01*
X124388036Y-78358364D01*
X124287020Y-78459379D01*
X124118662Y-78560395D01*
X124017646Y-78594066D01*
X123882959Y-78594066D01*
X123748272Y-78526723D01*
X123579914Y-78358364D01*
X125330845Y-78695082D02*
X124994127Y-78358364D01*
X124623738Y-78661410D01*
X124691082Y-78661410D01*
X124792097Y-78695082D01*
X124960456Y-78863440D01*
X124994127Y-78964456D01*
X124994127Y-79031799D01*
X124960456Y-79132814D01*
X124792097Y-79301173D01*
X124691082Y-79334845D01*
X124623738Y-79334845D01*
X124522723Y-79301173D01*
X124354364Y-79132814D01*
X124320692Y-79031799D01*
X124320692Y-78964456D01*
X64841380Y-56237095D02*
X63841380Y-56237095D01*
X63841380Y-55999000D01*
X63889000Y-55856142D01*
X63984238Y-55760904D01*
X64079476Y-55713285D01*
X64269952Y-55665666D01*
X64412809Y-55665666D01*
X64603285Y-55713285D01*
X64698523Y-55760904D01*
X64793761Y-55856142D01*
X64841380Y-55999000D01*
X64841380Y-56237095D01*
X64174714Y-54808523D02*
X64841380Y-54808523D01*
X63793761Y-55046619D02*
X64508047Y-55284714D01*
X64508047Y-54665666D01*
X61412380Y-56237095D02*
X60412380Y-56237095D01*
X60412380Y-55999000D01*
X60460000Y-55856142D01*
X60555238Y-55760904D01*
X60650476Y-55713285D01*
X60840952Y-55665666D01*
X60983809Y-55665666D01*
X61174285Y-55713285D01*
X61269523Y-55760904D01*
X61364761Y-55856142D01*
X61412380Y-55999000D01*
X61412380Y-56237095D01*
X60412380Y-55332333D02*
X60412380Y-54713285D01*
X60793333Y-55046619D01*
X60793333Y-54903761D01*
X60840952Y-54808523D01*
X60888571Y-54760904D01*
X60983809Y-54713285D01*
X61221904Y-54713285D01*
X61317142Y-54760904D01*
X61364761Y-54808523D01*
X61412380Y-54903761D01*
X61412380Y-55189476D01*
X61364761Y-55284714D01*
X61317142Y-55332333D01*
X57983380Y-56237095D02*
X56983380Y-56237095D01*
X56983380Y-55999000D01*
X57031000Y-55856142D01*
X57126238Y-55760904D01*
X57221476Y-55713285D01*
X57411952Y-55665666D01*
X57554809Y-55665666D01*
X57745285Y-55713285D01*
X57840523Y-55760904D01*
X57935761Y-55856142D01*
X57983380Y-55999000D01*
X57983380Y-56237095D01*
X57078619Y-55284714D02*
X57031000Y-55237095D01*
X56983380Y-55141857D01*
X56983380Y-54903761D01*
X57031000Y-54808523D01*
X57078619Y-54760904D01*
X57173857Y-54713285D01*
X57269095Y-54713285D01*
X57411952Y-54760904D01*
X57983380Y-55332333D01*
X57983380Y-54713285D01*
X75954914Y-78358364D02*
X76662020Y-77651257D01*
X76830379Y-77819616D01*
X76897723Y-77954303D01*
X76897723Y-78088990D01*
X76864051Y-78190005D01*
X76763036Y-78358364D01*
X76662020Y-78459379D01*
X76493662Y-78560395D01*
X76392646Y-78594066D01*
X76257959Y-78594066D01*
X76123272Y-78526723D01*
X75954914Y-78358364D01*
X77032410Y-79435860D02*
X76628349Y-79031799D01*
X76830379Y-79233830D02*
X77537486Y-78526723D01*
X77369127Y-78560395D01*
X77234440Y-78560395D01*
X77133425Y-78526723D01*
X105132142Y-64650857D02*
X105179761Y-64698476D01*
X105227380Y-64841333D01*
X105227380Y-64936571D01*
X105179761Y-65079428D01*
X105084523Y-65174666D01*
X104989285Y-65222285D01*
X104798809Y-65269904D01*
X104655952Y-65269904D01*
X104465476Y-65222285D01*
X104370238Y-65174666D01*
X104275000Y-65079428D01*
X104227380Y-64936571D01*
X104227380Y-64841333D01*
X104275000Y-64698476D01*
X104322619Y-64650857D01*
X105227380Y-63698476D02*
X105227380Y-64269904D01*
X105227380Y-63984190D02*
X104227380Y-63984190D01*
X104370238Y-64079428D01*
X104465476Y-64174666D01*
X104513095Y-64269904D01*
X104322619Y-63317523D02*
X104275000Y-63269904D01*
X104227380Y-63174666D01*
X104227380Y-62936571D01*
X104275000Y-62841333D01*
X104322619Y-62793714D01*
X104417857Y-62746095D01*
X104513095Y-62746095D01*
X104655952Y-62793714D01*
X105227380Y-63365142D01*
X105227380Y-62746095D01*
X90908142Y-64182857D02*
X90955761Y-64230476D01*
X91003380Y-64373333D01*
X91003380Y-64468571D01*
X90955761Y-64611428D01*
X90860523Y-64706666D01*
X90765285Y-64754285D01*
X90574809Y-64801904D01*
X90431952Y-64801904D01*
X90241476Y-64754285D01*
X90146238Y-64706666D01*
X90051000Y-64611428D01*
X90003380Y-64468571D01*
X90003380Y-64373333D01*
X90051000Y-64230476D01*
X90098619Y-64182857D01*
X91003380Y-63230476D02*
X91003380Y-63801904D01*
X91003380Y-63516190D02*
X90003380Y-63516190D01*
X90146238Y-63611428D01*
X90241476Y-63706666D01*
X90289095Y-63801904D01*
X91003380Y-62278095D02*
X91003380Y-62849523D01*
X91003380Y-62563809D02*
X90003380Y-62563809D01*
X90146238Y-62659047D01*
X90241476Y-62754285D01*
X90289095Y-62849523D01*
X106910142Y-56649857D02*
X106957761Y-56697476D01*
X107005380Y-56840333D01*
X107005380Y-56935571D01*
X106957761Y-57078428D01*
X106862523Y-57173666D01*
X106767285Y-57221285D01*
X106576809Y-57268904D01*
X106433952Y-57268904D01*
X106243476Y-57221285D01*
X106148238Y-57173666D01*
X106053000Y-57078428D01*
X106005380Y-56935571D01*
X106005380Y-56840333D01*
X106053000Y-56697476D01*
X106100619Y-56649857D01*
X107005380Y-55697476D02*
X107005380Y-56268904D01*
X107005380Y-55983190D02*
X106005380Y-55983190D01*
X106148238Y-56078428D01*
X106243476Y-56173666D01*
X106291095Y-56268904D01*
X106005380Y-55078428D02*
X106005380Y-54983190D01*
X106053000Y-54887952D01*
X106100619Y-54840333D01*
X106195857Y-54792714D01*
X106386333Y-54745095D01*
X106624428Y-54745095D01*
X106814904Y-54792714D01*
X106910142Y-54840333D01*
X106957761Y-54887952D01*
X107005380Y-54983190D01*
X107005380Y-55078428D01*
X106957761Y-55173666D01*
X106910142Y-55221285D01*
X106814904Y-55268904D01*
X106624428Y-55316523D01*
X106386333Y-55316523D01*
X106195857Y-55268904D01*
X106100619Y-55221285D01*
X106053000Y-55173666D01*
X106005380Y-55078428D01*
X106386333Y-86209142D02*
X106338714Y-86256761D01*
X106195857Y-86304380D01*
X106100619Y-86304380D01*
X105957761Y-86256761D01*
X105862523Y-86161523D01*
X105814904Y-86066285D01*
X105767285Y-85875809D01*
X105767285Y-85732952D01*
X105814904Y-85542476D01*
X105862523Y-85447238D01*
X105957761Y-85352000D01*
X106100619Y-85304380D01*
X106195857Y-85304380D01*
X106338714Y-85352000D01*
X106386333Y-85399619D01*
X106862523Y-86304380D02*
X107053000Y-86304380D01*
X107148238Y-86256761D01*
X107195857Y-86209142D01*
X107291095Y-86066285D01*
X107338714Y-85875809D01*
X107338714Y-85494857D01*
X107291095Y-85399619D01*
X107243476Y-85352000D01*
X107148238Y-85304380D01*
X106957761Y-85304380D01*
X106862523Y-85352000D01*
X106814904Y-85399619D01*
X106767285Y-85494857D01*
X106767285Y-85732952D01*
X106814904Y-85828190D01*
X106862523Y-85875809D01*
X106957761Y-85923428D01*
X107148238Y-85923428D01*
X107243476Y-85875809D01*
X107291095Y-85828190D01*
X107338714Y-85732952D01*
X128373142Y-62799166D02*
X128420761Y-62846785D01*
X128468380Y-62989642D01*
X128468380Y-63084880D01*
X128420761Y-63227738D01*
X128325523Y-63322976D01*
X128230285Y-63370595D01*
X128039809Y-63418214D01*
X127896952Y-63418214D01*
X127706476Y-63370595D01*
X127611238Y-63322976D01*
X127516000Y-63227738D01*
X127468380Y-63084880D01*
X127468380Y-62989642D01*
X127516000Y-62846785D01*
X127563619Y-62799166D01*
X127896952Y-62227738D02*
X127849333Y-62322976D01*
X127801714Y-62370595D01*
X127706476Y-62418214D01*
X127658857Y-62418214D01*
X127563619Y-62370595D01*
X127516000Y-62322976D01*
X127468380Y-62227738D01*
X127468380Y-62037261D01*
X127516000Y-61942023D01*
X127563619Y-61894404D01*
X127658857Y-61846785D01*
X127706476Y-61846785D01*
X127801714Y-61894404D01*
X127849333Y-61942023D01*
X127896952Y-62037261D01*
X127896952Y-62227738D01*
X127944571Y-62322976D01*
X127992190Y-62370595D01*
X128087428Y-62418214D01*
X128277904Y-62418214D01*
X128373142Y-62370595D01*
X128420761Y-62322976D01*
X128468380Y-62227738D01*
X128468380Y-62037261D01*
X128420761Y-61942023D01*
X128373142Y-61894404D01*
X128277904Y-61846785D01*
X128087428Y-61846785D01*
X127992190Y-61894404D01*
X127944571Y-61942023D01*
X127896952Y-62037261D01*
X123023333Y-60301142D02*
X122975714Y-60348761D01*
X122832857Y-60396380D01*
X122737619Y-60396380D01*
X122594761Y-60348761D01*
X122499523Y-60253523D01*
X122451904Y-60158285D01*
X122404285Y-59967809D01*
X122404285Y-59824952D01*
X122451904Y-59634476D01*
X122499523Y-59539238D01*
X122594761Y-59444000D01*
X122737619Y-59396380D01*
X122832857Y-59396380D01*
X122975714Y-59444000D01*
X123023333Y-59491619D01*
X123356666Y-59396380D02*
X124023333Y-59396380D01*
X123594761Y-60396380D01*
X130532142Y-63666666D02*
X130579761Y-63714285D01*
X130627380Y-63857142D01*
X130627380Y-63952380D01*
X130579761Y-64095238D01*
X130484523Y-64190476D01*
X130389285Y-64238095D01*
X130198809Y-64285714D01*
X130055952Y-64285714D01*
X129865476Y-64238095D01*
X129770238Y-64190476D01*
X129675000Y-64095238D01*
X129627380Y-63952380D01*
X129627380Y-63857142D01*
X129675000Y-63714285D01*
X129722619Y-63666666D01*
X129627380Y-62809523D02*
X129627380Y-63000000D01*
X129675000Y-63095238D01*
X129722619Y-63142857D01*
X129865476Y-63238095D01*
X130055952Y-63285714D01*
X130436904Y-63285714D01*
X130532142Y-63238095D01*
X130579761Y-63190476D01*
X130627380Y-63095238D01*
X130627380Y-62904761D01*
X130579761Y-62809523D01*
X130532142Y-62761904D01*
X130436904Y-62714285D01*
X130198809Y-62714285D01*
X130103571Y-62761904D01*
X130055952Y-62809523D01*
X130008333Y-62904761D01*
X130008333Y-63095238D01*
X130055952Y-63190476D01*
X130103571Y-63238095D01*
X130198809Y-63285714D01*
X134326333Y-65889142D02*
X134278714Y-65936761D01*
X134135857Y-65984380D01*
X134040619Y-65984380D01*
X133897761Y-65936761D01*
X133802523Y-65841523D01*
X133754904Y-65746285D01*
X133707285Y-65555809D01*
X133707285Y-65412952D01*
X133754904Y-65222476D01*
X133802523Y-65127238D01*
X133897761Y-65032000D01*
X134040619Y-64984380D01*
X134135857Y-64984380D01*
X134278714Y-65032000D01*
X134326333Y-65079619D01*
X135231095Y-64984380D02*
X134754904Y-64984380D01*
X134707285Y-65460571D01*
X134754904Y-65412952D01*
X134850142Y-65365333D01*
X135088238Y-65365333D01*
X135183476Y-65412952D01*
X135231095Y-65460571D01*
X135278714Y-65555809D01*
X135278714Y-65793904D01*
X135231095Y-65889142D01*
X135183476Y-65936761D01*
X135088238Y-65984380D01*
X134850142Y-65984380D01*
X134754904Y-65936761D01*
X134707285Y-65889142D01*
X56729333Y-72239142D02*
X56681714Y-72286761D01*
X56538857Y-72334380D01*
X56443619Y-72334380D01*
X56300761Y-72286761D01*
X56205523Y-72191523D01*
X56157904Y-72096285D01*
X56110285Y-71905809D01*
X56110285Y-71762952D01*
X56157904Y-71572476D01*
X56205523Y-71477238D01*
X56300761Y-71382000D01*
X56443619Y-71334380D01*
X56538857Y-71334380D01*
X56681714Y-71382000D01*
X56729333Y-71429619D01*
X57586476Y-71667714D02*
X57586476Y-72334380D01*
X57348380Y-71286761D02*
X57110285Y-72001047D01*
X57729333Y-72001047D01*
X56491142Y-64301666D02*
X56538761Y-64349285D01*
X56586380Y-64492142D01*
X56586380Y-64587380D01*
X56538761Y-64730238D01*
X56443523Y-64825476D01*
X56348285Y-64873095D01*
X56157809Y-64920714D01*
X56014952Y-64920714D01*
X55824476Y-64873095D01*
X55729238Y-64825476D01*
X55634000Y-64730238D01*
X55586380Y-64587380D01*
X55586380Y-64492142D01*
X55634000Y-64349285D01*
X55681619Y-64301666D01*
X55586380Y-63968333D02*
X55586380Y-63349285D01*
X55967333Y-63682619D01*
X55967333Y-63539761D01*
X56014952Y-63444523D01*
X56062571Y-63396904D01*
X56157809Y-63349285D01*
X56395904Y-63349285D01*
X56491142Y-63396904D01*
X56538761Y-63444523D01*
X56586380Y-63539761D01*
X56586380Y-63825476D01*
X56538761Y-63920714D01*
X56491142Y-63968333D01*
X67397333Y-72366142D02*
X67349714Y-72413761D01*
X67206857Y-72461380D01*
X67111619Y-72461380D01*
X66968761Y-72413761D01*
X66873523Y-72318523D01*
X66825904Y-72223285D01*
X66778285Y-72032809D01*
X66778285Y-71889952D01*
X66825904Y-71699476D01*
X66873523Y-71604238D01*
X66968761Y-71509000D01*
X67111619Y-71461380D01*
X67206857Y-71461380D01*
X67349714Y-71509000D01*
X67397333Y-71556619D01*
X67778285Y-71556619D02*
X67825904Y-71509000D01*
X67921142Y-71461380D01*
X68159238Y-71461380D01*
X68254476Y-71509000D01*
X68302095Y-71556619D01*
X68349714Y-71651857D01*
X68349714Y-71747095D01*
X68302095Y-71889952D01*
X67730666Y-72461380D01*
X68349714Y-72461380D01*
X86701333Y-65762142D02*
X86653714Y-65809761D01*
X86510857Y-65857380D01*
X86415619Y-65857380D01*
X86272761Y-65809761D01*
X86177523Y-65714523D01*
X86129904Y-65619285D01*
X86082285Y-65428809D01*
X86082285Y-65285952D01*
X86129904Y-65095476D01*
X86177523Y-65000238D01*
X86272761Y-64905000D01*
X86415619Y-64857380D01*
X86510857Y-64857380D01*
X86653714Y-64905000D01*
X86701333Y-64952619D01*
X87653714Y-65857380D02*
X87082285Y-65857380D01*
X87368000Y-65857380D02*
X87368000Y-64857380D01*
X87272761Y-65000238D01*
X87177523Y-65095476D01*
X87082285Y-65143095D01*
M02*
